<svg version="1.1" xmlns="http://www.w3.org/2000/svg" xmlns:xlink="http://www.w3.org/1999/xlink" width="361.61216" height="167.18872" viewBox="0,0,361.61216,167.18872"><g transform="translate(-453.28702,-200.9511)"><g data-paper-data="{&quot;isPaintingLayer&quot;:true}" fill-rule="nonzero" stroke-linecap="butt" stroke-linejoin="miter" stroke-miterlimit="10" stroke-dasharray="" stroke-dashoffset="0" style="mix-blend-mode: normal"><g><path d="M812.89918,303.9511l-238,0v-39.5h238z" fill="#d4d4d4" stroke="#000000" stroke-width="4"/><path d="M536.9792,367.85083c-45.44094,0 -82.27811,-36.83717 -82.27811,-82.27811c0,-45.44094 36.83717,-82.2781 82.27811,-82.2781c45.44094,0 82.2781,36.83717 82.2781,82.27811c0,45.44094 -36.83716,82.2781 -82.2781,82.2781z" fill="#ff0000" stroke="none" stroke-width="0"/><path d="M583.23557,352.84239c0,0 -52.51491,30.01725 -101.20049,-7.18922c-29.60225,-22.62261 -25.50393,-75.13725 -25.50393,-75.13725c0,0 4.31234,47.40612 36.53971,69.26716c42.01978,28.50362 90.16471,13.05931 90.16471,13.05931z" fill="#f0eeee" stroke="none" stroke-width="0"/><path d="M536.88138,366.13982c-45.06331,0 -81.59436,-36.53105 -81.59436,-81.59436c0,-45.06331 36.53105,-81.59436 81.59436,-81.59436c45.06331,0 81.59436,36.53105 81.59436,81.59436c0,45.06331 -36.53105,81.59436 -81.59436,81.59436z" fill="none" stroke="#000000" stroke-width="4"/><path d="M555.82436,337.5011c-2.55,-3.4 0.85,-5.95 0.85,-5.95l2.65979,-1.90652c3.55714,-1.07295 7.98836,-1.60137 11.30803,-3.39848c2.88809,-1.56348 4.17988,-3.80079 7.45578,-5.22149c0.87696,-0.38032 4.79411,-1.47173 5.74373,-2.0928c3.17773,-2.07827 5.40586,-7.02418 7.21528,-10.12843c4.33948,-7.44487 8.45229,-14.55792 8.4174,-23.35228c0.0374,-6.84204 -3.40768,-12.72273 -5.74069,-19.03818c-4.91221,-13.29739 -12.28365,-27.47449 -26.04185,-33.49775c-1.84405,-0.80731 -5.05563,-0.21407 -6.96746,-0.21407c0,0 -4.25,0 -4.25,-4.25c0,-4.25 4.25,-4.25 4.25,-4.25c3.30355,0 6.86312,-0.42463 10.03254,0.78593c16.18632,6.18237 25.32931,23.34223 30.95815,38.50225c2.76286,7.44113 6.22456,13.91993 6.25931,21.96182c-0.03468,10.41792 -4.4336,18.82713 -9.5826,27.64772c-2.52627,4.32767 -5.47573,9.96845 -9.78472,12.87157c-2.85979,1.92674 -6.64673,1.93487 -9.39765,3.92849c-1.56224,1.13217 -2.72184,2.8103 -4.40284,3.75722c-3.56666,2.00912 -7.79109,2.59137 -11.69197,3.60152l-1.34021,1.09348c0,0 -3.4,2.55 -5.95,-0.85z" fill="#000000" stroke="none" stroke-width="0.5"/><path d="M550.3853,309.2011c-5.22031,0 -10.44062,0 -15.66093,0c0,0 -0.70225,0 -1.53583,-0.28546c-12.5566,6.96515 -25.45272,13.28349 -37.77756,20.6798l-2.72847,-6.02301l-1.64474,-1.26568c0.28078,-0.16844 0.56185,-0.33633 0.8432,-0.50369l-0.1618,-0.35717c0,0 1.30017,-1.30017 3.04531,-1.33494c13.46724,-7.80022 27.48741,-14.55753 40.93779,-22.39799c4.20699,-2.10116 8.2934,-4.44551 12.3101,-6.89086c2.00652,-1.22156 4.04458,-2.39099 6.08696,-3.55159c0.3587,-0.20384 0.70279,-0.46446 1.05154,-0.71166c-1.12259,-0.79928 -2.16997,-1.71873 -3.07515,-2.7532c-2.65536,-3.03463 -3.44671,-5.65634 -6.28421,-8.27871c-6.99384,-6.46359 -15.36807,-10.8855 -22.72648,-16.76067c-3.62583,-2.89497 -6.59075,-6.63465 -10.49025,-9.14888c-1.07803,-0.69506 -2.42994,-0.8691 -3.53481,-1.52064c-0.7628,-0.44982 -1.19224,-1.38917 -2.00313,-1.74506c-0.73904,-0.32435 -1.609,-0.12888 -2.41351,-0.19332c0,0 -4.20729,-0.60104 -3.60624,-4.80833c0.60104,-4.20729 4.80833,-3.60624 4.80833,-3.60624c6.78809,1.1939 12.95469,5.52157 18.20309,10.01364c1.56394,1.33856 2.7491,3.09081 4.35521,4.37846c2.92875,2.34804 6.07198,4.45999 9.22356,6.56932c0.0753,-0.00415 0.1171,-0.00415 0.1171,-0.00415c5.35695,0 10.76031,0.01257 15.91052,-1.45892l0.03669,0.45487c0.18694,-0.08933 0.37314,-0.16257 0.55279,-0.22262l0,-0.27334h4c2.34721,0 4.25,1.90279 4.25,4.25c0,2.34721 -1.90279,4.25 -4.25,4.25h-3.55568c-1.92907,0.5407 -3.9022,0.88658 -5.89748,1.1078c2.29423,1.95915 4.43326,4.09845 6.31147,6.53754c1.17516,1.5261 2.02199,3.30053 3.29034,4.7501c2.47928,2.83353 6.76829,4.03611 7.09995,8.74569c0.30235,4.29332 -4.44342,6.21255 -7.12356,7.78945c-3.46904,2.04105 -6.86205,4.09305 -10.30598,6.06942c2.39365,0 4.78729,0 7.18094,0h3c2.34721,0 4.25,1.90279 4.25,4.25c0,2.34721 -1.90279,4.25 -4.25,4.25h-3l-0.09934,0.55132c0,0 -2.74838,1.37419 -4.73972,-0.55132z" fill="#000000" stroke="none" stroke-width="0.5"/></g></g></g></svg>