<svg version="1.1" xmlns="http://www.w3.org/2000/svg" xmlns:xlink="http://www.w3.org/1999/xlink" width="361.61509" height="167.21199" viewBox="0,0,361.61509,167.21199"><g transform="translate(-197.25408,-211.67435)"><g data-paper-data="{&quot;isPaintingLayer&quot;:true}" fill-rule="nonzero" stroke-linecap="butt" stroke-linejoin="miter" stroke-miterlimit="10" stroke-dasharray="" stroke-dashoffset="0" style="mix-blend-mode: normal"><path d="M556.58591,272.09266l-235.18008,36.5284l-6.06248,-39.03199l235.18008,-36.5284z" fill="#d4d4d4" stroke="#000000" stroke-width="4"/><path d="M293.74251,377.58369c-44.90254,6.97431 -86.95704,-23.77261 -93.93135,-68.67516c-6.97431,-44.90254 23.77261,-86.95702 68.67515,-93.93133c44.90254,-6.97431 86.95702,23.77261 93.93133,68.67515c6.97431,44.90254 -23.77259,86.95703 -68.67514,93.93133z" fill="#ff0000" stroke="none" stroke-width="0"/><path d="M337.14732,355.65359c0,0 -47.28563,37.72162 -101.10484,8.42828c-32.72365,-17.81119 -36.73387,-70.33263 -36.73387,-70.33263c0,0 11.53717,46.18259 46.73794,62.83831c45.89667,21.71667 91.10075,-0.93396 91.10075,-0.93396z" fill="#f0eeee" stroke="none" stroke-width="0"/><path d="M293.38324,375.90795c-44.52938,6.91635 -86.23441,-23.57506 -93.15076,-68.10445c-6.91635,-44.52938 23.57506,-86.23441 68.10445,-93.15076c44.52938,-6.91635 86.23441,23.57506 93.15076,68.10445c6.91635,44.52938 -23.57506,86.23441 -68.10445,93.15076z" fill="none" stroke="#000000" stroke-width="4"/><path d="M307.70629,344.70118c-3.04162,-2.96834 -0.07329,-6.00995 -0.07329,-6.00995l2.33567,-2.29216c3.35032,-1.60619 7.64794,-2.80845 10.65246,-5.09379c2.61391,-1.98822 3.547,-4.39729 6.56604,-6.30395c0.8082,-0.51041 4.51142,-2.19009 5.35447,-2.94956c2.82111,-2.54137 4.26373,-7.77065 5.57527,-11.11583c3.14542,-8.02269 6.11778,-15.6827 4.73354,-24.3675c-1.01316,-6.76671 -5.32,-12.04897 -8.59466,-17.93152c-6.89491,-12.3859 -16.35491,-25.26366 -30.87456,-29.10394c-1.9461,-0.51472 -5.02859,0.56441 -6.91777,0.85784c0,0 -4.19964,0.6523 -4.85194,-3.54735c-0.6523,-4.19964 3.54735,-4.85194 3.54735,-4.85194c3.26441,-0.50703 6.71663,-1.47296 10.0343,-0.76319c16.94341,3.62483 28.61178,19.17811 36.5007,33.29458c3.87219,6.92892 8.28725,12.79965 9.55586,20.74093c1.56468,10.29981 -1.49146,19.28453 -5.22567,28.79089c-1.83212,4.66413 -3.8809,10.69075 -7.69325,14.22083c-2.53019,2.34284 -6.27101,2.93209 -8.68335,5.32431c-1.36996,1.35852 -2.25826,3.19476 -3.77402,4.38846c-3.21604,2.53273 -7.30106,3.75645 -11.00067,5.35334l-1.1565,1.28621c0,0 -2.96834,3.04162 -6.00995,0.07329z" fill="#000000" stroke="none" stroke-width="0.5"/><path d="M297.98817,317.57127c-5.15846,0.80122 -10.3169,1.60243 -15.47538,2.40367c0,0 -0.69393,0.10779 -1.56144,-0.04636c-11.33881,8.80981 -23.11239,17.0326 -34.15602,26.2329l-3.62056,-5.53287l-1.8195,-0.99824c0.2516,-0.20955 0.50357,-0.41858 0.7559,-0.62714l-0.2147,-0.32811c0,0 1.08522,-1.48432 2.80434,-1.78651c12.11049,-9.77477 24.92742,-18.60383 37.01509,-28.41578c3.83466,-2.72195 7.51283,-5.66571 11.10664,-8.69858c1.79526,-1.51504 3.62968,-2.98343 5.46975,-4.44374c0.32316,-0.25648 0.62319,-0.56682 0.92985,-0.86463c-1.23196,-0.61751 -2.40805,-1.36531 -3.46128,-2.24861c-3.08966,-2.59113 -4.27401,-5.06031 -7.48037,-7.21611c-7.90302,-5.31358 -16.8567,-8.39782 -25.02964,-13.074c-4.0272,-2.30417 -7.53096,-5.54449 -11.77014,-7.43043c-1.17194,-0.52136 -2.53453,-0.48586 -3.72633,-0.9601c-0.82281,-0.32742 -1.39133,-1.18973 -2.24724,-1.41695c-0.78006,-0.20709 -1.60972,0.1196 -2.41458,0.1794c0,0 -4.2497,0.05182 -4.3015,-4.19787c-0.05182,-4.2497 4.19787,-4.3015 4.19787,-4.3015c6.8909,0.13792 13.64866,3.46786 19.52431,7.10117c1.75085,1.08267 3.19091,2.63225 4.97562,3.65814c3.25443,1.87072 6.68457,3.47521 10.12254,5.07584c0.07377,-0.01566 0.11507,-0.02208 0.11507,-0.02208c5.29348,-0.82219 10.63475,-1.63908 15.49809,-3.88359l0.10607,0.44386c0.17101,-0.11697 0.34376,-0.21792 0.51207,-0.30482l-0.04195,-0.27009l3.9526,-0.61392c2.3194,-0.36025 4.49169,1.22795 4.85194,3.54735c0.36025,2.3194 -1.22795,4.49169 -3.54735,4.85194l-3.51355,0.54574c-1.82322,0.83037 -3.71989,1.47498 -5.65758,1.99982c2.56774,1.58382 5.00976,3.36948 7.24008,5.49139c1.39546,1.32766 2.50459,2.95109 3.9804,4.18883c2.8848,2.41944 7.30756,2.94949 8.35813,7.55236c0.95771,4.19606 -3.43728,6.82092 -5.84362,8.79049c-3.11468,2.5493 -6.15255,5.09775 -9.25233,7.57928c2.36529,-0.36738 4.73057,-0.73475 7.09586,-1.10213l2.96445,-0.46043c2.3194,-0.36025 4.49169,1.22795 4.85194,3.54735c0.36025,2.3194 -1.22795,4.49169 -3.54735,4.85194l-2.96445,0.46043l-0.01354,0.56004c0,0 -2.5049,1.77973 -4.76818,0.18267z" fill="#000000" stroke="none" stroke-width="0.5"/></g></g></svg>