<svg version="1.1" xmlns="http://www.w3.org/2000/svg" xmlns:xlink="http://www.w3.org/1999/xlink" width="361.95706" height="167.20945" viewBox="0,0,361.95706,167.20945"><g transform="translate(-137.63582,-149.14114)"><g data-paper-data="{&quot;isPaintingLayer&quot;:true}" fill-rule="nonzero" stroke-linecap="butt" stroke-linejoin="miter" stroke-miterlimit="10" stroke-dasharray="" stroke-dashoffset="0" style="mix-blend-mode: normal"><path d="M491.75369,290.9269l-235.61597,-33.60221l5.57684,-39.10433l235.61597,33.60221z" fill="#d4d4d4" stroke="#000000" stroke-width="4"/><path d="M209.57583,315.23061c-44.98577,-6.41561 -76.25305,-48.08467 -69.83744,-93.07045c6.41561,-44.98577 48.08467,-76.25303 93.07043,-69.83743c44.98577,6.41561 76.25303,48.08467 69.83743,93.07043c-6.41561,44.98577 -48.08465,76.25305 -93.07042,69.83743z" fill="#ff0000" stroke="none" stroke-width="0"/><path d="M257.48785,306.90322c0,0 -56.22688,22.30221 -99.17177,-21.40528c-26.11175,-26.57541 -14.64016,-77.98539 -14.64016,-77.98539c0,0 -2.42393,47.54011 26.39416,73.73219c37.57457,34.15069 87.41774,25.65847 87.41774,25.65847z" fill="#f0eeee" stroke="none" stroke-width="0"/><path d="M209.72057,313.5229c-44.61191,-6.3623 -75.61937,-47.68508 -69.25707,-92.297c6.3623,-44.61191 47.68508,-75.61937 92.297,-69.25707c44.61191,6.3623 75.61937,47.68508 69.25707,92.297c-6.3623,44.61191 -47.68508,75.61937 -92.297,69.25707z" fill="none" stroke="#000000" stroke-width="4"/><path d="M232.51718,287.84555c-2.04443,-3.72596 1.68152,-5.77038 1.68152,-5.77038l2.90233,-1.51189c3.673,-0.55998 8.13444,-0.45748 11.67459,-1.76791c3.0799,-1.14006 4.67462,-3.17258 8.1183,-4.11654c0.92187,-0.25269 4.95387,-0.78013 5.98167,-1.26091c3.43933,-1.6088 6.34342,-6.19059 8.57299,-9.00828c5.34712,-6.75763 10.42299,-13.21876 11.63008,-21.92995c1.00303,-6.76822 -1.57728,-13.0764 -2.99526,-19.65797c-2.98561,-13.85772 -8.28159,-28.93355 -21.05159,-36.83895c-1.71159,-1.05958 -4.97477,-0.92571 -6.86745,-1.19563c0,0 -4.20743,-0.60003 -3.60739,-4.80747c0.60003,-4.20743 4.80747,-3.60739 4.80747,-3.60739c3.27046,0.46641 6.85433,0.5486 9.82109,2.1945c15.15132,8.40572 21.78,26.68456 25.21208,42.48742c1.6846,7.75667 4.19692,14.65932 3.09592,22.62556c-1.50519,10.30867 -7.0473,18.01258 -13.39008,26.01786c-3.11197,3.92765 -6.8283,9.09549 -11.50399,11.36117c-3.10318,1.50368 -6.85332,0.97707 -9.85816,2.56234c-1.70643,0.90026 -3.09135,2.39787 -4.88921,3.09797c-3.81459,1.48543 -8.07892,1.46543 -12.08333,1.91471l-1.48117,0.8933c0,0 -3.72596,2.04443 -5.77038,-1.68152z" fill="#000000" stroke="none" stroke-width="0.5"/><path d="M231.12816,259.06109c-5.16802,-0.73703 -10.33602,-1.47406 -15.50407,-2.21108c0,0 -0.69522,-0.09914 -1.48014,-0.49943c-13.4142,5.12256 -27.0732,9.55686 -40.31885,15.13899l-1.85078,-6.34789l-1.44956,-1.48521c0.30175,-0.12712 0.60371,-0.25364 0.90587,-0.3796l-0.10975,-0.37644c0,0 1.47072,-1.10358 3.20328,-0.89161c14.43363,-5.82071 29.26738,-10.53088 43.69,-16.39381c4.46151,-1.48614 8.83796,-3.23007 13.15969,-5.08382c2.15889,-0.92602 4.34163,-1.79601 6.52743,-2.65662c0.38388,-0.15116 0.76134,-0.36058 1.14148,-0.55608c-0.9985,-0.94976 -1.90557,-2.00788 -2.65563,-3.1598c-2.20032,-3.37914 -2.61359,-6.0863 -5.05242,-9.08302c-6.01123,-7.38627 -13.67725,-12.94621 -20.13246,-19.80143c-3.18079,-3.37789 -5.58802,-7.49872 -9.09348,-10.53831c-0.96911,-0.8403 -2.28288,-1.20347 -3.28472,-2.00448c-0.69166,-0.55302 -0.98417,-1.54359 -1.73669,-2.0104c-0.68583,-0.42546 -1.57469,-0.35476 -2.36204,-0.53213c0,0 -4.0803,-1.18903 -2.89125,-5.26931c1.18903,-4.0803 5.26931,-2.89125 5.26931,-2.89125c6.55153,2.14033 12.04536,7.29528 16.60696,12.48335c1.35928,1.54596 2.28518,3.44798 3.69341,4.9495c2.5679,2.73803 5.38148,5.27259 8.20368,7.80575c0.07513,0.00652 0.11651,0.01241 0.11651,0.01241c5.30329,0.75633 10.65076,1.53164 15.95712,0.80203l-0.0279,0.45551c0.19767,-0.06205 0.39235,-0.10826 0.57868,-0.14234l0.03859,-0.27059l3.95993,0.56474c2.3237,0.33139 3.93879,2.48377 3.60739,4.80747c-0.33139,2.3237 -2.48377,3.93879 -4.80747,3.60739l-3.52007,-0.502c-1.98608,0.26293 -3.98828,0.32676 -5.99481,0.26406c1.99465,2.26344 3.8102,4.68332 5.32525,7.36315c0.94793,1.67673 1.53573,3.55294 2.58672,5.16708c2.0544,3.15519 6.13064,4.95127 5.79407,9.66049c-0.30684,4.29301 -5.27604,5.52296 -8.15195,6.70569c-3.72247,1.53082 -7.37121,3.08323 -11.05966,4.55357c2.36967,0.33795 4.73934,0.6759 7.10901,1.01385l2.96994,0.42356c2.3237,0.33139 3.93879,2.48377 3.60739,4.80747c-0.33139,2.3237 -2.48377,3.93879 -4.80747,3.60739l-2.96994,-0.42356l-0.17618,0.53178c0,0 -2.91486,0.97239 -4.61441,-1.21498z" fill="#000000" stroke="none" stroke-width="0.5"/></g></g></svg>