<svg version="1.1" xmlns="http://www.w3.org/2000/svg" xmlns:xlink="http://www.w3.org/1999/xlink" width="357.41659" height="178.58535" viewBox="0,0,357.41659,178.58535"><g transform="translate(-314.77685,-149.29933)"><g data-paper-data="{&quot;isPaintingLayer&quot;:true}" fill-rule="nonzero" stroke-linecap="butt" stroke-linejoin="miter" stroke-miterlimit="10" stroke-dasharray="" stroke-dashoffset="0" style="mix-blend-mode: normal"><g><path d="M659.16883,325.4227l-229.33284,-63.64311l10.56262,-38.06154l229.33284,63.64311z" fill="#d4d4d4" stroke="#000000" stroke-width="4"/><path d="M376.20962,313.21221c-43.78614,-12.15127 -69.43126,-57.49751 -57.27999,-101.28365c12.15127,-43.78614 57.4975,-69.43125 101.28364,-57.27998c43.78614,12.15127 69.43125,57.4975 57.27998,101.28364c-12.15127,43.78614 -57.49749,69.43126 -101.28363,57.27998z" fill="#ff0000" stroke="none" stroke-width="0"/><path d="M424.79488,311.11964c0,0 -58.62935,14.88121 -95.59266,-33.98924c-22.47477,-29.71465 -4.48286,-79.22096 -4.48286,-79.22096c0,0 -8.52148,46.83291 16.68646,76.51569c32.86747,38.70204 83.38905,36.6945 83.38905,36.6945z" fill="#f0eeee" stroke="none" stroke-width="0"/><path d="M376.5729,311.53734c-43.42226,-12.05029 -68.85427,-57.0197 -56.80399,-100.44196c12.05029,-43.42226 57.0197,-68.85427 100.44196,-56.80399c43.42226,12.05029 68.85427,57.0197 56.80399,100.44196c-12.05029,43.42226 -57.0197,68.85427 -100.44196,56.80399z" fill="none" stroke="#000000" stroke-width="4"/><path d="M402.48427,289.00706c-1.54795,-3.95807 2.41012,-5.50602 2.41012,-5.50602l3.07275,-1.12584c3.71452,-0.08267 8.12567,0.5931 11.80502,-0.25086c3.201,-0.73424 5.04402,-2.54464 8.58053,-3.03761c0.94673,-0.13197 5.01307,-0.13615 6.09419,-0.48067c3.61776,-1.15284 7.08732,-5.32281 9.66094,-7.83017c6.17227,-6.01334 12.03739,-11.76756 14.35545,-20.25099c1.86566,-6.58287 0.11857,-13.17065 -0.44067,-19.87998c-1.1775,-14.12671 -4.48942,-29.75871 -16.13593,-39.24168c-1.56101,-1.27103 -4.81428,-1.55819 -6.65649,-2.06943c0,0 -4.09523,-1.13648 -2.95875,-5.23171c1.13648,-4.09523 5.23171,-2.95875 5.23171,-2.95875c3.18325,0.88339 6.72674,1.42609 9.45703,3.44009c13.94365,10.28558 18.165,29.26545 19.53495,45.37858c0.67242,7.90896 2.27558,15.07751 0.1586,22.83584c-2.81925,10.02926 -9.30666,16.95593 -16.62686,24.07842c-3.59152,3.49453 -7.94197,8.14117 -12.87035,9.78632c-3.27087,1.09185 -6.92208,0.08702 -10.10593,1.27243c-1.8081,0.67318 -3.37422,1.98012 -5.24722,2.44304c-3.97403,0.9822 -8.20032,0.4136 -12.22926,0.34384l-1.58381,0.69527c0,0 -3.95807,1.54795 -5.50602,-2.41012z" fill="#000000" stroke="none" stroke-width="0.5"/><path d="M404.81093,260.2832c-5.0302,-1.39595 -10.0604,-2.7919 -15.09062,-4.18785c0,0 -0.67668,-0.18778 -1.40356,-0.68576c-13.96187,3.35376 -28.07793,5.99349 -41.93178,9.82468l-1.01851,-6.53328l-1.24639,-1.6594c0.3156,-0.08723 0.63133,-0.17384 0.94719,-0.25987l-0.0604,-0.38743c0,0 1.6005,-0.90515 3.29138,-0.47198c15.06265,-3.91492 30.37921,-6.67704 45.43638,-10.63524c4.61565,-0.89966 9.18014,-2.0659 13.70448,-3.3481c2.26011,-0.64051 4.53666,-1.22237 6.81502,-1.79455c0.40014,-0.1005 0.8014,-0.25961 1.20355,-0.40456c-0.86797,-1.07036 -1.63135,-2.2364 -2.22694,-3.47526c-1.74718,-3.63419 -1.80864,-6.37203 -3.84157,-9.65767c-5.01074,-8.09841 -11.89755,-14.59863 -17.41692,-22.22754c-2.71966,-3.75912 -4.57658,-8.15546 -7.66175,-11.62089c-0.85291,-0.95802 -2.10904,-1.48724 -2.99946,-2.4105c-0.61474,-0.63742 -0.77735,-1.6574 -1.46354,-2.21717c-0.62539,-0.51017 -1.51594,-0.55444 -2.27392,-0.83167c0,0 -3.89336,-1.70422 -2.18913,-5.59756c1.70422,-3.89336 5.59756,-2.18913 5.59756,-2.18913c6.22163,2.96561 11.00641,8.78469 14.86247,14.51663c1.14904,1.70803 1.82248,3.71338 3.02577,5.38363c2.19421,3.04571 4.65823,5.92127 7.13098,8.79654c0.07367,0.01614 0.11394,0.02731 0.11394,0.02731c5.16187,1.43249 10.36509,2.88951 15.72124,2.84881l-0.08628,0.44812c0.20402,-0.03609 0.40302,-0.05687 0.59219,-0.06669l0.07309,-0.26338l3.85433,1.06963c2.26173,0.62766 3.58641,2.96998 2.95875,5.23171c-0.62766,2.26173 -2.96998,3.58641 -5.23171,2.95875l-3.42619,-0.95081c-2.0034,0.00516 -3.99717,-0.18919 -5.97895,-0.50958c1.68679,2.5013 3.17585,5.13469 4.33344,7.98721c0.72427,1.78477 1.06576,3.72103 1.9003,5.45699c1.63128,3.39333 5.44252,5.69902 4.50273,10.32579c-0.85673,4.21783 -5.9429,4.7981 -8.9471,5.60089c-3.8885,1.03907 -7.70668,2.10903 -11.55368,3.09249c2.30648,0.64008 4.61295,1.28016 6.91943,1.92024l2.89075,0.80223c2.26173,0.62766 3.58641,2.96998 2.95875,5.23171c-0.62766,2.26173 -2.96998,3.58641 -5.23171,2.95875l-2.89075,-0.80223l-0.24315,0.50468c0,0 -3.01576,0.58921 -4.41969,-1.79868z" fill="#000000" stroke="none" stroke-width="0.5"/></g></g></g></svg>