<svg version="1.1" xmlns="http://www.w3.org/2000/svg" xmlns:xlink="http://www.w3.org/1999/xlink" width="53.62174" height="54.45775" viewBox="0,0,53.62174,54.45775"><g transform="translate(-212.98151,-152.22803)"><g data-paper-data="{&quot;isPaintingLayer&quot;:true}" fill-rule="nonzero" stroke="none" stroke-width="0" stroke-linecap="butt" stroke-linejoin="miter" stroke-miterlimit="10" stroke-dasharray="" stroke-dashoffset="0" style="mix-blend-mode: normal"><path d="M266.60139,171.0644c0.08821,4.16907 -2.98458,8.15503 -3.6989,13.5167c-0.77779,5.83811 0.67114,12.99106 -2.58595,15.66438c-4.56039,3.74306 -21.18452,6.30531 -27.54057,6.43982c-4.84014,0.10242 -11.0398,-16.47649 -15.02742,-18.60395c-8.42363,-4.49417 -3.07315,-4.11591 -3.28951,-14.34048c-0.13731,-6.4888 5.82315,-6.06459 9.50755,-10.82711c4.86944,-6.29434 4.3498,-10.49543 12.92569,-10.67691c9.13938,-0.19341 15.26059,2.80697 20.89335,7.3226c3.6519,2.9276 8.69037,5.57961 8.81575,11.50493z" fill="#ff0000"/><path d="M237.1921,156.15762c3.35108,0.2194 6.3352,2.9622 10.58723,3.90848c4.6299,1.03039 10.46966,0.36574 12.38782,3.16502c2.68571,3.91941 -2.12077,13.83042 -2.45524,18.93936c-0.25471,3.89045 -8.28261,11.31575 -10.26705,14.36701c-4.19203,6.44564 -8.8687,5.37976 -17.08711,4.84169c-5.21563,-0.34147 0.89211,-8.29472 -2.6725,-11.58225c-4.71114,-4.34494 -8.11792,-4.22042 -7.66663,-11.11364c0.48095,-7.34615 3.31425,-12.04845 7.32927,-16.25343c2.60306,-2.72621 5.08148,-6.58408 9.84421,-6.27227z" fill="#ffa900"/><path d="M230.96256,163.8779c2.40485,-0.90784 5.35273,0.05905 8.61556,-0.62738c3.55278,-0.74743 7.4122,-3.05916 9.63509,-1.71547c3.11236,1.88136 2.89987,10.3099 4.28392,13.97626c1.05396,2.79193 -2.19041,10.50787 -2.60757,13.26247c-0.88122,5.819 -4.47782,6.5565 -10.37565,8.78296c-3.74294,1.41297 -2.00386,-6.0631 -5.5287,-7.22589c-4.65859,-1.5368 -6.9934,-0.37165 -8.86084,-5.31848c-1.99014,-5.27186 -1.50403,-9.44581 -0.03693,-13.64722c0.95116,-2.7239 1.45725,-6.19701 4.87516,-7.48727z" fill="#fffe00"/></g></g></svg>