<svg version="1.1" xmlns="http://www.w3.org/2000/svg" xmlns:xlink="http://www.w3.org/1999/xlink" width="83.85409" height="81.24682" viewBox="0,0,83.85409,81.24682"><g transform="translate(-197.34092,-138.40798)"><g data-paper-data="{&quot;isPaintingLayer&quot;:true}" fill="#ffffff" fill-rule="nonzero" stroke="none" stroke-width="0" stroke-linecap="butt" stroke-linejoin="miter" stroke-miterlimit="10" stroke-dasharray="" stroke-dashoffset="0" style="mix-blend-mode: normal"><path d="M233.57781,171.14496c0,0 10.38723,-7.32087 14.31592,-12.89028c3.7616,-5.33257 8.77649,-19.8467 8.77649,-19.8467c0,0 4.69309,15.37243 8.76453,20.99691c4.10326,5.66837 15.76027,12.88254 15.76027,12.88254c0,0 -11.88407,5.55635 -15.95337,10.78793c-3.6905,4.74458 -7.43726,19.28344 -7.43726,19.28344c0,0 -5.51509,-16.09016 -9.60604,-21.36106c-3.98156,-5.12989 -14.62054,-9.85272 -14.62054,-9.85272z"/><path d="M197.34098,197.79492c0,0 7.2745,-5.12701 10.02582,-9.02745c2.63433,-3.73458 6.14643,-13.8992 6.14643,-13.8992c0,0 3.28669,10.76571 6.13803,14.7047c2.87362,3.96973 11.03736,9.02203 11.03736,9.02203c0,0 -8.32278,3.89129 -11.1726,7.55507c-2.58459,3.32273 -5.20854,13.50473 -5.20854,13.50473c0,0 -3.86236,-11.26842 -6.7274,-14.95979c-2.78841,-3.59263 -10.23915,-6.90015 -10.23915,-6.90015z"/></g></g></svg>