<svg version="1.1" xmlns="http://www.w3.org/2000/svg" xmlns:xlink="http://www.w3.org/1999/xlink" width="686.86524" height="478.89227" viewBox="0,0,686.86524,478.89227"><g transform="translate(28.98086,23.99587)"><g data-paper-data="{&quot;isPaintingLayer&quot;:true}" fill-rule="nonzero" stroke-linecap="butt" stroke-linejoin="miter" stroke-miterlimit="10" stroke-dasharray="" stroke-dashoffset="0" style="mix-blend-mode: normal"><path d="M-28.98086,220.74887v-244.74474h546.54655v244.74474z" fill="#b2fff9" stroke="none" stroke-width="0"/><path d="M110.65878,69.84797c0,-26.95083 21.84797,-48.7988 48.7988,-48.7988c26.95083,0 48.7988,21.84797 48.7988,48.7988c0,26.95083 -21.84797,48.7988 -48.7988,48.7988c-26.95083,0 -48.7988,-21.84797 -48.7988,-48.7988z" fill="#fbff6f" stroke="#fff700" stroke-width="16"/><path d="M-0.24024,386.45646l-13.51351,-219.21922c0,0 87.41373,-106.60661 141.90691,-106.60661c23.91502,0 93.61103,88.58859 135.13514,88.58859c52.47134,0 106.81378,-63.84676 152.08934,-82.10057c61.93606,-24.97084 106.90465,-6.48802 106.90465,-6.48802v325.82583z" fill="#59de92" stroke="none" stroke-width="0"/><path d="M228.7988,384.83183c0,0 -13.89911,-51.18367 -10.74914,-90.002c1.6323,-20.11545 19.05581,-49.78723 26.11927,-81.62341c7.16694,-32.30258 3.9632,-66.62684 3.9632,-66.62684l10.70571,2.33333c0,0 15.77082,25.99808 34.20654,64.65093c7.4689,15.65951 12.72126,62.50711 22.46126,93.13455c15.29808,48.10482 56.3322,79.13344 56.3322,79.13344z" fill="#66fff2" stroke="none" stroke-width="0"/><g data-paper-data="{&quot;index&quot;:null}" stroke="none"><path d="M397.1066,268.22523v-189h246v189z" fill="#ffbb66" stroke-width="NaN"/><path d="M562.05105,176.22523c-16.84469,0 -30.5,-13.65531 -30.5,-30.5c0,-16.84469 13.65531,-30.5 30.5,-30.5c16.84469,0 30.5,13.65531 30.5,30.5c0,16.84469 -13.65531,30.5 -30.5,30.5z" fill="#e6a85c" stroke-width="0"/><path d="M615.13438,161.72523c-8.42234,0 -15.25,-6.82765 -15.25,-15.25c0,-8.42235 6.82766,-15.25 15.25,-15.25c8.42234,0 15.25,6.82765 15.25,15.25c0,8.42235 -6.82766,15.25 -15.25,15.25z" fill="#e6a85c" stroke-width="0"/><path d="M396.88438,145.72523v-40h244v40z" fill="#e6a85c" stroke-width="0"/><path d="M477.63438,169.05856c-13.11676,0 -23.75,-10.63324 -23.75,-23.75c0,-13.11676 10.63324,-23.75 23.75,-23.75c13.11677,0 23.75,10.63324 23.75,23.75c0,13.11676 -10.63324,23.75 -23.75,23.75z" fill="#e6a85c" stroke-width="0"/><path d="M396.88438,168.89189v-61.33333h47.66667c0,0 -0.91801,34.97842 -12.33333,49.66667c-11.41532,14.68824 -35.33334,11.66666 -35.33334,11.66666z" fill="#e6a85c" stroke-width="0"/><path d="M407.38438,107.72523v-59h250.5v59z" fill="#00ff6f" stroke-width="0"/><path d="M410.38438,141.22523c-18.50154,0 -33.5,-14.99846 -33.5,-33.5c0,-18.50154 14.99846,-33.5 33.5,-33.5c18.50154,0 33.5,14.99846 33.5,33.5c0,18.50154 -14.99846,33.5 -33.5,33.5z" fill="#00ff6f" stroke-width="0"/><path d="M410.63438,115.72523c-18.50154,0 -33.5,-14.99846 -33.5,-33.5c0,-18.50154 14.99846,-33.5 33.5,-33.5c18.50154,0 33.5,14.99846 33.5,33.5c0,18.50154 -14.99846,33.5 -33.5,33.5z" fill="#00ff6f" stroke-width="0"/><path d="M377.13438,113.80856v-35.25h20.5v35.25z" fill="#00ff6f" stroke-width="0"/><path d="M476.63438,131.72523c-13.11676,0 -23.75,-10.63324 -23.75,-23.75c0,-13.11676 10.63324,-23.75 23.75,-23.75c13.11677,0 23.75,10.63324 23.75,23.75c0,13.11676 -10.63324,23.75 -23.75,23.75z" fill="#00ff6f" stroke-width="0"/><path d="M560.38438,138.22523c-16.84469,0 -30.5,-13.65531 -30.5,-30.5c0,-16.84469 13.65531,-30.5 30.5,-30.5c16.84469,0 30.5,13.65531 30.5,30.5c0,16.84469 -13.65531,30.5 -30.5,30.5z" fill="#00ff6f" stroke-width="0"/><path d="M614.63438,122.72523c-8.42234,0 -15.25,-6.82765 -15.25,-15.25c0,-8.42235 6.82766,-15.25 15.25,-15.25c8.42234,0 15.25,6.82765 15.25,15.25c0,8.42235 -6.82766,15.25 -15.25,15.25z" fill="#00ff6f" stroke-width="0"/><path d="M396.21772,211.94745v-40h244v40z" fill="#ff9b21" stroke-width="0"/><path d="M396.88438,288.72523v-40h244v40z" fill="#ff9b21" stroke-width="0"/><path d="M562.77327,176.2993c-9.09923,0.22222 -16.44445,-4.44445 -16.44445,-4.44445h32.11111c0,0 -8.73612,4.27518 -15.66666,4.44445z" fill="#ea8f1e" stroke-width="0"/></g><g stroke="none"><path d="M-2.72222,366.33334v-189h246v189z" fill="#ffbb66" stroke-width="NaN"/><path d="M47.83334,243.83334c0,-16.84469 13.65531,-30.5 30.5,-30.5c16.84469,0 30.5,13.65531 30.5,30.5c0,16.84469 -13.65531,30.5 -30.5,30.5c-16.84469,0 -30.5,-13.65531 -30.5,-30.5z" fill="#e6a85c" stroke-width="0"/><path d="M10,244.58333c0,-8.42235 6.82766,-15.25 15.25,-15.25c8.42235,0 15.25,6.82765 15.25,15.25c0,8.42235 -6.82765,15.25 -15.25,15.25c-8.42234,0 -15.25,-6.82766 -15.25,-15.25z" fill="#e6a85c" stroke-width="0"/><path d="M-0.5,243.83334v-40h244v40z" fill="#e6a85c" stroke-width="0"/><path d="M139,243.41667c0,-13.11676 10.63324,-23.75 23.75,-23.75c13.11676,0 23.75,10.63324 23.75,23.75c0,13.11676 -10.63324,23.75 -23.75,23.75c-13.11676,0 -23.75,-10.63324 -23.75,-23.75z" fill="#e6a85c" stroke-width="0"/><path d="M208.16667,255.33334c-11.41532,-14.68824 -12.33333,-49.66666 -12.33333,-49.66666h47.66666v61.33333c0,0 -23.91801,3.02158 -35.33334,-11.66666z" fill="#e6a85c" stroke-width="0"/><path d="M-17.5,205.83334v-59h250.5v59z" fill="#00ff6f" stroke-width="0"/><path d="M196.5,205.83334c0,-18.50154 14.99846,-33.5 33.5,-33.5c18.50154,0 33.5,14.99846 33.5,33.5c0,18.50154 -14.99846,33.5 -33.5,33.5c-18.50154,0 -33.5,-14.99846 -33.5,-33.5z" fill="#00ff6f" stroke-width="0"/><path d="M196.25,180.33334c0,-18.50154 14.99846,-33.5 33.5,-33.5c18.50154,0 33.5,14.99846 33.5,33.5c0,18.50154 -14.99846,33.5 -33.5,33.5c-18.50154,0 -33.5,-14.99846 -33.5,-33.5z" fill="#00ff6f" stroke-width="0"/><path d="M242.75,211.91667v-35.25h20.5v35.25z" fill="#00ff6f" stroke-width="0"/><path d="M140,206.08334c0,-13.11676 10.63324,-23.75 23.75,-23.75c13.11676,0 23.75,10.63324 23.75,23.75c0,13.11676 -10.63324,23.75 -23.75,23.75c-13.11676,0 -23.75,-10.63324 -23.75,-23.75z" fill="#00ff6f" stroke-width="0"/><path d="M49.5,205.83334c0,-16.84469 13.65531,-30.5 30.5,-30.5c16.84469,0 30.5,13.65531 30.5,30.5c0,16.84469 -13.65531,30.5 -30.5,30.5c-16.84469,0 -30.5,-13.65531 -30.5,-30.5z" fill="#00ff6f" stroke-width="0"/><path d="M10.5,205.58334c0,-8.42235 6.82766,-15.25 15.25,-15.25c8.42235,0 15.25,6.82765 15.25,15.25c0,8.42235 -6.82765,15.25 -15.25,15.25c-8.42234,0 -15.25,-6.82765 -15.25,-15.25z" fill="#00ff6f" stroke-width="0"/><path d="M0.16667,310.05556v-40h244v40z" fill="#ff9b21" stroke-width="0"/><path d="M-0.5,386.83334v-40h244v40z" fill="#ff9b21" stroke-width="0"/><path d="M61.94445,269.96296h32.11111c0,0 -7.34521,4.66667 -16.44445,4.44445c-6.93054,-0.16926 -15.66666,-4.44445 -15.66666,-4.44445z" fill="#ea8f1e" stroke-width="0"/></g><g data-paper-data="{&quot;index&quot;:null}" stroke="none"><path d="M365.07958,434.3964v-189h246v189z" fill="#ffbb66" stroke-width="NaN"/><path d="M530.02402,342.3964c-16.84469,0 -30.5,-13.65531 -30.5,-30.5c0,-16.84469 13.65531,-30.5 30.5,-30.5c16.84469,0 30.5,13.65531 30.5,30.5c0,16.84469 -13.65531,30.5 -30.5,30.5z" fill="#e6a85c" stroke-width="0"/><path d="M583.10736,327.8964c-8.42234,0 -15.25,-6.82765 -15.25,-15.25c0,-8.42235 6.82766,-15.25 15.25,-15.25c8.42235,0 15.25,6.82765 15.25,15.25c0,8.42234 -6.82765,15.25 -15.25,15.25z" fill="#e6a85c" stroke-width="0"/><path d="M364.85736,311.8964v-40h244v40z" fill="#e6a85c" stroke-width="0"/><path d="M445.60736,335.22973c-13.11676,0 -23.75,-10.63324 -23.75,-23.75c0,-13.11676 10.63324,-23.75 23.75,-23.75c13.11676,0 23.75,10.63324 23.75,23.75c0,13.11676 -10.63324,23.75 -23.75,23.75z" fill="#e6a85c" stroke-width="0"/><path d="M364.85736,335.06306v-61.33333h47.66666c0,0 -0.91801,34.97842 -12.33333,49.66667c-11.41532,14.68824 -35.33334,11.66666 -35.33334,11.66666z" fill="#e6a85c" stroke-width="0"/><path d="M375.35736,273.8964v-59h250.5v59z" fill="#00ff6f" stroke-width="0"/><path d="M378.35736,307.3964c-18.50154,0 -33.5,-14.99846 -33.5,-33.5c0,-18.50154 14.99846,-33.5 33.5,-33.5c18.50154,0 33.5,14.99846 33.5,33.5c0,18.50154 -14.99846,33.5 -33.5,33.5z" fill="#00ff6f" stroke-width="0"/><path d="M378.60736,281.8964c-18.50154,0 -33.5,-14.99846 -33.5,-33.5c0,-18.50154 14.99846,-33.5 33.5,-33.5c18.50154,0 33.5,14.99846 33.5,33.5c0,18.50154 -14.99846,33.5 -33.5,33.5z" fill="#00ff6f" stroke-width="0"/><path d="M345.10736,279.97973v-35.25h20.5v35.25z" fill="#00ff6f" stroke-width="0"/><path d="M444.60736,297.8964c-13.11676,0 -23.75,-10.63324 -23.75,-23.75c0,-13.11676 10.63324,-23.75 23.75,-23.75c13.11676,0 23.75,10.63324 23.75,23.75c0,13.11676 -10.63324,23.75 -23.75,23.75z" fill="#00ff6f" stroke-width="0"/><path d="M528.35736,304.3964c-16.84469,0 -30.5,-13.65531 -30.5,-30.5c0,-16.84469 13.65531,-30.5 30.5,-30.5c16.84469,0 30.5,13.65531 30.5,30.5c0,16.84469 -13.65531,30.5 -30.5,30.5z" fill="#00ff6f" stroke-width="0"/><path d="M582.60736,288.8964c-8.42234,0 -15.25,-6.82765 -15.25,-15.25c0,-8.42234 6.82766,-15.25 15.25,-15.25c8.42235,0 15.25,6.82766 15.25,15.25c0,8.42235 -6.82765,15.25 -15.25,15.25z" fill="#00ff6f" stroke-width="0"/><path d="M364.19069,378.11862v-40h244v40z" fill="#ff9b21" stroke-width="0"/><path d="M364.85736,454.8964v-40h244v40z" fill="#ff9b21" stroke-width="0"/><path d="M530.74625,342.47047c-9.09923,0.22222 -16.44445,-4.44445 -16.44445,-4.44445h32.11111c0,0 -8.73612,4.27519 -15.66667,4.44445z" fill="#ea8f1e" stroke-width="0"/></g></g></g></svg>