<svg version="1.1" xmlns="http://www.w3.org/2000/svg" xmlns:xlink="http://www.w3.org/1999/xlink" width="329.73119" height="196.57205" viewBox="0,0,329.73119,196.57205"><g transform="translate(-91.63441,-82.93457)"><g data-paper-data="{&quot;isPaintingLayer&quot;:true}" fill-rule="nonzero" stroke-linejoin="miter" stroke-miterlimit="10" stroke-dasharray="" stroke-dashoffset="0" style="mix-blend-mode: normal"><g><path d="M324.42767,170.73422c0,0 -2.37636,7.29088 -4.30878,9.22678c-0.94606,0.94777 -8.56561,4.16621 -8.42927,1.46173c0.43871,-8.70285 12.70505,-11.0202 12.70505,-11.0202" fill="none" stroke="#000000" stroke-width="7.5" stroke-linecap="round"/><path d="M330.8355,157.70239c0,0 4.99529,-6.09802 6.60221,-2.49284c1.88805,4.23591 0.21047,18.95233 -3.30526,29.608c-4.19838,12.72468 -12.34545,22.47712 -18.74515,26.0387c-4.14647,2.3076 -10.88492,4.88991 -16.01624,4.0167c-5.15456,-0.87716 -8.6856,-5.22314 -5.5392,-8.80404c2.88448,-3.2828 9.47307,-0.26505 14.60542,-3.68221c5.0186,-3.34142 10.10587,-11.32286 12.44121,-14.83385c0.23485,-0.35308 -6.91137,3.87931 -12.78083,4.21677c-3.79356,0.21811 -6.99515,-2.56199 -7.52295,-4.64857c-3.75488,-14.84442 7.39705,-28.52721 16.11056,-32.1638c3.53823,-1.47668 9.12613,-2.74295 11.46526,-1.90086c3.05943,1.1014 2.35327,4.679 2.35327,4.679" fill="none" stroke="#000000" stroke-width="7.5" stroke-linecap="round"/><path d="M232.84675,179.51177c0,0 -0.50756,7.529 -2.08245,9.56805c-0.86295,1.11729 -8.16525,7.66345 -9.27701,4.08528c-2.17475,-6.99941 11.32645,-13.98503 11.32645,-13.98503" fill="none" stroke="#000000" stroke-width="7.5" stroke-linecap="round"/><path d="M296.04379,154.79964c0,0 -16.37866,1.30814 -24.48527,8.89092c-1.21952,1.14071 -1.09996,-2.79839 -2.86592,-4.09361c-1.65748,-1.21567 -5.18936,0.15829 -6.71391,2.51312c-2.54519,3.9313 -4.40923,4.62665 -9.62067,17.06924c-2.91926,6.96988 -8.23143,18.64113 -4.42119,19.32138c3.64331,0.65044 4.68153,4.7714 10.4833,-0.38724c5.73669,-5.10077 12.76632,-17.37384 19.00255,-24.75714c2.68049,-3.17353 6.19394,-2.84568 4.24065,3.10858c-2.17085,6.61747 -9.7051,19.10098 -3.22297,18.50313c4.00135,-0.36905 12.85371,-7.46043 15.84997,-15.94304c2.14148,-6.06267 5.28506,-13.6906 5.04872,-18.48787c-0.19578,-3.9742 -3.62696,-5.70446 -3.62696,-5.70446" fill="none" stroke="#000000" stroke-width="7.5" stroke-linecap="round"/><path d="M235.54322,159.47968c0,0 19.43423,-3.36681 10.62253,22.767c-1.84984,5.48628 -6.26793,14.95916 -13.50804,18.76371c-9.43719,4.95907 -22.00104,2.93147 -22.91215,-3.14733c-0.46598,-3.10893 -0.90348,-17.26654 5.16654,-25.41144c7.11991,-9.55367 20.96282,-13.00495 20.96282,-13.00495" fill="none" stroke="#000000" stroke-width="7.5" stroke-linecap="round"/><path d="M216.8115,142.91967c0,0 -19.13942,-6.65695 -31.09514,6.86625c-4.16428,4.71025 -8.92041,6.45192 -9.95765,20.47437c-0.53584,7.24399 13.33751,12.69126 11.98093,17.04304c-1.88476,6.04615 -10.51478,5.08946 -16.24384,5.52655c-0.76746,0.05855 -4.59886,-0.00882 -6.58286,2.31735c-3.7525,4.39968 -3.97132,12.48777 14.04222,11.93762c2.83295,-0.08652 14.49463,-2.17551 21.34731,-14.17574c2.05333,-3.59573 6.11971,-9.20387 3.87906,-14.41346c-2.43237,-5.65533 -11.23182,-10.947 -9.82517,-15.49889c1.87903,-6.08052 11.10478,-4.83092 16.08117,-8.09512c5.36977,-3.52224 6.43999,-11.3186 6.43999,-11.3186" fill="none" stroke="#000000" stroke-width="7.5" stroke-linecap="round"/><text transform="translate(164.43386,203.96483) rotate(-5.68237) scale(1.8975,1.8975)" font-size="40" xml:space="preserve" fill="#fcff3a" fill-rule="nonzero" stroke="none" stroke-width="1" stroke-linecap="butt" stroke-linejoin="miter" stroke-miterlimit="10" stroke-dasharray="" stroke-dashoffset="0" font-family="Marker" font-weight="normal" text-anchor="start" style="mix-blend-mode: normal"><tspan x="0" dy="0">Song</tspan></text><path d="M150.62398,264.06543l-15.90758,-159.87119l213.65962,-21.25966l15.90758,159.87119z" fill="none" stroke="none" stroke-width="0" stroke-linecap="butt"/></g><g stroke="none" stroke-linecap="butt"><path d="M370.08784,260.9021c-0.72675,1.7775 -2.22665,2.29892 -3.74613,2.07931c-0.79057,0.53078 -1.71919,0.88634 -2.64287,1.03002l-3.34154,-0.30378c-1.62095,0.87994 -5.40694,-3.09479 -5.64161,-4.20096c-1.07461,-5.06541 2.54581,-8.49851 6.95822,-9.17391c-1.48473,-2.29041 -1.39215,-5.77034 0.35285,-8.58918c0.78864,-1.27396 2.13184,-2.19906 2.97406,-3.43481c0.24399,-0.35799 0.57727,-1.0554 0.96778,-1.83502c-0.00064,-0.78634 0.63044,-1.73975 1.241,-2.51618c0.47655,-0.87309 1.13077,-1.75989 1.82663,-2.59967c1.57317,-2.87545 3.62061,-7.6735 5.76737,-8.44525c2.89166,-4.07369 8.19888,-10.48879 13.63226,-9.99485c1.88304,0.17119 4.44698,0.80708 5.25917,2.58512c0.29062,0.63622 0.28101,3.34377 -0.14655,5.2402c-0.42757,0.54293 -0.80073,1.13244 -1.11045,1.76096c-0.03187,0.07834 -0.06569,0.15446 -0.10288,0.22678l-0.40969,0.18714c-0.0349,0.16597 -0.07164,0.33141 -0.11001,0.49575c-0.71412,0.72777 -1.80242,1.39143 -2.26865,2.02943c-0.68011,0.93067 -1.15055,1.87826 -1.44154,2.82963c-0.02096,0.01812 -0.04136,0.03677 -0.06114,0.05601c-1.05974,1.03071 -6.34348,10.35847 -6.80333,11.86066c-0.04794,0.15659 -0.10763,0.34537 -0.17372,0.55745c-1.68557,2.21523 -2.78739,5.28008 -4.71654,6.88634c-1.0669,0.88833 -2.13558,1.77651 -2.98298,2.86339c-0.13149,-0.02281 -0.26734,-0.05343 -0.4078,-0.09237c-1.05726,0.82754 -2.23274,1.48987 -3.57849,1.9085c1.02184,0.94799 1.55205,2.12375 1.51262,3.34385c0.06201,0.33184 0.0799,0.67765 0.04782,1.03044c-0.02164,0.23801 -0.06507,0.4688 -0.12814,0.69057c0.02118,1.22312 -0.30239,2.48903 -0.72572,3.52443z" fill="#000000" stroke-width="0.5"/><path d="M229.92795,201.08362c0.03167,0.07058 0.06156,0.15577 0.09028,0.25291c0.97455,1.05533 1.49727,2.37977 1.67917,3.87207c-0.02234,0.05567 -0.04499,0.11653 -0.06686,0.18188c1.04169,0.04293 3.38368,-0.94119 4.14433,-1.03909c4.81328,-0.61953 9.42708,-4.81825 14.46761,-4.50868c0.60121,0.03692 1.35058,0.04695 2.14528,0.09458c1.0038,-0.06008 2.02148,-0.03166 3.05172,0.03824c4.89336,2.03083 9.02963,5.98458 8.94167,11.67908c-0.01991,1.28894 -0.20287,2.9362 -0.55327,4.69071c0.9654,-0.88162 1.86202,-1.62779 2.38883,-2.13423c1.64173,-1.57825 1.85492,-4.05221 2.66689,-6.03815c1.28823,-3.15077 8.78408,-3.58073 11.42278,-3.25419c3.21352,0.39767 5.71673,1.60783 5.96418,5.12621c0.02801,0.39835 0.08072,1.05698 0.03242,1.68266c0.81838,2.49902 -1.61414,4.97797 -2.75385,6.92982c-1.29211,2.21286 -2.8743,3.24935 -4.28119,5.21649c-1.29067,1.80463 -2.15434,5.29903 -3.76514,6.76186c-1.54894,1.40666 -4.30495,3.76557 -4.98064,5.69654c-0.18274,0.52223 -1.19103,2.09981 -1.04727,2.54525c0.07295,0.22602 0.47756,0.01373 0.70957,0.06451c1.25054,0.27369 2.46143,1.01546 3.40325,1.9963c1.54472,-2.33712 3.4475,-4.50411 3.9233,-5.41058c0.35361,-0.67368 2.43116,-5.10236 3.07671,-5.4285c0.79692,-2.19461 2.78734,-5.14567 3.3876,-6.1578c4.24986,-7.16597 9.23283,-16.64868 18.34621,-17.83283c3.58907,-0.46635 7.06942,0.42028 10.42283,1.67726c0.0835,0.0313 0.18763,0.06838 0.3074,0.11076c1.26071,-0.21776 3.23419,0.61704 3.90814,1.15338c1.05684,0.84105 1.64263,2.21684 1.79231,3.69995c4.47399,-2.28684 11.23146,-3.1291 14.91195,-2.97134c4.48755,-1.35197 9.28395,-1.3229 13.239,1.73012c1.41985,1.09602 1.16806,4.04048 0.80362,5.56474c4.50395,-4.69239 9.53009,-6.04375 17.19737,-5.48034c0.78624,-0.25611 1.71419,-0.12717 2.66622,0.26302c0.99312,0.19097 2.53101,1.2673 3.7385,2.57663c0.43005,0.34971 0.77913,0.79167 1.01949,1.29258c0.24182,0.3695 0.44081,0.74087 0.58059,1.1019c0.34814,0.65307 0.58482,1.30246 0.6707,1.90679c0.14378,1.01176 0.36745,3.42359 -0.66458,3.895c-0.03411,0.04739 -0.06927,0.09391 -0.10547,0.13956c-0.26989,0.63518 -0.68364,1.26938 -1.26435,1.89316c-1.66259,1.7859 -4.30303,3.0295 -6.79345,3.36485c-0.6566,0.08841 -1.84557,0.37066 -2.48178,0.56729c-0.49642,0.15343 -1.85304,0.31087 -1.43212,0.6155c6.37501,4.61375 -3.59035,14.95975 -10.55007,14.32705c-0.13245,-0.01204 -0.26204,-0.02782 -0.3887,-0.04718c-0.96796,0.35528 -2.12933,0.93865 -1.81386,1.84375c0.01705,0.04894 4.77992,1.23631 5.20704,1.4341c3.43567,1.59101 2.34113,6.987 0.21147,9.21838c-2.92882,3.0687 -7.76207,4.21613 -12.48101,3.84403c-5.32722,1.35764 -13.31341,-1.94292 -14.17399,-7.47524c-1.26879,-8.15649 5.89808,-11.80002 9.22075,-18.13027c1.52054,-2.89687 2.52945,-6.4628 4.91232,-8.76678c0.14521,-0.1404 0.28045,-0.29624 0.4077,-0.46461c-1.22876,0.7134 -2.5698,1.3699 -3.97837,2.0912c-0.46133,0.23624 -1.3447,0.45271 -2.31356,0.5625c-1.04582,1.38382 -2.29945,2.6687 -2.80431,3.52207c-1.3296,2.24747 -1.90807,5.1658 -3.36304,7.51614c-1.94727,3.14559 -4.25194,6.14731 -6.29748,9.27883c-0.3479,0.5326 -1.85831,2.62269 -3.53757,4.16837c-1.78964,3.94876 -11.07332,5.67192 -13.88719,3.75832c-6.9225,-4.70773 4.4132,-17.43637 7.03248,-22.42654c0.20635,-0.39313 1.22968,-2.09907 2.30484,-3.76641c-0.08329,-0.88432 0.09354,-1.81875 0.39002,-2.68329c-0.42184,-0.48834 -0.91516,-0.99773 -1.05101,-1.34492c-0.44105,-1.12711 -0.66588,-2.76339 -0.72784,-4.3806c-2.61141,1.20547 -6.50294,0.477 -8.21266,2.91148c-1.99257,2.83724 4.99056,6.59815 0.68922,10.78164c-1.8983,1.84629 -5.61124,3.31849 -8.2387,3.7272c-0.68055,0.10587 -3.21534,0.2035 -3.66088,0.6938c-0.17551,0.19314 -0.36252,1.20409 -0.25872,1.25523c2.58982,1.276 5.74041,0.20359 7.04085,3.52693c1.6882,4.31429 -2.43862,9.77471 -6.41219,10.82015c-6.08885,1.60197 -15.99553,3.01091 -20.69174,-1.81759c-0.36159,-0.37177 -0.78469,-1.17722 -1.16274,-2.1877c-1.72125,1.46088 -3.92161,2.35698 -5.97829,2.17001c-2.3881,-0.2171 -4.7788,-0.45876 -7.14062,-0.87343c-3.02942,-0.53188 -6.0455,-1.13644 -8.82127,-2.31212c-5.6763,-2.40421 -5.22691,-7.45793 -3.23479,-12.1093c-0.45277,0.09935 -0.91596,0.15615 -1.3862,0.18015c-2.91556,1.23352 -6.20572,1.82521 -8.5481,1.59843c-0.21086,-0.02041 -0.43422,-0.02781 -0.66594,-0.02702c-1.41602,1.85862 -2.73312,3.94302 -4.37165,5.69587c-1.51873,1.62469 -3.65773,2.50405 -5.9472,2.93434c-2.84608,2.58733 -6.45377,3.57493 -10.82897,0.86075c-1.91011,-1.18494 -3.94821,-1.1539 -5.36906,-3.15272c-0.0362,-0.05093 -0.07253,-0.10451 -0.10889,-0.1606c-0.08978,0.03911 -0.17936,0.07618 -0.26871,0.11114c-2.07023,0.81009 -9.46984,0.22091 -10.13208,-2.93562c-0.37175,-1.77189 -0.38416,-2.09247 -0.116,-3.90152c0.00422,-0.02844 0.44367,-1.40302 0.33046,-1.42594c-1.47659,-0.29888 -3.5952,-1.13152 -4.91995,-1.34411c-0.60612,-0.09727 -3.33116,4.30312 -3.73364,4.90232c-1.05863,1.57606 -2.86976,2.46456 -4.78201,2.65319c-2.13268,1.06832 -5.55492,-0.1553 -7.00773,-1.64904c-3.6447,-3.74737 -0.15044,-9.45184 2.11427,-13.4576c0.04373,-0.1508 0.08904,-0.30073 0.1359,-0.44984l-0.42869,0.41694l-0.14799,-0.0052l-0.0848,0.12139l-0.25828,0.04018l-0.00209,0.00149l-0.31233,0.50453l-0.43213,0.42029l-0.35567,0.4867l-0.03803,0.0317l0.0195,0.10993l-0.28429,0.38903l-0.15871,0.45495l-0.26083,0.11915l-0.4365,0.59731l-0.00421,0.00351l-0.13145,0.41131l-0.05499,0.08884l-0.03548,0.1017l-0.03831,0.0175l-0.57739,0.93271l-0.33046,0.3214l-0.14033,0.4391l-0.05499,0.08884l-0.03548,0.1017l-0.03831,0.0175l-0.81279,1.31296l-0.16987,0.16521l-0.09958,0.21502l-0.45268,0.56132l-0.29799,0.2252l-0.22037,0.30156l-0.43457,0.36214l-0.54287,0.26207l-0.49133,0.34926l-2.01805,0.78967c-0.66104,0.54128 -1.4345,1.08353 -2.36144,1.63146c-1.63097,0.9641 -3.50083,2.08022 -5.47078,2.82417c-0.48999,0.8644 -1.8258,1.42049 -4.46894,1.30445c-4.31751,-0.18955 -9.62235,-1.63102 -12.3326,-5.21501c-0.86641,-1.14573 -1.48159,-2.60192 -1.5334,-3.94905c-0.89495,-2.33839 -1.45634,-4.96265 -1.41485,-5.65363c0.1407,-2.34318 2.12649,-8.41684 4.01526,-12.82928c-1.53304,-0.1141 -3.33919,-0.34254 -4.42576,-0.81791c-1.11762,-0.48896 -1.67661,-2.03669 -2.57632,-2.45568c-0.67507,-0.31437 -3.49549,1.10016 -4.11098,1.27266c-2.54839,0.71422 -2.34556,5.41685 -2.77373,8.21719l1.14571,0.10416l0.61216,0.21354l0.63927,0.10805l0.02357,0.01031l2.29943,0.20904l0.03981,-0.02161l0.11035,0.03527l0.11192,0.01017l0.87501,0.30524l0.88274,0.28211l0.09556,0.05915l0.10937,0.03815l0.01882,0.04121l0.13993,0.08662l0.06181,0.00135l0.70531,0.76885l0.72745,0.74794l-0.00217,0.06179l0.34461,0.6348l0.06364,0.24679l0.14766,0.20773l0.25465,0.65077l0.03714,0.02594l0.01781,0.11446l0.04095,0.10466l0.1183,0.91914l0.14245,0.91571l-0.01017,0.11192l0.01479,0.11489l-0.02844,0.03527l-0.09302,1.02325l-0.26207,0.75128l0.05387,0.30366l-0.30576,0.41842l-0.17069,0.48932l-0.28053,0.12814l-0.46947,0.64242l-0.46739,0.38949l-0.58386,0.28186l-0.35408,0.25169c-0.61143,0.94314 -1.47127,1.76926 -2.06031,2.37446c-3.68133,3.78233 -9.95566,2.96117 -15.25374,1.1547l-3.6935,-0.33577l-0.03982,0.02161l-0.11035,-0.03527l-0.11192,-0.01017l-0.87501,-0.30523l-0.52437,-0.16758l-0.06454,0.01145l-0.078,-0.05701l-0.21583,-0.06897l-0.09555,-0.05915l-0.10938,-0.03815l-0.01882,-0.04121l-0.18522,-0.11465l-0.45203,-0.46477l-0.52347,-0.38253l-0.38949,-0.46739l-0.34592,-0.71655l-0.25282,-0.17663l-0.03319,-0.21341l-0.21187,-0.21783l0.0056,-0.15916l-0.13055,-0.09121l-0.3195,-2.05397l0.75951,-8.35462l0.21354,-0.61217l0.10496,-0.62097l-0.0134,-0.02467l0.03526,-0.11034l0.01017,-0.11192l0.30523,-0.87501l0.28211,-0.88274l0.05064,-0.08179l0.24148,-0.75562l0.05915,-0.09556l0.03815,-0.10937l0.04121,-0.01882l0.04722,-0.07629l0.00523,-0.01497l0.10805,-0.63927l0.27265,-0.62319l0.10892,-0.14111l0.09462,-0.27125l0.10805,-0.63927l0.27264,-0.62319l0.17739,-0.22979l0.08837,-0.27651l0.1023,-0.16526l0.15776,-0.36059l0.14431,-0.18695l-0.00453,-0.02553l0.057,-0.078l0.06897,-0.21583l0.25317,-0.40897l0.35542,-0.34567l0.15093,-0.47226l0.05915,-0.09556l0.03815,-0.10937l0.04121,-0.01882l0.04722,-0.07629l0.09692,-0.27782l0.16758,-0.52437l-0.01145,-0.06453l0.057,-0.078l0.06898,-0.21583l0.05915,-0.09555l0.03815,-0.10937l0.0412,-0.01883l0.11466,-0.18521l0.14884,-0.14477l0.28411,-0.38878l0.17069,-0.48932l0.28053,-0.12814l0.0514,-0.07034l0.31769,-0.72614l0.00812,-0.01052l0.3939,-1.12917l0.14486,-0.06617l0.0232,-0.15756l0.57715,-0.41027l0.11863,-0.27115l0.23429,-0.30351l0.00478,-0.21932l0.56369,-0.5171l0.21346,-0.27653l0.06741,-0.19324l0.12629,-0.05769l0.0214,-0.02773l0.02036,-0.13831l0.60615,-0.43088l0.08275,-0.13367l0.46477,-0.45203l0.38253,-0.52347l0.46739,-0.38949l0.56476,-0.27265l0.11553,-0.09627l0.02154,-0.06175l0.59845,-0.9122l0.04577,-0.31093l0.29648,-0.21075l0.19953,-0.30414l0.30901,-0.05735l0.14489,-0.10299l0.33311,-0.45584l0.58424,-0.48687l0.37002,-0.50634l0.62016,-0.5168l0.01137,-0.22182l0.53475,-0.46235l0.43196,-0.55959l0.2457,-0.02632l0.36001,-0.31127l1.40119,-0.70813l0.46506,-0.38755l0.37002,-0.50634l0.46739,-0.38949l0.33725,-0.16281l0.04003,-0.04963l0.30589,-0.23117l0.06232,-0.21034l0.67988,-0.35057l0.61027,-0.4612l0.21659,0.03485l0.34078,-0.17571l0.38313,-0.09015l0.62891,-0.2461l0.28792,-0.03706l0.25801,-0.13304l0.38313,-0.09015l0.18099,-0.07082l0.28792,-0.03705l0.25801,-0.13304l0.38313,-0.09015l0.03675,-0.01438l0.99004,-0.47795l0.43489,-0.09032l0.39478,-0.20356l0.66213,-0.1558l0.56087,0.00779l1.19185,-0.28044l0.64828,0.009l0.48686,-0.07574l0.25927,-0.1094l1.31524,-0.20459l0.03562,-0.01394l0.31287,-0.04027l0.08898,-0.01385l0.01088,0.00099l0.03009,-0.00387l0.39452,-0.14478l0.81815,-0.39497l0.12804,0.04774l0.15234,-0.0559l1.09058,-0.11685l0.39788,0.05535l0.39693,-0.06174l3.37968,0.30724l0.03982,-0.02161l0.11034,0.03526l0.11192,0.01017l0.87501,0.30523l0.88274,0.28211l0.09555,0.05915l0.10938,0.03815l0.01882,0.0412l0.18521,0.11466l0.17769,0.1827l0.23127,0.1071l0.60371,0.48686l0.2422,0.32049l0.32434,0.23702l0.38949,0.46739l0.34592,0.71655l0.25282,0.17663l0.0332,0.21341l0.21186,0.21784l-0.0056,0.15916l0.13055,0.09121l0.15413,0.99082l0.12033,0.30751l0.03714,0.02594l0.01781,0.11446l0.04095,0.10466l0.11831,0.91914l0.13662,0.87829l0.01254,0.05331l-0.00285,0.20517l0.00074,0.00575l-0.00083,0.00104l-0.00606,0.43632l0.09965,0.64063l-0.02903,0.31931l0.29165,-0.20732l0.39451,-0.3837l0.02656,-0.04988l0.50604,-0.56074l0.00613,-0.04167l0.08779,-0.0624l0.07001,-0.07758l0.53584,-0.36007l0.32495,-0.44467l0.07025,-0.05854l0.03842,-0.08297l0.45268,-0.56132l0.10822,-0.08178l0.02489,-0.03406l0.15871,-0.45495l0.26083,-0.11914l0.4365,-0.59732l0.32593,-0.27161l0.34404,-0.47079l0.65337,-0.54447l0.35342,-0.32421l0.69542,-0.67637l0.05745,0.00202l0.59023,-0.3204l0.15024,-0.03874l0.00893,-0.00461l0.08027,-0.06689l0.77596,-0.3746l0.76584,-0.39488l0.10171,-0.02393l0.09699,-0.04683l0.03947,0.01472l0.06625,-0.01559l0.01635,-0.02341l0.10643,-0.01655l0.09731,-0.03808l0.8546,-0.11l0.85141,-0.13244l0.10406,0.00946l0.10682,-0.01375l0.03279,0.02644l7.72347,0.70213l0.29594,0.10324l0.3134,0.00339l1.17696,0.30782l0.4888,0.26753l0.00793,0.00034l0.62176,0.18422l0.02856,0.0026l0.11164,0.03895l0.21583,0.06395l0.04702,0.02774l0.19469,0.06792l0.57737,0.09758l0.02294,-0.01245l0.10259,0.03279l0.10406,0.00946l0.81357,0.2838l0.28244,0.09027l0.01007,0.00043l0.97779,0.28971l0.43139,0.25452l0.4771,0.15248l0.5339,0.33051l0.9147,0.40018l0.39649,0.30606l0.45451,0.21048l0.56132,0.45268l0.22519,0.29798l0.30157,0.22037l0.74872,0.89846l0.04039,0.01197l0.04936,0.09573l0.06689,0.08027l0.3746,0.77596l0.39488,0.76583l0.02393,0.10171l0.04683,0.097l-0.01472,0.03946l0.06877,0.29226c0.10602,0.40757 0.14466,0.84008 0.10434,1.28361c-0.01945,0.2139 -0.05649,0.42197 -0.10958,0.6229l-0.00154,0.11121l-0.0414,0.03858c-0.05354,0.17303 -0.11911,0.34033 -0.19568,0.50101c0.11241,0.4169 0.15419,0.86045 0.11281,1.31562c0.65202,1.66651 -0.17258,1.66677 -0.78509,2.00873l-0.09812,1.07931l0.0201,0.03702l-0.03279,0.10259l-0.00946,0.10406l-0.27161,0.77861l-0.05432,0.59754l-0.19855,0.56918l-0.10046,0.59439l-0.00958,0.02191l-0.06761,0.74371l0.0201,0.03702l-0.03279,0.10259l-0.00946,0.10406l-0.2838,0.81357l-0.2623,0.82075l-0.05499,0.08884l-0.03548,0.1017l-0.03831,0.0175l-0.04391,0.07093l-0.07792,0.22335l-0.07243,0.79671l-0.03467,0.09939c1.28919,-1.84613 2.51946,-3.71321 3.51144,-5.69337c1.417,-2.82855 2.18143,-5.4096 4.88322,-7.28223c2.48092,-1.71954 8.53853,-3.10149 11.62953,-2.72811c0.27286,0.03296 0.6916,0.09241 1.15785,0.18794c0.25706,-0.0308 0.52124,-0.03529 0.78944,-0.01091c0.98643,-0.50041 1.29369,0.07234 1.66347,0.5634c0.23648,0.14963 0.45444,0.32474 0.65035,0.52111c0.45945,0.11673 3.05268,-1.50042 3.47653,-1.56635c3.26914,-0.50853 6.41095,-1.33357 9.31956,-0.59133c0.27749,-0.03822 0.56365,-0.04574 0.85456,-0.01929c1.21535,0.11049 2.24232,0.78919 2.84259,1.75008c0.10085,0.12509 0.1872,0.2622 0.25543,0.41429zM191.46365,227.3173c0.11103,0.17391 0.01627,0.3833 -0.07982,0.59399c0.40443,-0.62552 0.89025,-1.1931 1.55162,-1.61905c4.42491,-2.84977 4.38136,4.12965 7.24074,3.87556c1.93543,-0.17199 6.96893,-5.57874 9.25485,-2.50364c1.89065,2.54337 1.74586,4.60984 -0.11354,7.07954c-0.75338,1.00066 -0.97175,1.90557 -1.84551,2.81129c-0.01687,0.01749 -0.84128,1.35679 -0.15182,1.09443c0.32461,-0.12352 0.65103,-0.32557 0.97789,-0.59117c0.26488,-1.14474 0.8843,-2.03226 2.02627,-2.33828c1.51757,-2.18598 2.98082,-5.09105 4.24502,-7.15731c-0.0115,-0.04696 -0.02289,-0.09442 -0.03417,-0.1424c-0.48334,-2.05419 2.70453,-5.66286 3.66043,-7.32716c2.47499,-4.30916 5.09035,-8.64608 5.69835,-13.60932c-0.16597,-0.48741 -0.31933,-0.9819 -0.45549,-1.47126c-1.39859,-0.10724 -4.97205,0.83729 -5.4981,1.06845c-1.69535,0.74499 -1.37523,2.76201 -2.11379,4.16188c-1.01351,1.921 -3.97549,4.15962 -6.01658,4.7349c-0.83788,0.23615 -1.55915,-0.52879 -2.23945,-0.83505c-4.00188,-1.80156 -1.6281,-4.59142 -0.59953,-7.34985c-2.08141,0.06971 -4.21965,0.25549 -5.94698,1.34295c-0.6645,0.41834 -1.49385,3.17007 -1.73277,3.74038c-0.96005,2.29177 -2.89915,4.13038 -4.30742,6.03811c-1.39888,1.895 -2.85604,4.04013 -3.96574,6.26142c0.34685,0.63167 0.51569,1.36993 0.44554,2.14159zM242.0915,229.66137c-0.08214,0.06371 -0.1593,0.13372 -0.23196,0.2094c1.32275,0.05838 2.39838,0.02444 3.31572,-0.14034l0.26897,-0.2616l0.18697,0.00658l0.24955,-0.17739l0.13612,-0.05327l0.49568,-0.4821l0.04052,0.00142c0.08159,-0.06777 0.1649,-0.13316 0.25031,-0.19542l0.19792,-0.27085l0.83622,-0.69685l0.2456,-0.39673l0.40018,-0.9147l0.16493,-0.21366l0.08217,-0.2571l0.04708,-0.07605l0.22453,-0.70256l0.05499,-0.08885l0.03548,-0.1017l0.03831,-0.0175l0.10661,-0.17221l0.16987,-0.16521l0.09958,-0.21503l0.22599,-0.28023l0.11198,-0.32102l0.03382,-0.05155l0.09235,-0.26475l0.15582,-0.48755l-0.01065,-0.06l0.053,-0.07253l0.06414,-0.20067l0.05499,-0.08885l0.03548,-0.1017l0.03831,-0.0175l0.10661,-0.17221l0.43213,-0.42029l0.35567,-0.48671l0.32593,-0.27161l0.34404,-0.47079l0.43457,-0.36214l0.0838,-0.04045c0.08223,-0.45027 0.21955,-0.83343 0.4801,-1.04593l0.06706,-0.39678l0.2535,-0.57943l0.00755,-0.00978l0.01346,-0.03858l0.26806,-0.83877l0.00946,-0.10406l0.2838,-0.81357l0.2623,-0.82075l0.05499,-0.08885l0.03548,-0.1017l0.03831,-0.0175l0.11144,-0.18001l0.24501,-2.69509l-0.00547,-0.02328l0.00837,-0.60276l-0.09266,-0.59565l0.08282,-0.91099l-0.27048,-0.69123l-0.29193,-0.35032l-0.84732,-0.29558l-0.06281,-0.1375l-0.7616,-0.06924l-0.00854,0.00335l-0.2677,0.03446l-0.2399,0.1237l-0.61564,0.14486l-0.52149,-0.00724l-0.2331,0.05485l-0.58475,0.22881l-0.2677,0.03446l-0.2399,0.1237l-0.30443,0.07163l-0.01635,0.02341l-0.10643,0.01656l-0.09731,0.03808l-0.8546,0.11l-0.51969,0.08084l-0.14731,0.07596l-0.61564,0.14486l-0.14702,-0.00204l-0.13547,0.05716l-0.17299,0.02691l-0.69664,0.37818l-0.48501,0.12507l-0.44518,0.22955l-0.61564,0.14486l-0.04214,-0.00059l-0.07945,0.11373l-0.47612,0.07406l-0.43392,0.20948l-0.19208,-0.07162l-0.12759,0.11704l-0.63375,0.34404l-0.22946,0.05917l-0.19314,0.13729l-0.61551,0.24085l-0.10223,0.05549l-0.14931,0.12443l-0.54287,0.26207l-0.49133,0.34926l-0.13612,0.05326l-0.25952,0.25241l-0.2954,0.3663l-0.11251,0.18175l-0.43213,0.42029l-0.25142,0.34404l-0.4572,0.73856l-1.38547,1.34751l-0.14799,-0.0052l-0.0848,0.12139l-0.31738,0.04937l-0.05398,0.11656l-0.90536,1.12264l-0.08501,0.06424l-0.05007,0.09405l-0.20299,0.22494l0.01847,0.10408l-0.28429,0.38903l-0.15871,0.45495l-0.26083,0.11915l-0.04779,0.0654l-0.04188,0.09573l-0.16493,0.21366l-0.08217,0.2571l-0.09512,0.15365l-0.14668,0.33527l-0.16493,0.21366l-0.08217,0.2571l-0.09512,0.15365l-0.14668,0.33527l-0.30606,0.39649l-0.21048,0.45451l-0.45268,0.56132l-0.29799,0.2252l-0.11612,0.1589l-0.22181,0.35831l-0.16987,0.16521l-0.09958,0.21502l-0.30612,0.37959l-0.11251,0.18175l-0.24434,0.23765l-0.16017,0.30088l-1.2702,1.40751l-0.69345,0.85989l-0.20763,0.33539l-0.0531,0.12138l-0.22339,0.75394l-0.07667,0.12995l0.02219,0.1251l-0.48738,0.66695l0.0166,0.09355l-0.28429,0.38903l-0.15871,0.45495l-0.17977,0.08212l-0.04704,0.15877l-0.37026,0.62756l-0.30618,0.66118l-0.07283,0.09031l-0.23709,0.67967l-0.11557,0.05279l-0.0634,0.13691l-0.05676,0.07039l-0.16269,0.50906l-0.05499,0.08884l-0.03548,0.1017l-0.03831,0.0175l-0.10661,0.17221l-0.16987,0.16521l-0.09958,0.21502l-0.13743,0.17041l-0.24799,0.56683l-0.22417,0.64262l-0.22654,0.3453l-0.12572,0.39338l-0.372,0.60092l-0.01814,0.1995l-0.27161,0.77861l-0.08066,0.12294l-0.02451,0.14498l-0.507,1.15886l-0.16493,0.21366l-0.08217,0.2571l-0.5659,0.91415l-0.14668,0.33527l-0.02841,0.03681c0.47308,0.02989 1.05961,-0.01874 1.6702,-0.11437l0.06561,-0.06381l0.02725,-0.18509l0.60587,-0.43068l0.39159,-0.38086l0.37516,-0.486l0.11968,-0.16377l0.29538,-0.67516l0.16493,-0.21366l0.08217,-0.2571l0.04708,-0.07605l0.22453,-0.70256l0.00483,-0.0078l0.00634,-0.06978l-0.0201,-0.03702l0.03279,-0.1026l0.00946,-0.10406l0.27161,-0.77861l0.05028,-0.55304l-0.0201,-0.03702l0.03279,-0.1026l0.00946,-0.10406l0.2838,-0.81357l0.2623,-0.82075l0.05499,-0.08885l0.03548,-0.1017l0.03831,-0.0175l0.342,-0.55246l0.16987,-0.16521l0.09958,-0.21503l0.30612,-0.37959l0.06687,-0.10802l-0.03528,-0.19887l0.28429,-0.38904l0.15871,-0.45495l0.26083,-0.11914l0.33225,-0.45465l0.4572,-0.73856l0.21948,-0.21347l0.02725,-0.18509l0.60587,-0.43068l0.53288,-0.51828l0.18697,0.00658l0.24955,-0.17739l0.41646,-0.16296l1.91689,-0.24673l0.33996,0.27416l0.43002,-0.0763l0.24111,0.1762c0.90677,-2.18924 2.05435,-4.37813 2.91107,-5.28059c0.92585,-0.97528 2.9933,-1.49655 4.10752,-2.6497c1.36022,-1.40775 1.87651,-3.53222 3.28766,-4.94879c0.99259,-0.9964 6.10728,-6.03548 7.63072,-2.70039c1.04168,0.74971 1.67118,2.01505 1.54657,3.38573c-0.12566,1.38225 -0.98632,2.52085 -2.16119,3.06513c-2.70888,3.77195 -5.67919,7.5256 -9.26415,10.30619zM278.82078,247.71492c0.16218,0.20103 0.2689,0.11329 0.52746,0.16635c0.09537,0.01957 9.19672,1.95211 11.44218,0.15482c0.199,-0.15928 -1.11979,-0.34059 -1.29937,-0.40281c-1.45795,-0.50515 -2.31597,-1.18526 -3.35738,-2.37497c-1.93228,-2.20744 0.1195,-6.96383 0.9754,-9.64197c0.81051,-2.53613 3.90274,-3.47151 6.13999,-3.81953c1.20855,-0.188 3.69665,-0.2773 3.07439,-1.1559c-2.25861,-3.18906 -0.32473,-4.60267 0.65527,-7.14347c1.93336,-5.01251 5.68708,-7.00322 10.17482,-8.29018c-0.96438,-0.41438 -1.87592,-0.92028 -2.24731,-1.57499c-1.13875,-0.20406 -2.33978,-0.21138 -3.65564,0.1679c-3.47803,1.00251 -9.6418,11.85445 -11.61744,15.25077c-0.66981,1.15147 -1.34215,3.85677 -2.49437,5.12481c-1.05031,3.42696 -4.68366,7.08998 -6.31832,9.02242c-0.94788,1.12055 -1.32293,2.8191 -2.09861,4.08365c-0.00269,0.18912 0.02475,0.34114 0.09893,0.43309zM259.72855,232.63951c-2.45561,1.65007 -6.4082,7.03347 -6.41541,10.19109c-0.00219,0.96013 4.79096,1.7714 5.48664,1.89697c0.75937,0.13706 2.9343,0.82022 2.27734,0.41545c-0.54733,-0.33723 -1.47394,-0.72016 -1.79772,-1.29815c-2.01633,-3.59941 0.90794,-4.81778 2.84827,-6.8796c1.02329,-1.08736 1.05828,-3.49739 1.95751,-4.72792c3.1399,-4.2967 6.1129,-8.30666 9.12607,-12.8285c0.57841,-0.86802 3.01866,-2.12502 3.23629,-2.92696c0.2708,-0.99786 1.03937,-2.75901 1.86523,-4.20442c-0.24546,-0.05659 -0.49959,-0.08499 -0.76483,-0.07856c-0.57671,0.01398 -1.66657,0.56625 -2.24267,0.78907c-0.19943,0.07714 -1.64577,3.64393 -1.90749,4.03436c-1.30416,1.9456 -3.64763,3.1111 -4.83293,4.93924c-0.82375,1.2705 -1.94268,4.76674 -3.82512,4.96843c-2.41382,0.25863 -3.74365,-0.12278 -4.462,-1.52526c-0.14304,0.19594 -0.2899,0.38436 -0.44061,0.56442c1.14405,0.73018 1.85064,2.058 1.71929,3.50287c0.5101,0.68626 -1.26958,2.79231 -1.82787,3.16746zM339.63372,242.876c-1.26102,1.93166 -5.1422,3.96327 -5.36671,6.34531c-0.00447,0.04741 -0.00827,0.09399 -0.01141,0.13974c0.70427,0.65907 1.41465,1.5505 1.86482,1.59995c2.68462,0.2949 5.19515,0.677 7.90307,0.91929c0.31708,0.02837 -0.4978,-0.39949 -0.76848,-0.56705c-0.30942,-0.19155 -0.87364,-0.79967 -1.13405,-1.166c-1.2052,-1.69545 -2.23991,-3.473 -1.48157,-5.85449c1.04424,-3.27935 3.1273,-7.89629 7.18751,-8.21299c0.67824,-0.0529 2.12013,-0.38123 3.05369,-0.07514c1.34079,-0.14879 2.65455,-0.46157 2.45877,-1.29363c-0.13186,-0.5604 -2.15335,-1.95578 -2.49829,-2.46911c-1.41922,-2.11207 0.62379,-5.75884 2.19784,-7.2019c1.66319,-1.52478 4.81391,-3.29264 7.02552,-3.63666c0.83251,-0.1295 4.4022,-0.44293 4.8478,-1.14982c0.11975,-0.18997 0.14715,-0.46732 0.13276,-0.79247c-4.54908,-1.30234 -9.41641,-0.01788 -12.82485,3.33859c-1.55889,1.53512 -1.71003,5.03817 -3.27474,6.27896c-0.66825,0.52991 -1.31938,0.9468 -1.95863,1.2058c-2.39968,4.24394 -4.71034,8.54349 -7.35306,12.59163zM157.83944,234.95447l0.03702,-0.0201l0.10259,0.03279l0.10406,0.00946l0.77861,0.27161l1.19507,0.10864l0.64115,-0.09973l0.09731,-0.03808l0.8546,-0.11l0.67774,-0.10542l0.09731,-0.03808l0.08659,-0.01115l0.07338,-0.0473l1.86504,-0.63375l0.18375,-0.01521l0.16387,-0.0845l0.63892,-0.15034l0.01266,-0.00781l0.01784,-0.12114l0.60587,-0.43068l0.53288,-0.51828l0.09008,0.00317l0.56177,-0.54638l0.14799,0.0052l0.0848,-0.12139l0.37197,-0.05786c0.55636,-0.51343 1.06991,-1.06335 1.52298,-1.65661c1.12785,-1.47684 1.65634,-4.33172 3.10723,-5.47724c1.09325,-0.86315 4.38081,-3.01427 4.87737,-4.23324c1.12233,-2.7551 2.29333,-6.02092 3.79908,-8.50834c1.03378,-1.70775 1.13996,-4.30074 1.74018,-6.48559c-0.07654,-0.35968 -0.0969,-0.67023 -0.03488,-0.87549c0.12725,-0.42118 -0.78242,-0.45202 -1.21907,-0.50611c-2.17548,-0.2695 -5.00925,-0.26342 -7.2543,0.17304c-1.50919,0.2934 -8.44169,4.57525 -9.72982,5.91595c-0.73423,0.7642 -1.16808,1.83191 -1.6871,2.84312c3.03516,-3.01102 6.66611,-5.38533 10.84436,-6.63147c0.46746,-0.15128 0.97253,-0.21262 1.49277,-0.16533c2.06256,0.18751 3.5826,2.01154 3.39509,4.07411c-0.03151,0.34666 -0.10926,0.67799 -0.22659,0.98846c0.03424,1.83801 -0.29989,3.75521 -0.5158,4.96879c-0.32954,1.85232 -1.62487,2.53994 -2.42992,4.16763c-1.00394,2.0298 -3.00236,3.10105 -4.60652,4.74495c-2.63435,2.69961 -4.78925,7.97181 -8.98947,8.791c-7.37929,1.43923 -8.92888,-4.66953 -6.37886,-10.1761c1.21882,-2.63195 2.74726,-5.20066 4.5692,-7.5429c-2.68161,2.60101 -5.91479,9.3087 -6.1849,12.40634c-0.21008,2.40914 1.3785,4.36659 3.17703,5.8469zM321.27746,233.49987c-0.06584,0.11151 -0.13722,0.21917 -0.21375,0.32263c-1.70534,2.99501 -4.03927,6.40434 -4.97145,7.71359c-0.94831,1.3319 -1.86823,2.69991 -2.68189,3.99243c-0.61699,0.9801 -2.79155,3.547 -1.77939,2.98416c0.18913,-0.10517 0.38496,-0.21253 0.58597,-0.31953c0.41075,-0.83567 1.12053,-1.48778 1.97811,-1.83035c1.8896,-1.84709 4.19459,-3.56559 4.81577,-5.75446c0.54653,-1.92583 5.41863,-11.01841 6.56834,-12.84286c0.71086,-1.12805 3.65686,-6.57725 4.98785,-7.09808c0.39584,-0.15489 0.76479,-0.28212 1.10982,-0.38035c0.13655,-0.05994 0.27439,-0.11058 0.41325,-0.15372c-3.13259,0.30021 -5.99164,0.33452 -7.56803,-0.09875c-1.85892,-0.51093 0.77623,3.42484 0.77648,3.64345c0.00063,0.53527 -0.82529,2.22151 -1.85066,3.98112c0.39735,1.64593 0.065,3.44691 -2.17044,5.8407zM151.9021,203.83502l0.06694,-0.10813l0.24404,-2.68441l-0.00589,-0.02504l0.009,-0.64828l-0.00244,-0.01567l-0.03269,-0.08355l-0.03714,-0.02594l-0.01781,-0.11446l-0.00899,-0.02297l-1.42711,-0.12974l-0.09311,0.13328l-0.51207,0.07966l-0.46669,0.2253l-0.249,-0.09285l-0.30824,0.03968l-0.40923,0.17268l-1.31524,0.20459l-0.03562,0.01394l-0.31287,0.04027l-0.08898,0.01384l-0.01088,-0.00099l-0.50642,0.06518l-0.87828,0.13662l-0.71545,0.16834l-0.56087,-0.00779l-0.09874,0.02324l-0.73082,0.35281l-0.15484,0.03216l-0.12889,0.09163l-0.44792,0.17527l-0.28792,0.03706l-0.25801,0.13304l-0.30604,0.07201l2.83498,0.25773l0.03981,-0.02161l0.11035,0.03527l0.11192,0.01017l0.87501,0.30524l0.52437,0.16758l0.06454,-0.01145l0.078,0.057l0.21583,0.06897l0.09556,0.05915l0.10937,0.03815l0.01882,0.04121l0.18522,0.11465l0.45203,0.46477l0.52347,0.38253l0.73126,0.87751l1.09255,-0.16995l0.12291,0.01117l0.4571,-0.17887l0.28792,-0.03706l0.25801,-0.13304l0.13638,-0.03209l0.50858,-0.27608zM124.23599,230.63871l0.41771,-0.09829l0.25483,0.00354l0.23926,-0.0878l1.09058,-0.11685l0.39788,0.05535l0.39694,-0.06175l0.2178,0.0198l0.57605,-0.14854l0.63592,-0.26834l0.54416,-0.08465l-0.29386,-0.30214l-0.07847,-0.03433l-0.16976,-0.13105l-0.15807,0.00533l-0.6257,-0.61034l-0.69192,-0.53411l-0.01685,-0.15726l-0.15352,-0.14975l-0.17776,-0.28809l-1.68076,-1.04047l-0.06181,-0.00135l-0.70531,-0.76886l-0.72745,-0.74794l0.00217,-0.06179l-0.04176,-0.07692l-0.00497,0.01424l-0.10805,0.63927l-0.01031,0.02356l-0.42284,4.65125c0.32243,0.13741 0.64752,0.27064 0.97499,0.39906zM188.17911,232.52023c0.92509,-0.52168 1.48799,-1.39699 1.99289,-2.35542c-0.60872,0.7355 -1.37562,1.48945 -2.06645,2.23741c-0.05768,0.1294 -0.05395,0.18992 0.07356,0.11801z" fill="#000000" stroke-width="0.5"/><text transform="translate(114.0623,232.77587) rotate(5.19443) scale(1.31257,1.31257)" font-size="40" xml:space="preserve" fill="#fcff3a" fill-rule="nonzero" stroke="none" stroke-width="1" stroke-linecap="butt" stroke-linejoin="miter" stroke-miterlimit="10" stroke-dasharray="" stroke-dashoffset="0" font-family="Marker" font-weight="normal" text-anchor="start" style="mix-blend-mode: normal"><tspan x="0" dy="0">COMPLETE!</tspan></text><path d="M91.63441,250.17304l7.06179,-77.67967l322.6694,29.33358l-7.06179,77.67967z" fill="none" stroke-width="0"/></g></g></g></svg>