<svg version="1.1" xmlns="http://www.w3.org/2000/svg" xmlns:xlink="http://www.w3.org/1999/xlink" width="504.5045" height="384.38438" viewBox="0,0,504.5045,384.38438"><g transform="translate(12.25225,12.19219)"><g data-paper-data="{&quot;isPaintingLayer&quot;:true}" fill-rule="nonzero" stroke="none" stroke-width="0" stroke-linecap="butt" stroke-linejoin="miter" stroke-miterlimit="10" stroke-dasharray="" stroke-dashoffset="0" style="mix-blend-mode: normal"><path d="M-12.25225,372.19219v-384.38438h504.5045v384.38438z" fill="#35294a"/><path d="M384.60267,291.50551c0,0 11.36947,-4.95145 14.52793,-9.3921c3.59255,-5.05095 5.89325,-19.31911 5.89325,-19.31911c0,0 4.01461,14.3698 7.30051,18.85744c3.63541,4.96498 13.5696,9.64544 13.5696,9.64544c0,0 -9.22853,6.12668 -12.32488,11.05054c-3.47478,5.52565 -7.5197,20.50664 -7.5197,20.50664c0,0 -4.62238,-15.87583 -8.4292,-21.44029c-3.25548,-4.75855 -13.01752,-9.90856 -13.01752,-9.90856z" fill="#f6ff8a"/><path d="M21.60267,93.50551c0,0 11.36948,-4.95145 14.52794,-9.3921c3.59254,-5.05095 5.89325,-19.31912 5.89325,-19.31912c0,0 4.01461,14.3698 7.30051,18.85744c3.63541,4.96498 13.5696,9.64544 13.5696,9.64544c0,0 -9.22854,6.12669 -12.32488,11.05055c-3.47478,5.52566 -7.5197,20.50664 -7.5197,20.50664c0,0 -4.62237,-15.87583 -8.42919,-21.44029c-3.25547,-4.75856 -13.01752,-9.90856 -13.01752,-9.90856z" fill="#f6ff8a"/><path d="M311.60267,125.69885c0,0 11.66203,-5.07886 14.90177,-9.63378c3.68498,-5.18092 6.0449,-19.81623 6.0449,-19.81623c0,0 4.1179,14.73955 7.48836,19.34268c3.72896,5.09274 13.91877,9.89363 13.91877,9.89363c0,0 -9.46599,6.28434 -12.64202,11.3349c-3.56419,5.66784 -7.71318,21.03431 -7.71318,21.03431c0,0 -4.74133,-16.28435 -8.6461,-21.99199c-3.33923,-4.88101 -13.35249,-10.16352 -13.35249,-10.16352z" fill="#f6ff8a"/><path d="M172.60267,172.98859c0,0 7.20484,-3.13773 9.20635,-5.95177c2.2766,-3.20079 3.73455,-12.24252 3.73455,-12.24252c0,0 2.54406,9.10614 4.62633,11.94996c2.30376,3.14631 8.59906,6.11231 8.59906,6.11231c0,0 -5.84812,3.88248 -7.81028,7.00273c-2.20197,3.50161 -4.76523,12.99506 -4.76523,12.99506c0,0 -2.9292,-10.06051 -5.34158,-13.58671c-2.06299,-3.0155 -8.24921,-6.27905 -8.24921,-6.27905z" fill="#f6ff8a"/><path d="M404.60267,32.98859c0,0 7.20484,-3.13773 9.20635,-5.95177c2.27659,-3.20078 3.73456,-12.24252 3.73456,-12.24252c0,0 2.54406,9.10614 4.62633,11.94996c2.30376,3.14631 8.59906,6.11231 8.59906,6.11231c0,0 -5.84812,3.88248 -7.81028,7.00273c-2.20197,3.50161 -4.76523,12.99506 -4.76523,12.99506c0,0 -2.9292,-10.06051 -5.34158,-13.58671c-2.063,-3.01549 -8.2492,-6.27905 -8.2492,-6.27905z" fill="#f6ff8a"/><path d="M47.60267,296.98859c0,0 7.20484,-3.13773 9.20635,-5.95177c2.27659,-3.20079 3.73456,-12.24252 3.73456,-12.24252c0,0 2.54406,9.10614 4.62634,11.94996c2.30376,3.14631 8.59905,6.11231 8.59905,6.11231c0,0 -5.84812,3.88248 -7.81028,7.00273c-2.20197,3.50161 -4.76523,12.99506 -4.76523,12.99506c0,0 -2.9292,-10.06051 -5.34158,-13.58671c-2.063,-3.01549 -8.24921,-6.27906 -8.24921,-6.27906z" fill="#f6ff8a"/></g></g></svg>