<svg version="1.1" xmlns="http://www.w3.org/2000/svg" xmlns:xlink="http://www.w3.org/1999/xlink" width="361.74962" height="167.18705" viewBox="0,0,361.74962,167.18705"><g transform="translate(-124.14616,-191.21268)"><g data-paper-data="{&quot;isPaintingLayer&quot;:true}" fill-rule="nonzero" stroke-linecap="butt" stroke-linejoin="miter" stroke-miterlimit="10" stroke-dasharray="" stroke-dashoffset="0" style="mix-blend-mode: normal"><path d="M483.62671,296.00213l-237.99498,-1.54329l0.25614,-39.49917l237.99498,1.54329z" fill="#d4d4d4" stroke="#000000" stroke-width="4"/><path d="M207.29818,358.11136c-45.43999,-0.29465 -82.03751,-37.36992 -81.74285,-82.80992c0.29465,-45.43999 37.36992,-82.03749 82.8099,-81.74284c45.43999,0.29465 82.03749,37.36992 81.74284,82.8099c-0.29465,45.43999 -37.3699,82.0375 -82.80989,81.74284z" fill="#ff0000" stroke="none" stroke-width="0"/><path d="M253.65091,343.40315c0,0 -52.70845,29.67609 -101.15175,-7.8453c-29.45494,-22.81408 -25.01618,-75.30104 -25.01618,-75.30104c0,0 4.00485,47.4331 36.08978,69.50263c41.83407,28.77549 90.07812,13.6437 90.07812,13.6437z" fill="#f0eeee" stroke="none" stroke-width="0"/><path d="M207.21146,356.39973c-45.06236,-0.29221 -81.35576,-37.05937 -81.06355,-82.12174c0.29221,-45.06236 37.05937,-81.35576 82.12174,-81.06355c45.06236,0.29221 81.35576,37.05937 81.06355,82.12174c-0.29221,45.06236 -37.05937,81.35576 -82.12174,81.06355z" fill="none" stroke="#000000" stroke-width="4"/><path d="M226.33975,327.88446c-2.5279,-3.41646 0.88855,-5.94435 0.88855,-5.94435l2.67211,-1.88923c3.56403,-1.04986 7.99858,-1.54953 11.32984,-3.32509c2.89817,-1.54472 4.20443,-3.77361 7.48948,-5.17304c0.87941,-0.37462 4.80355,-1.44061 5.75718,-2.05552c3.19115,-2.05762 5.45129,-6.98898 7.2808,-10.08143c4.38766,-7.41658 8.54651,-14.50281 8.56864,-23.29721c0.08177,-6.84165 -3.32511,-12.74456 -5.61711,-19.075c-4.82589,-13.32896 -12.10523,-27.55356 -25.82409,-33.66592c-1.83877,-0.81925 -5.05414,-0.24685 -6.96593,-0.25924c0,0 -4.24991,-0.02755 -4.22235,-4.27747c0.02755,-4.24991 4.27747,-4.22235 4.27747,-4.22235c3.30348,0.02142 6.86573,-0.38012 10.02724,0.85096c16.14589,6.2872 25.17742,23.50599 30.70784,38.70218c2.71455,7.45889 6.13417,13.96 6.11677,22.00195c-0.10223,10.41748 -4.55558,18.79798 -9.76168,27.58501c-2.55428,4.3112 -5.54027,9.93272 -9.86798,12.80785c-2.87223,1.90816 -6.65913,1.89173 -9.42292,3.86748c-1.56954,1.12201 -2.74,2.7926 -4.42712,3.7286c-3.57961,1.98595 -7.80774,2.5408 -11.71507,3.52563l-1.34727,1.08476c0,0 -3.41646,2.5279 -5.94435,-0.88855z" fill="#000000" stroke="none" stroke-width="0.5"/><path d="M221.08431,299.54977c-5.2202,-0.03385 -10.44038,-0.0677 -15.66061,-0.10153c0,0 -0.70224,-0.00455 -1.53394,-0.29541c-12.6015,6.88357 -25.53832,13.11816 -37.91087,20.43439l-2.68936,-6.04057l-1.63649,-1.27631c0.28187,-0.16663 0.56402,-0.33268 0.84645,-0.49822l-0.15948,-0.35822c0,0 1.30858,-1.29171 3.0539,-1.31516c13.51754,-7.71274 27.58122,-14.37898 41.08217,-22.13207c4.22053,-2.07383 8.32204,-4.39164 12.35453,-6.81089c2.0144,-1.20851 4.05999,-2.36472 6.10987,-3.51204c0.36001,-0.20151 0.7058,-0.45989 1.05613,-0.70484c-1.11738,-0.80654 -2.15878,-1.73276 -3.05723,-2.77309c-2.63563,-3.05179 -3.40996,-5.67856 -6.23039,-8.31928c-6.95179,-6.5088 -15.29716,-10.98492 -22.61731,-16.90768c-3.60699,-2.91842 -6.5476,-6.67725 -10.43071,-9.21671c-1.07351,-0.70203 -2.42424,-0.88484 -3.52489,-1.54353c-0.75988,-0.45476 -1.18321,-1.39688 -1.99178,-1.75802c-0.73691,-0.32915 -1.60813,-0.13931 -2.4122,-0.20896c0,0 -4.20332,-0.62831 -3.57499,-4.83161c0.62831,-4.20332 4.83161,-3.57499 4.83161,-3.57499c6.7802,1.2379 12.91862,5.60546 18.13777,10.13146c1.55522,1.34868 2.729,3.10857 4.32673,4.40661c2.91346,2.36699 6.04294,4.49927 9.18077,6.62899c0.07532,-0.00366 0.11712,-0.0034 0.11712,-0.0034c5.35684,0.03474 10.76001,0.08234 15.91964,-1.35572l0.03374,0.45511c0.18751,-0.08812 0.37418,-0.16015 0.55422,-0.21903l0.00177,-0.27332l3.99991,0.02594c2.34716,0.01522 4.23758,1.93031 4.22235,4.27747c-0.01522,2.34716 -1.93031,4.23758 -4.27747,4.22235l-3.55561,-0.02304c-1.93253,0.52818 -3.90786,0.86125 -5.90454,1.06953c2.28148,1.97399 4.40658,4.12712 6.26895,6.57833c1.16524,1.53369 2.00053,3.31357 3.25946,4.77135c2.46086,2.84955 6.74197,4.07992 7.0431,8.79154c0.2745,4.2952 -4.48362,6.1836 -7.17391,7.7431c-3.48221,2.01851 -6.88846,4.04847 -10.34512,6.00247c2.3936,0.01552 4.78719,0.03105 7.18079,0.04657l2.99993,0.01946c2.34716,0.01522 4.23758,1.93031 4.22235,4.27747c-0.01522,2.34716 -1.93031,4.23758 -4.27747,4.22235l-2.99993,-0.01946l-0.10291,0.55067c0,0 -2.75723,1.35634 -4.73605,-0.58204z" fill="#000000" stroke="none" stroke-width="0.5"/></g></g></svg>