<svg version="1.1" xmlns="http://www.w3.org/2000/svg" xmlns:xlink="http://www.w3.org/1999/xlink" width="362.2333" height="166.99958" viewBox="0,0,362.2333,166.99958"><g transform="translate(-187.33211,-213.76518)"><g data-paper-data="{&quot;isPaintingLayer&quot;:true}" fill-rule="nonzero" stroke-linecap="butt" stroke-linejoin="miter" stroke-miterlimit="10" stroke-dasharray="" stroke-dashoffset="0" style="mix-blend-mode: normal"><path d="M547.43287,297.58391l-237.43882,16.33394l-2.71088,-39.40686l237.43882,-16.33394z" fill="#d4d4d4" stroke="#000000" stroke-width="4"/><path d="M276.54889,380.26939c-45.33381,3.11862 -84.61224,-31.10356 -87.73086,-76.43738c-3.11862,-45.33381 31.10356,-84.61222 76.43736,-87.73085c45.33381,-3.11862 84.61222,31.10356 87.73085,76.43736c3.11862,45.33381 -31.10354,84.61224 -76.43735,87.73085z" fill="#ff0000" stroke="none" stroke-width="0"/><path d="M321.66618,362.12174c0,0 -50.33101,33.55057 -101.45527,-0.22688c-31.08505,-20.53765 -30.60047,-73.20974 -30.60047,-73.20974c0,0 7.55566,46.9984 41.20735,66.59611c43.8769,25.55259 90.84836,6.84051 90.84836,6.84051z" fill="#f0eeee" stroke="none" stroke-width="0"/><path d="M276.33389,378.56911c-44.95705,3.09269 -83.9091,-30.84509 -87.00178,-75.80215c-3.09269,-44.95705 30.84509,-83.9091 75.80215,-87.00178c44.95705,-3.09269 83.9091,30.84509 87.00178,75.80215c3.09269,44.95705 -30.84509,83.9091 -75.80215,87.00178z" fill="none" stroke="#000000" stroke-width="4"/><path d="M293.26673,348.69787c-2.77733,-3.21697 0.43963,-5.99429 0.43963,-5.99429l2.52268,-2.08456c3.47513,-1.31454 7.85963,-2.14583 11.04814,-4.16654c2.77398,-1.758 3.90917,-4.0787 7.07986,-5.72087c0.84879,-0.4396 4.6818,-1.79728 5.58656,-2.48207c3.02762,-2.29146 4.91103,-7.37862 6.50315,-10.59973c3.8183,-7.72514 7.43325,-15.10368 6.79487,-23.8749c-0.43225,-6.82847 -4.27281,-12.45886 -7.03373,-18.5993c-5.81323,-12.9289 -14.14025,-26.56667 -28.27941,-31.63152c-1.89509,-0.67886 -5.05841,0.1334 -6.96573,0.26461c0,0 -4.23998,0.29169 -4.53166,-3.94831c-0.29169,-4.23998 3.94831,-4.53166 3.94831,-4.53166c3.29575,-0.22673 6.8178,-0.89465 10.06284,0.09554c16.57245,5.05693 26.87157,21.54885 33.52757,36.28679c3.26704,7.23398 7.16522,13.45992 7.75181,21.48047c0.68039,10.39573 -3.13103,19.08702 -7.66254,28.24019c-2.22331,4.49084 -4.7787,10.32073 -8.87828,13.51274c-2.72082,2.11846 -6.49827,2.38648 -9.10587,4.5642c-1.48085,1.23671 -2.52255,2.99049 -4.13461,4.05054c-3.42036,2.24917 -7.59488,3.11997 -11.41722,4.39546l-1.26201,1.18287c0,0 -3.21697,2.77733 -5.99429,-0.43963z" fill="#000000" stroke="none" stroke-width="0.5"/><path d="M285.89827,320.83786c-5.208,0.35827 -10.41598,0.71654 -15.62402,1.07483c0,0 -0.70059,0.0482 -1.5518,-0.17938c-12.04898,7.81048 -24.48106,14.99898 -36.26924,23.2237l-3.1354,-5.82155l-1.72772,-1.14981c0.26856,-0.18732 0.53745,-0.3741 0.80664,-0.56038l-0.18593,-0.34523c0,0 1.20788,-1.38633 2.94652,-1.54078c12.90017,-8.70609 26.4235,-16.40966 39.30409,-25.15476c4.05287,-2.38493 7.96875,-5.0042 11.80816,-7.71945c1.91796,-1.35638 3.87094,-2.66294 5.82887,-3.96097c0.34386,-0.22799 0.66927,-0.51159 1.00022,-0.78216c-1.1748,-0.72035 -2.28281,-1.56575 -3.25686,-2.53567c-2.85737,-2.84525 -3.82678,-5.40645 -6.83756,-7.8279c-7.42096,-5.96835 -16.07891,-9.80512 -23.82317,-15.16143c-3.81597,-2.6393 -7.03055,-6.16668 -11.09341,-8.40737c-1.1232,-0.61943 -2.48385,-0.70029 -3.63085,-1.27446c-0.79188,-0.39641 -1.28477,-1.30408 -2.11817,-1.60347c-0.75955,-0.27289 -1.61406,-0.01815 -2.42109,-0.02722c0,0 -4.23862,-0.31088 -3.92773,-4.54949c0.31088,-4.23862 4.54949,-3.92773 4.54949,-3.92773c6.85402,0.72523 13.30309,4.61947 18.8474,8.74075c1.65211,1.22808 2.95474,2.89485 4.64544,4.06925c3.08299,2.14152 6.36377,4.03276 9.65267,5.92081c0.07484,-0.00931 0.11653,-0.01219 0.11653,-0.01219c5.34432,-0.36764 10.7358,-0.72595 15.77288,-2.54742l0.06782,0.4513c0.18035,-0.10195 0.3611,-0.1878 0.5362,-0.26002l-0.01876,-0.27268l3.99056,-0.27452c2.34168,-0.16109 4.37057,1.60663 4.53166,3.94831c0.16109,2.34168 -1.60663,4.37057 -3.94831,4.53166l-3.5473,0.24403c-1.88741,0.67182 -3.83215,1.15229 -5.80755,1.50993c2.42328,1.79707 4.70408,3.78455 6.74527,6.08898c1.27713,1.44185 2.24372,3.15398 3.60857,4.5131c2.66791,2.6567 7.02932,3.56209 7.68343,8.23779c0.59628,4.26245 -4.00659,6.50284 -6.57215,8.25998c-3.3208,2.27431 -6.56499,4.55435 -9.86513,6.76242c2.388,-0.16428 4.776,-0.32855 7.16401,-0.49283l2.99292,-0.20589c2.34168,-0.16109 4.37057,1.60663 4.53166,3.94831c0.16109,2.34168 -1.60663,4.37057 -3.94831,4.53166l-2.99292,0.20589l-0.06126,0.55684c0,0 -2.64759,1.55957 -4.76639,-0.22474z" fill="#000000" stroke="none" stroke-width="0.5"/></g></g></svg>