<svg version="1.1" xmlns="http://www.w3.org/2000/svg" xmlns:xlink="http://www.w3.org/1999/xlink" width="360.31433" height="167.22074" viewBox="0,0,360.31433,167.22074"><g transform="translate(-188.17662,-241.711)"><g data-paper-data="{&quot;isPaintingLayer&quot;:true}" fill-rule="nonzero" stroke-linecap="butt" stroke-linejoin="miter" stroke-miterlimit="10" stroke-dasharray="" stroke-dashoffset="0" style="mix-blend-mode: normal"><path d="M546.13236,289.30726l-233.22188,47.45047l-7.87518,-38.70699l233.22188,-47.45047z" fill="#d4d4d4" stroke="#000000" stroke-width="4"/><path d="M288.49157,406.93481c-44.52867,9.05965 -87.97057,-19.69369 -97.03022,-64.22237c-9.05965,-44.52867 19.69369,-87.97055 64.22235,-97.03021c44.52867,-9.05965 87.97055,19.69369 97.03021,64.22235c9.05965,44.52867 -19.69367,87.97057 -64.22234,97.03021z" fill="#ff0000" stroke="none" stroke-width="0"/><path d="M330.82704,383.00544c0,0 -45.47603,39.88461 -100.60211,13.13163c-33.51827,-16.26657 -39.97216,-68.54401 -39.97216,-68.54401c0,0 13.67721,45.59464 49.61604,60.59155c46.859,19.55382 90.9582,-5.17917 90.9582,-5.17917z" fill="#f0eeee" stroke="none" stroke-width="0"/><path d="M288.0546,405.27763c-44.15861,8.98434 -87.23952,-19.53004 -96.22386,-63.68865c-8.98434,-44.15861 19.53004,-87.23952 63.68865,-96.22386c44.15861,-8.98434 87.23952,19.53004 96.22386,63.68865c8.98434,44.15861 -19.53004,87.23952 -63.68865,96.22386z" fill="none" stroke="#000000" stroke-width="4"/><path d="M300.90753,373.43718c-3.17667,-2.82334 -0.35334,-5.99999 -0.35334,-5.99999l2.22629,-2.39853c3.27182,-1.7606 7.50872,-3.16187 10.40346,-5.58476c2.5184,-2.10789 3.33819,-4.55784 6.26509,-6.60314c0.78353,-0.54752 4.40444,-2.39799 5.21117,-3.19593c2.6996,-2.6701 3.8969,-7.96093 5.0511,-11.36361c2.76806,-8.16058 5.38016,-15.95081 3.59261,-24.56164c-1.32745,-6.71213 -5.87582,-11.78791 -9.4211,-17.51143c-7.46472,-12.05106 -17.51467,-24.47389 -32.19755,-27.63324c-1.96797,-0.42346 -4.99682,0.79818 -6.87027,1.17934c0,0 -4.16468,0.84734 -5.01201,-3.31735c-0.84734,-4.16468 3.31735,-5.01201 3.31735,-5.01201c3.23722,-0.65864 6.64068,-1.78442 9.98783,-1.23006c17.09395,2.83116 29.47458,17.82367 38.01289,31.55708c4.19095,6.74091 8.87485,12.39947 10.51223,20.27299c2.04306,10.21568 -0.59098,19.33309 -3.87804,29.00317c-1.61274,4.74445 -3.37839,10.86002 -7.02206,14.56395c-2.41824,2.45822 -6.12753,3.2212 -8.42574,5.72326c-1.30515,1.4209 -2.1069,3.29655 -3.56537,4.5596c-3.09449,2.67988 -7.11803,4.09268 -10.73919,5.86027l-1.0953,1.33872c0,0 -2.82334,3.17667 -5.99999,0.35334z" fill="#000000" stroke="none" stroke-width="0.5"/><path d="M289.93544,346.78971c-5.11551,1.04078 -10.23099,2.08156 -15.34653,3.12237c0,0 -0.68815,0.14001 -1.56191,0.02648c-10.91586,9.32874 -22.29338,18.09135 -32.89618,27.7964l-3.87451,-5.35811l-1.86405,-0.91235c0.24156,-0.22105 0.48352,-0.4416 0.72585,-0.6617l-0.22976,-0.31775c0,0 1.01486,-1.53328 2.71803,-1.91528c11.64174,-10.32862 24.0332,-19.74548 35.65039,-30.11018c3.70362,-2.89773 7.24059,-6.00973 10.68912,-9.2068c1.7227,-1.59707 3.48667,-3.14937 5.25668,-4.69386c0.31085,-0.27127 0.59609,-0.59525 0.88854,-0.90703c-1.25941,-0.55942 -2.46907,-1.25159 -3.56233,-2.08484c-3.20708,-2.44431 -4.50523,-4.8556 -7.80859,-6.85961c-8.1421,-4.93944 -17.2298,-7.603 -25.61182,-11.89316c-4.13022,-2.11396 -7.7812,-5.18744 -12.10368,-6.87375c-1.19497,-0.46617 -2.55442,-0.3672 -3.76703,-0.78537c-0.83718,-0.28871 -1.44527,-1.12359 -2.31083,-1.31066c-0.78886,-0.17052 -1.6024,0.1945 -2.4036,0.29175c0,0 -4.24266,0.24984 -4.49248,-3.99281c-0.24984,-4.24266 3.99281,-4.49248 3.99281,-4.49248c6.88984,-0.18341 13.79546,2.82792 19.83407,6.18342c1.79941,0.99989 3.31013,2.48066 5.14072,3.42226c3.33809,1.71701 6.83929,3.15987 10.34813,4.59851c0.07296,-0.01908 0.11391,-0.02742 0.11391,-0.02742c5.2494,-1.06802 10.54679,-2.13299 15.30023,-4.60174l0.12664,0.43844c0.16536,-0.12481 0.33323,-0.2337 0.4973,-0.32835l-0.0545,-0.26784l3.91969,-0.79749c2.30009,-0.46797 4.54404,1.01726 5.01201,3.31735c0.46797,2.30009 -1.01726,4.54404 -3.31735,5.01201l-3.4843,0.70891c-1.78254,0.91445 -3.6471,1.64676 -5.55822,2.26135c2.63877,1.46241 5.16137,3.13232 7.48817,5.14797c1.45583,1.26117 2.63941,2.83114 4.17131,3.99875c2.99444,2.28235 7.43709,2.60568 8.70106,7.15457c1.15224,4.14685 -3.11562,6.97371 -5.42753,9.05331c-2.99248,2.6917 -5.90827,5.37899 -8.889,8.0023c2.34559,-0.47723 4.69118,-0.95445 7.03678,-1.43168l2.93977,-0.59811c2.30009,-0.46797 4.54404,1.01726 5.01201,3.31735c0.46797,2.30009 -1.01726,4.54404 -3.31735,5.01201l-2.93977,0.59811l0.01258,0.56006c0,0 -2.41923,1.89455 -4.75449,0.40471z" fill="#000000" stroke="none" stroke-width="0.5"/></g></g></svg>