<svg viewBox="0,0,304.5,73.5" height="73.5" width="304.5" xmlns:xlink="http://www.w3.org/1999/xlink" xmlns="http://www.w3.org/2000/svg" version="1.1"><g transform="translate(-87.75,-143.25)"><g style="mix-blend-mode: normal" stroke-dashoffset="0" stroke-dasharray="" stroke-miterlimit="10" stroke-linejoin="miter" stroke-linecap="butt" fill-rule="nonzero" data-paper-data="{&quot;isPaintingLayer&quot;:true}"><path stroke-width="0.5" stroke="none" fill="#000000" d=""></path><path stroke-width="0.5" stroke="none" fill="#000000" d=""></path><g><g><path stroke-width="0" stroke="none" fill="#b2b1b1" d="M90.0625,180.04166c0,-18.77768 15.22232,-34 34,-34c18.77768,0 34,15.22232 34,34c0,18.77768 -15.22232,34 -34,34c-18.77768,0 -34,-15.22232 -34,-34z"></path><path stroke-width="0" stroke="none" fill="#f0eeee" d="M96.975,199.74166c0,0 -14.34575,-22.36543 1.5,-43.1c9.63468,-12.60722 32,-9.3 32,-9.3c0,0 -20.18966,0.27477 -29.5,14c-12.13933,17.89569 -4,38.4 -4,38.4z"></path><path stroke-width="4" stroke="#000000" fill="none" d="M89.75,180c0,-19.19189 15.55811,-34.75 34.75,-34.75c19.1919,0 34.75,15.55811 34.75,34.75c0,19.1919 -15.5581,34.75 -34.75,34.75c-19.19189,0 -34.75,-15.55811 -34.75,-34.75z"></path></g><g><path stroke-width="0" stroke="none" fill="#b2b1b1" d="M167.0625,180.04166c0,-18.77768 15.22232,-34 34,-34c18.77768,0 34,15.22232 34,34c0,18.77768 -15.22232,34 -34,34c-18.77768,0 -34,-15.22232 -34,-34z"></path><path stroke-width="0" stroke="none" fill="#f0eeee" d="M173.975,199.74166c0,0 -14.34575,-22.36543 1.5,-43.1c9.63468,-12.60722 32,-9.3 32,-9.3c0,0 -20.18966,0.27477 -29.5,14c-12.13933,17.89569 -4,38.4 -4,38.4z"></path><path stroke-width="4" stroke="#000000" fill="none" d="M166.75,180c0,-19.19189 15.5581,-34.75 34.75,-34.75c19.19189,0 34.75,15.55811 34.75,34.75c0,19.1919 -15.55811,34.75 -34.75,34.75c-19.1919,0 -34.75,-15.55811 -34.75,-34.75z"></path></g><g><path stroke-width="0" stroke="none" fill="#b2b1b1" d="M244.0625,180.04166c0,-18.77768 15.22232,-34 34,-34c18.77768,0 34,15.22232 34,34c0,18.77768 -15.22232,34 -34,34c-18.77768,0 -34,-15.22232 -34,-34z"></path><path stroke-width="0" stroke="none" fill="#f0eeee" d="M250.975,199.74166c0,0 -14.34575,-22.36543 1.5,-43.1c9.63468,-12.60722 32,-9.3 32,-9.3c0,0 -20.18965,0.27477 -29.5,14c-12.13933,17.89569 -4,38.4 -4,38.4z"></path><path stroke-width="4" stroke="#000000" fill="none" d="M243.75,180c0,-19.19189 15.55811,-34.75 34.75,-34.75c19.19189,0 34.75,15.55811 34.75,34.75c0,19.1919 -15.55811,34.75 -34.75,34.75c-19.19189,0 -34.75,-15.55811 -34.75,-34.75z"></path></g><g><path stroke-width="0" stroke="none" fill="#b2b1b1" d="M321.0625,180.04166c0,-18.77768 15.22232,-34 34,-34c18.77768,0 34,15.22232 34,34c0,18.77768 -15.22232,34 -34,34c-18.77768,0 -34,-15.22232 -34,-34z"></path><path stroke-width="0" stroke="none" fill="#f0eeee" d="M327.975,199.74166c0,0 -14.34575,-22.36543 1.5,-43.1c9.63468,-12.60722 32,-9.3 32,-9.3c0,0 -20.18966,0.27477 -29.5,14c-12.13933,17.89569 -4,38.4 -4,38.4z"></path><path stroke-width="4" stroke="#000000" fill="none" d="M320.75,180c0,-19.19189 15.55811,-34.75 34.75,-34.75c19.19189,0 34.75,15.55811 34.75,34.75c0,19.1919 -15.55811,34.75 -34.75,34.75c-19.19189,0 -34.75,-15.55811 -34.75,-34.75z"></path></g></g></g></g></svg>