<svg version="1.1" xmlns="http://www.w3.org/2000/svg" xmlns:xlink="http://www.w3.org/1999/xlink" width="43.88791" height="45.92834" viewBox="0,0,43.88791,45.92834"><g transform="translate(-218.05476,-112.39767)"><g data-paper-data="{&quot;isPaintingLayer&quot;:true}" fill-rule="nonzero" stroke-linecap="butt" stroke-linejoin="miter" stroke-miterlimit="10" stroke-dasharray="" stroke-dashoffset="0" style="mix-blend-mode: normal"><path d="M220.06062,157.10399v-21.66642c0,0 0.98418,-21.00905 18.52636,-20.41039c21.69033,0.74023 21.98042,20.41039 21.98042,20.41039v21.66642z" fill="#d300ff" stroke="none" stroke-width="0"/><path d="M218.80459,137.84496l6.59413,-16.64232c0,0 9.5272,-6.3144 14.44162,-6.63491c4.70607,-0.30692 14.44694,4.75087 14.44694,4.75087l6.28012,18.52636c0,0 -5.15445,-16.65727 -20.41039,-16.95633c-14.97797,-0.29361 -21.35241,16.95633 -21.35241,16.95633z" fill="#f0eeee" stroke="none" stroke-width="0"/><path d="M220.06062,156.16197v-21.35241c0,0 -0.89582,-20.61412 19.46837,-20.41039c21.16109,0.2117 20.41039,20.41039 20.41039,20.41039v21.35241z" fill="none" stroke="#000000" stroke-width="4"/><path d="M222.03105,158.32601v-6.17441h35.88875v6.17441z" fill="#d300ff" stroke="none" stroke-width="0"/></g></g></svg>