<svg version="1.1" xmlns="http://www.w3.org/2000/svg" xmlns:xlink="http://www.w3.org/1999/xlink" width="362.40156" height="167.0719" viewBox="0,0,362.40156,167.0719"><g transform="translate(-148.97302,-186.67053)"><g data-paper-data="{&quot;isPaintingLayer&quot;:true}" fill-rule="nonzero" stroke-linecap="butt" stroke-linejoin="miter" stroke-miterlimit="10" stroke-dasharray="" stroke-dashoffset="0" style="mix-blend-mode: normal"><path d="M507.13751,304.5426l-237.65304,-12.84621l2.13204,-39.44241l237.65304,12.84621z" fill="#d4d4d4" stroke="#000000" stroke-width="4"/><path d="M228.17071,353.45624c-45.37471,-2.4527 -80.16985,-41.22448 -77.71715,-86.5992c2.4527,-45.37471 41.22448,-80.16983 86.59918,-77.71714c45.37471,2.4527 80.16983,41.22448 77.71714,86.59918c-2.4527,45.37471 -41.22446,80.16985 -86.59917,77.71714z" fill="#ff0000" stroke="none" stroke-width="0"/><path d="M275.16975,340.96637c0,0 -54.05856,27.13896 -100.66492,-12.64111c-28.33804,-24.18742 -21.41117,-76.4043 -21.41117,-76.4043c0,0 1.74728,47.56979 32.74769,71.13843c40.42002,30.73011 89.32837,17.90697 89.32837,17.90697z" fill="#f0eeee" stroke="none" stroke-width="0"/><path d="M228.1654,351.74242c-44.99761,-2.43233 -79.50363,-40.8819 -77.07129,-85.87952c2.43233,-44.99761 40.8819,-79.50363 85.87952,-77.07129c44.99761,2.43233 79.50363,40.8819 77.07129,85.87952c-2.43233,44.99761 -40.8819,79.50363 -85.87952,77.07129z" fill="none" stroke="#000000" stroke-width="4"/><path d="M248.62656,324.16792c-2.36277,-3.53267 1.1699,-5.89543 1.1699,-5.89543l2.75882,-1.76017c3.60988,-0.87938 8.06316,-1.16785 11.47499,-2.78317c2.96827,-1.40531 4.37893,-3.56964 7.72676,-4.81145c0.89621,-0.33242 4.86656,-1.21082 5.84832,-1.77974c3.28529,-1.90372 5.7771,-6.72215 7.75145,-9.72421c4.73499,-7.1998 9.22574,-14.08048 9.66557,-22.8639c0.40666,-6.83004 -2.716,-12.88811 -4.70471,-19.32028c-4.18732,-13.54313 -10.78278,-28.09744 -24.19583,-34.85455c-1.79777,-0.90568 -5.03671,-0.48664 -6.94575,-0.58983c0,0 -4.24381,-0.22938 -4.01441,-4.47321c0.22938,-4.24381 4.47321,-4.01441 4.47321,-4.01441c3.29872,0.1783 6.87604,-0.05357 9.97551,1.3263c15.82902,7.04703 24.03248,24.67538 28.83484,40.11709c2.3572,7.57942 5.46416,14.23562 5.0648,22.26767c-0.59694,10.40086 -5.44333,18.56038 -11.06093,27.09019c-2.75618,4.185 -6.00582,9.65834 -10.46521,12.32466c-2.95962,1.76957 -6.74148,1.57329 -9.59599,3.41553c-1.62107,1.04619 -2.86956,2.65931 -4.59923,3.51411c-3.6699,1.81369 -7.91961,2.16707 -11.86931,2.9652l-1.39728,1.01954c0,0 -3.53267,2.36277 -5.89543,-1.1699z" fill="#000000" stroke="none" stroke-width="0.5"/><path d="M244.72294,295.61558c-5.2127,-0.28177 -10.42538,-0.56354 -15.63812,-0.84529c0,0 -0.70122,-0.0379 -1.51818,-0.36794c-12.91425,6.27724 -26.1326,11.89029 -38.8387,18.61057l-2.3994,-6.1615l-1.57402,-1.3526c0.28947,-0.15305 0.57919,-0.30552 0.86916,-0.45745l-0.14228,-0.36539c0,0 1.36846,-1.22809 3.11293,-1.16861c13.86864,-7.06195 28.23308,-13.05265 42.08706,-20.15571c4.31427,-1.87102 8.52126,-3.99138 12.6641,-6.21636c2.06954,-1.11147 4.16773,-2.1692 6.26979,-3.21787c0.36918,-0.1842 0.72685,-0.42584 1.08842,-0.65388c-1.07781,-0.85871 -2.07404,-1.83335 -2.92207,-2.91518c-2.4877,-3.17354 -3.13638,-5.83413 -5.8282,-8.60583c-6.63478,-6.83165 -14.75812,-11.69913 -21.78867,-17.96291c-3.46429,-3.08645 -6.22304,-6.98072 -9.98115,-9.70177c-1.03895,-0.75223 -2.37948,-0.999 -3.44759,-1.70922c-0.73742,-0.49034 -1.11552,-1.45151 -1.90602,-1.85064c-0.72045,-0.36379 -1.59971,-0.21554 -2.39956,-0.3233c0,0 -4.16872,-0.82726 -3.34145,-4.99596c0.82726,-4.16872 4.99596,-3.34145 4.99596,-3.34145c6.71375,1.55856 12.63777,6.21276 17.63606,10.98156c1.4894,1.42103 2.57826,3.23469 4.11253,4.60716c2.79774,2.50271 5.82241,4.78124 8.85554,7.05758c0.07542,-0.00008 0.11715,0.00216 0.11715,0.00216c5.34914,0.28915 10.74395,0.59334 15.96607,-0.59801l0.01208,0.45621c0.19147,-0.07911 0.38137,-0.1422 0.56399,-0.19245l0.01475,-0.27293l3.99416,0.2159c2.34379,0.12669 4.1411,2.12942 4.01441,4.47321c-0.12669,2.34379 -2.12942,4.1411 -4.47321,4.01441l-3.5505,-0.19192c-1.95544,0.43579 -3.94436,0.67466 -5.94868,0.78786c2.18514,2.08012 4.20557,4.33178 5.94941,6.86869c1.09108,1.58731 1.84088,3.40486 3.02914,4.92079c2.32273,2.96323 6.54056,4.39555 6.61755,9.11616c0.07017,4.30338 -4.77228,5.96364 -7.53359,7.39361c-3.57417,1.85082 -7.073,3.7167 -10.61855,5.50431c2.39015,0.12919 4.78031,0.2584 7.17047,0.38759l2.99562,0.16193c2.34379,0.12669 4.1411,2.12942 4.01441,4.47321c-0.12669,2.34379 -2.12942,4.1411 -4.47321,4.01441l-2.99562,-0.16193l-0.12894,0.54516c0,0 -2.81855,1.22384 -4.70306,-0.80635z" fill="#000000" stroke="none" stroke-width="0.5"/></g></g></svg>