<svg version="1.1" xmlns="http://www.w3.org/2000/svg" xmlns:xlink="http://www.w3.org/1999/xlink" width="70.1102" height="64.67176" viewBox="0,0,70.1102,64.67176"><g transform="translate(-210.46828,-145.28205)"><g data-paper-data="{&quot;isPaintingLayer&quot;:true}" fill-rule="nonzero" stroke="none" stroke-width="0" stroke-linecap="butt" stroke-linejoin="miter" stroke-miterlimit="10" stroke-dasharray="" stroke-dashoffset="0" style="mix-blend-mode: normal"><path d="M229.34334,200.86543c2.63973,0.90895 6.29463,-0.2935 7.46876,2.40904c1.17413,2.70254 -3.52026,6.67934 -3.52026,6.67934c0,0 -3.91622,-0.12815 -6.41242,-0.98768c-2.31463,-0.79701 -8.06125,-3.9961 -8.06125,-3.9961c0,0 -1.70784,-1.58307 -1.03752,-2.13702c0.34143,-0.28215 4.79006,-0.96405 4.79006,-0.96405c0,0 5.28434,-1.516 6.77264,-1.00353z" data-paper-data="{&quot;index&quot;:null}" fill="#ff0000"/><path d="M232.03846,150.58975c0,0 -3.98424,-2.09311 -4.21521,-2.47105c-0.45345,-0.74201 1.67675,-1.6828 1.67675,-1.6828c0,0 6.47507,-1.15385 8.92308,-1.15385c2.64004,0 6.38461,1.15385 6.38461,1.15385c0,0 3.14389,5.2885 1.15385,7.46153c-1.99004,2.17303 -5.05432,-0.15384 -7.84616,-0.15384c-1.57406,0 -6.07693,-3.15385 -6.07693,-3.15385z" fill="#ff0000"/><path d="M210.83961,174.5502c-0.83548,-2.2719 0,-16.86677 0,-16.86677c0,0 2.83035,-3.99519 5.05039,-4.30454c2.20512,-0.30727 8.22539,2.45464 8.22539,2.45464c0,0 -0.73246,8.43379 -1.91271,11.55693c-1.17746,3.11573 -5.16045,7.15974 -5.16045,7.15974c0,0 -5.36714,2.2719 -6.20262,0z" fill="#ff0000"/><path d="M258.60598,192.97814c-0.16014,-2.9211 5.97779,-19.4882 5.97779,-19.4882c0,0 4.68618,-3.61301 7.36089,-3.18363c2.65674,0.42649 8.63383,5.75132 8.63383,5.75132c0,0 -3.83533,9.48497 -6.3059,12.67521c-2.4647,3.18267 -8.49998,6.44359 -8.49998,6.44359c0,0 -7.00649,0.72282 -7.16663,-2.19828z" fill="#ff0000"/><path d="M255.13989,156.458c3.73075,2.23828 5.08208,4.32017 9.42013,7.92969c4.72355,3.93031 2.84528,5.47078 3.39661,9.83231c0.77193,6.10679 -6.56091,20.13887 -9.97329,25.82665c-2.59854,4.33123 -15.40073,1.28317 -19.49485,3.62271c-8.64863,4.94218 -14.55889,1.02019 -23.70843,-4.46911c-5.80655,-3.48366 -1.0576,1.51077 -3.21649,-4.38878c-1.57618,-4.30719 2.38503,-7.93462 3.09791,-14.09155c0.57761,-4.98865 -2.48343,-12.58915 -0.42265,-16.02406c3.13399,-5.22373 13.20642,-4.91139 18.20586,-6.70288c2.82786,-1.01333 0.52774,-4.63531 3.09902,-5.52609c0.18432,-0.06386 5.21564,2.63932 5.40161,2.57155c4.46976,-1.6288 4.95019,-2.71146 10.04072,0.34261z" fill="#ffa900"/><path d="M238.85019,158.8153c3.3085,0.37896 7.20876,2.8549 11.37454,3.99729c4.53597,1.24391 6.81361,-3.67117 8.57844,-0.80605c2.47101,4.01156 1.30923,16.13456 0.73146,21.17858c-0.43996,3.84102 -4.98022,5.26973 -7.09292,8.19611c-4.463,6.18189 -14.42819,10.28519 -22.54219,9.35581c-5.14938,-0.58982 -6.02394,-5.86483 -9.39592,-9.29293c-4.45656,-4.53074 -2.22144,-9.34099 -1.44191,-16.14663c0.83075,-7.25281 6.40232,-4.15817 10.58188,-8.12932c2.70973,-2.57462 2.81214,-10.19917 7.51436,-9.66056z" fill="#fffe00"/></g></g></svg>