<svg version="1.1" xmlns="http://www.w3.org/2000/svg" xmlns:xlink="http://www.w3.org/1999/xlink" width="38.20129" height="66.833" viewBox="0,0,38.20129,66.833"><g transform="translate(-203.71412,-141.80906)"><g data-paper-data="{&quot;isPaintingLayer&quot;:true}" fill="#ffffff" fill-rule="nonzero" stroke="none" stroke-width="0" stroke-linecap="butt" stroke-linejoin="miter" stroke-miterlimit="10" stroke-dasharray="" stroke-dashoffset="0" style="mix-blend-mode: normal"><path d="M205.54095,197.53261c0,0 3.69699,-2.60561 5.09524,-4.58786c1.3388,-1.89796 3.12369,-7.06374 3.12369,-7.06374c0,0 1.67033,5.47126 3.11942,7.4731c1.46041,2.01746 5.60932,4.5851 5.60932,4.5851c0,0 -4.22974,1.9776 -5.67805,3.83958c-1.31352,1.68865 -2.64704,6.86326 -2.64704,6.86326c0,0 -1.9629,-5.72674 -3.41894,-7.60274c-1.4171,-1.82582 -5.20366,-3.50674 -5.20366,-3.50674z"/><path d="M203.7142,168.07256c0,0 8.33327,-5.8732 11.485,-10.34134c3.01774,-4.27812 7.04101,-15.92216 7.04101,-15.92216c0,0 3.76507,12.33261 7.0314,16.84491c3.29185,4.54752 12.64379,10.33514 12.64379,10.33514c0,0 -9.53414,4.45765 -12.79872,8.65465c-2.96076,3.80633 -5.9666,15.47028 -5.9666,15.47028c0,0 -4.4245,-12.90849 -7.70655,-17.13712c-3.19427,-4.11551 -11.72942,-7.90443 -11.72942,-7.90443z"/></g></g></svg>