<svg version="1.1" xmlns="http://www.w3.org/2000/svg" xmlns:xlink="http://www.w3.org/1999/xlink" width="84.57008" height="82.00839" viewBox="0,0,84.57008,82.00839"><g transform="translate(-187.54093,-150.60798)"><g data-paper-data="{&quot;isPaintingLayer&quot;:true}" fill="#ffffff" fill-rule="nonzero" stroke="none" stroke-width="0" stroke-linecap="butt" stroke-linejoin="miter" stroke-miterlimit="10" stroke-dasharray="" stroke-dashoffset="0" style="mix-blend-mode: normal"><path d="M242.66182,170.85439c0,0 6.42405,-4.52764 8.85378,-7.97208c2.32639,-3.29796 5.42788,-12.27433 5.42788,-12.27433c0,0 2.90247,9.50718 5.42048,12.98568c2.53769,3.50564 9.74705,7.96729 9.74705,7.96729c0,0 -7.34978,3.43636 -9.86647,6.67187c-2.28241,2.93432 -4.59962,11.92597 -4.59962,11.92597c0,0 -3.41084,-9.95107 -5.94092,-13.21089c-2.46242,-3.17262 -9.04217,-6.09348 -9.04217,-6.09348z"/><path d="M187.54101,197.90842c0,0 11.55006,-8.14039 15.91846,-14.33331c4.18265,-5.92957 9.75897,-22.06841 9.75897,-22.06841c0,0 5.21843,17.09322 9.74564,23.34734c4.56258,6.30293 17.52453,14.3247 17.52453,14.3247c0,0 -13.21447,6.17838 -17.73926,11.99554c-4.10367,5.27565 -8.26984,21.44209 -8.26984,21.44209c0,0 -6.13245,-17.8914 -10.68141,-23.75236c-4.42729,-5.70419 -16.25718,-10.95569 -16.25718,-10.95569z"/><path d="M216.71415,167.65669c0,0 2.6616,-1.87587 3.66825,-3.30297c0.96385,-1.36641 2.24886,-5.08545 2.24886,-5.08545c0,0 1.20254,3.93897 2.24579,5.38017c1.0514,1.45245 4.03836,3.30099 4.03836,3.30099c0,0 -3.04515,1.42375 -4.08784,2.76425c-0.94565,1.21572 -1.9057,4.94112 -1.9057,4.94112c0,0 -1.41316,-4.1229 -2.46143,-5.4735c-1.02023,-1.31447 -3.74631,-2.52463 -3.74631,-2.52463z"/></g></g></svg>