<svg version="1.1" xmlns="http://www.w3.org/2000/svg" xmlns:xlink="http://www.w3.org/1999/xlink" width="39.41689" height="38.77005" viewBox="0,0,39.41689,38.77005"><g transform="translate(-221.54892,-160.80862)"><g data-paper-data="{&quot;isPaintingLayer&quot;:true}" fill-rule="nonzero" stroke="none" stroke-width="0" stroke-linecap="butt" stroke-linejoin="miter" stroke-miterlimit="10" stroke-dasharray="" stroke-dashoffset="0" style="mix-blend-mode: normal"><path d="M250.61533,163.23261c2.02057,2.27851 2.19535,5.94989 4.33324,9.27162c2.32787,3.6169 6.51674,6.91257 5.96823,9.94058c-0.76798,4.23966 -8.8082,13.52687 -12.28194,16.60739c-2.64526,2.34581 -13.93543,-3.94918 -17.1607,-3.24751c-6.81323,1.48223 -3.65664,-0.8374 -8.61206,-6.42539c-3.14485,-3.54629 0.37294,-6.1288 0.17132,-10.52158c-0.26648,-5.80567 -2.54229,-7.89798 2.14465,-12.05436c4.9949,-4.42948 9.82037,-5.65428 15.09054,-5.80481c3.41681,-0.09761 7.47496,-1.00428 10.34671,2.23406z" fill="#ff0000"/><path d="M227.19898,168.84361c1.96873,-1.46256 4.92651,-1.34724 7.74038,-2.83131c3.06394,-1.61595 5.99965,-4.74736 8.3909,-4.09653c3.3481,0.91126 5.35987,8.69995 7.58965,11.7014c1.69797,2.28561 0.74147,10.21427 1.07995,12.8508c0.71502,5.56954 -2.39173,7.18785 -7.21998,10.77473c-3.06414,2.27633 -3.42593,-5.03814 -6.96436,-5.18212c-4.67654,-0.19029 -6.51364,1.49001 -9.52216,-2.55969c-3.20619,-4.3158 -3.853,-8.2726 -3.60697,-12.51143c0.15951,-2.74816 -0.28548,-6.06719 2.51258,-8.14586z" fill="#ffa900"/><path d="M227.38282,176.08603c0.90908,-1.64245 3.00689,-2.49834 4.49816,-4.42329c1.62379,-2.09601 2.67851,-5.20761 4.55102,-5.51097c2.62179,-0.42474 6.48923,4.3665 8.99325,5.75245c1.90681,1.0554 3.74994,6.88377 4.82038,8.61406c2.26127,3.65517 0.6084,5.76638 -1.62109,9.79445c-1.4149,2.55633 -3.98234,-2.42672 -6.49389,-1.40702c-3.31938,1.34768 -4.0678,3.10021 -7.44635,1.23022c-3.60054,-1.99286 -5.30379,-4.54567 -6.47407,-7.57765c-0.75873,-1.96572 -2.11944,-4.13794 -0.82741,-6.47228z" fill="#fffe00"/></g></g></svg>