<svg version="1.1" xmlns="http://www.w3.org/2000/svg" xmlns:xlink="http://www.w3.org/1999/xlink" width="361.91665" height="167.20992" viewBox="0,0,361.91665,167.20992"><g transform="translate(-364.40165,-175.54546)"><g data-paper-data="{&quot;isPaintingLayer&quot;:true}" fill-rule="nonzero" stroke-linecap="butt" stroke-linejoin="miter" stroke-miterlimit="10" stroke-dasharray="" stroke-dashoffset="0" style="mix-blend-mode: normal"><g><path d="M718.38543,317.95262l-235.53818,-34.14329l5.66664,-39.09142l235.53818,34.14329z" fill="#d4d4d4" stroke="#000000" stroke-width="4"/><path d="M436.1525,341.60813c-44.97091,-6.51892 -76.14241,-48.25969 -69.62349,-93.2306c6.51892,-44.97091 48.25968,-76.1424 93.23059,-69.62348c44.97091,6.51892 76.1424,48.25968 69.62348,93.23059c-6.51892,44.97091 -48.25967,76.14241 -93.23058,69.62348z" fill="#ff0000" stroke="none" stroke-width="0"/><path d="M484.08351,333.39083c0,0 -56.27796,22.17301 -99.12234,-21.633c-26.05063,-26.63532 -14.46099,-78.01882 -14.46099,-78.01882c0,0 -2.53311,47.53441 26.22474,73.79263c37.49603,34.23691 87.35859,25.85918 87.35859,25.85918z" fill="#f0eeee" stroke="none" stroke-width="0"/><path d="M436.30115,339.90078c-44.59719,-6.46475 -75.50965,-47.85864 -69.04491,-92.45583c6.46475,-44.59719 47.85864,-75.50965 92.45583,-69.04491c44.59719,6.46475 75.50965,47.85864 69.04491,92.45583c-6.46475,44.59719 -47.85864,75.50965 -92.45583,69.04491z" fill="none" stroke="#000000" stroke-width="4"/><path d="M459.15668,314.27584c-2.03586,-3.73065 1.69479,-5.76651 1.69479,-5.76651l2.90579,-1.50523c3.67427,-0.55155 8.13546,-0.4388 11.67861,-1.74109c3.08251,-1.13298 4.6819,-3.16183 8.12773,-4.09788c0.92245,-0.25058 4.95565,-0.76875 5.98455,-1.24716c3.44301,-1.6009 6.35763,-6.176 8.59366,-8.98857c5.36263,-6.74532 10.45333,-13.19478 11.68043,-21.90318c1.01857,-6.7659 -1.54724,-13.07999 -2.95011,-19.66481c-2.95377,-13.86455 -8.21512,-28.9525 -20.96692,-36.8872c-1.70916,-1.06351 -4.97263,-0.93713 -6.86468,-1.2114c0,0 -4.20604,-0.6097 -3.59634,-4.81574c0.6097,-4.20604 4.81574,-3.59634 4.81574,-3.59634c3.26938,0.47392 6.85305,0.56434 9.81602,2.21706c15.13197,8.4405 21.71865,26.73451 25.11442,42.54522c1.66678,7.76052 4.16323,14.66892 3.04394,22.63261c-1.52887,10.30518 -7.08866,17.99635 -13.4498,25.98703c-3.12098,3.92049 -6.84916,9.07979 -11.53005,11.33472c-3.10662,1.49655 -6.85555,0.96132 -9.86402,2.53968c-1.7085,0.89634 -3.09685,2.39076 -4.89631,3.08673c-3.81799,1.47667 -8.08226,1.44686 -12.0877,1.88695l-1.48322,0.8899c0,0 -3.73065,2.03586 -5.76651,-1.69479z" fill="#000000" stroke="none" stroke-width="0.5"/><path d="M457.83378,285.48829c-5.16631,-0.7489 -10.33262,-1.4978 -15.49894,-2.2467c0,0 -0.69499,-0.10074 -1.47899,-0.50284c-13.42593,5.09174 -27.09508,9.49466 -40.35351,15.04635l-1.83619,-6.35213l-1.44615,-1.48854c0.30204,-0.12642 0.60429,-0.25225 0.90674,-0.37752l-0.10889,-0.37669c0,0 1.47324,-1.1002 3.20532,-0.88425c14.44695,-5.78754 29.2915,-10.46363 43.72754,-16.29341c4.4649,-1.47589 8.84536,-3.20976 13.17132,-5.05359c2.16101,-0.92107 4.34575,-1.78603 6.53351,-2.64162c0.38423,-0.15027 0.76215,-0.35883 1.14276,-0.55345c-0.99631,-0.95206 -1.90096,-2.01225 -2.64837,-3.16588c-2.19255,-3.38418 -2.5996,-6.09229 -5.03155,-9.0946c-5.99424,-7.40006 -13.64748,-12.97759 -20.08693,-19.84762c-3.17302,-3.38518 -5.57078,-7.51153 -9.06925,-10.55917c-0.96717,-0.84252 -2.28012,-1.20871 -3.2801,-2.01201c-0.69038,-0.5546 -0.98062,-1.54584 -1.73207,-2.01438c-0.68486,-0.42702 -1.57387,-0.35837 -2.36081,-0.53756c0,0 -4.07755,-1.1984 -2.87914,-5.27594c1.1984,-4.07755 5.27594,-2.87914 5.27594,-2.87914c6.5466,2.15536 12.02857,7.32293 16.57825,12.52146c1.35573,1.54908 2.27726,3.45322 3.68203,4.95797c2.56161,2.74391 5.36935,5.28494 8.18572,7.82457c0.07512,0.0067 0.11648,0.01269 0.11648,0.01269c5.30154,0.7685 10.6472,1.55611 15.95524,0.83868l-0.02894,0.45543c0.19782,-0.06159 0.3926,-0.10736 0.57901,-0.14101l0.03921,-0.27051l3.95862,0.57384c2.32293,0.33673 3.93307,2.49281 3.59634,4.81574c-0.33673,2.32293 -2.49281,3.93307 -4.81574,3.59634l-3.5189,-0.51009c-1.98668,0.25836 -3.98902,0.3176 -5.9954,0.25029c1.98944,2.26801 3.79944,4.69205 5.30832,7.37536c0.94407,1.6789 1.52758,3.55646 2.57486,5.173c2.04714,3.1599 6.11926,4.96533 5.77186,9.67378c-0.31669,4.29229 -5.28871,5.51084 -8.16734,6.68694c-3.72596,1.52227 -7.37826,3.06629 -11.07009,4.52815c2.36889,0.34339 4.73777,0.68678 7.10666,1.03017l2.96897,0.43038c2.32293,0.33673 3.93307,2.49281 3.59634,4.81574c-0.33673,2.32293 -2.49281,3.93307 -4.81574,3.59634l-2.96897,-0.43038l-0.1774,0.53137c0,0 -2.91709,0.9657 -4.6116,-1.22557z" fill="#000000" stroke="none" stroke-width="0.5"/></g></g></g></svg>