<svg version="1.1" xmlns="http://www.w3.org/2000/svg" xmlns:xlink="http://www.w3.org/1999/xlink" width="104.87449" height="122.32942" viewBox="0,0,104.87449,122.32942"><g transform="translate(-167.52607,-105.80048)"><g data-paper-data="{&quot;isPaintingLayer&quot;:true}" fill="#ff0000" fill-rule="nonzero" stroke="none" stroke-width="0.5" stroke-linecap="butt" stroke-linejoin="miter" stroke-miterlimit="10" stroke-dasharray="" stroke-dashoffset="0" style="mix-blend-mode: normal"><path d="M264.07736,213.04991c5.87503,1.65668 12.75051,8.70127 4.55758,13.72325c-2.01936,1.2378 -5.48303,1.47305 -6.89159,-0.82758c-0.4517,-0.73778 -1.43804,0.97451 -2.22073,1.343c-1.86689,0.87893 -3.76426,1.02953 -5.78618,0.63547c-5.03086,-0.98052 -5.61549,-6.9762 -2.9205,-10.22283c2.91275,-3.50897 8.55372,-5.29989 12.9967,-4.49558z"/><path d="M230.84699,118.03474c-0.10961,-0.12579 -0.1998,-0.26361 -0.27341,-0.41082c-0.6824,-1.11412 -0.70579,-2.51557 -0.07493,-3.64842c0.06115,-0.50328 0.07647,-0.89316 -0.07041,-1.06181c-1.03721,-1.19061 -2.38279,-2.85848 -1.87058,-4.35214c0.39442,-1.1502 1.67969,-1.81252 2.73933,-2.40891c5.49117,-3.09048 18.46765,15.28761 5.5825,11.24465c-0.1717,0.33224 -0.39822,0.64332 -0.67943,0.91973c-0.9703,0.95375 -2.34177,1.24926 -3.56069,0.89129c-0.56674,-0.0776 -1.12484,-0.40747 -1.79233,-1.1736z"/><path d="M183.91087,155.08755c-0.14603,1.67219 -3.06697,2.71937 -2.57867,4.32532c1.17724,3.87161 2.53963,8.18658 1.14882,12.20669c-0.60588,1.75134 -2.88776,6.42395 -5.63512,5.84331c-6.30953,-1.33349 -0.78483,-9.04035 -1.52541,-12.97103c-0.23565,-1.25078 -2.88675,0.40584 -4.37627,-0.01418c-3.41641,-0.96338 -3.90263,-7.09221 -3.05409,-9.79656c1.18817,-3.78676 8.53306,-8.12448 12.1654,-8.48789c0.19079,-0.01908 0.39883,-0.01036 0.61705,0.02337c0.84114,0.06492 1.66347,0.42256 2.30133,1.07149c0.04639,0.04718 0.0912,0.09532 0.13447,0.14434c1.15508,1.03087 1.78853,2.55778 0.51529,4.02669c-0.17336,0.34279 -0.40465,0.66359 -0.69378,0.94779c-0.00823,0.00809 -0.0165,0.01613 -0.02478,0.02415c-0.56426,0.5884 1.07976,1.80914 1.00575,2.65657z"/><path d="M207.86855,202.63489c9.47447,7.53402 5.38366,15.00251 -4.25036,5.96808c-0.48481,-0.45464 -1.31824,-0.49501 -2.2385,-0.52051c-1.02796,0.26359 -2.14829,0.06861 -3.03731,-0.58215c-0.17708,-0.10955 -0.34384,-0.2408 -0.49732,-0.39819c-0.10631,-0.10905 -0.19259,-0.22633 -0.26182,-0.35071c-0.99651,-1.3225 -0.96528,-3.16893 0.08437,-4.4576c-0.18852,-1.87179 -11.47137,-13.36653 -0.90601,-12.6884c4.92683,0.31623 8.27721,9.99197 10.95207,12.87828z"/></g></g></svg>