<svg version="1.1" xmlns="http://www.w3.org/2000/svg" xmlns:xlink="http://www.w3.org/1999/xlink" width="486.10013" height="414.42574" viewBox="0,0,486.10013,414.42574"><defs><linearGradient x1="312.62161" y1="188.37273" x2="483.79279" y2="188.37273" gradientUnits="userSpaceOnUse" id="color-1"><stop offset="0" stop-color="#fec400" stop-opacity="0"/><stop offset="1" stop-color="#fec400"/></linearGradient><linearGradient x1="-2.30735" y1="183.8569" x2="168.86382" y2="183.8569" gradientUnits="userSpaceOnUse" id="color-2"><stop offset="0" stop-color="#ffc500"/><stop offset="1" stop-color="#ffc500" stop-opacity="0"/></linearGradient></defs><g transform="translate(2.30735,21.09806)"><g data-paper-data="{&quot;isPaintingLayer&quot;:true}" fill-rule="nonzero" stroke="none" stroke-width="0" stroke-linecap="butt" stroke-linejoin="miter" stroke-miterlimit="10" stroke-dasharray="" stroke-dashoffset="0" style="mix-blend-mode: normal"><path d="M312.62161,393.32768v-409.90991h171.17117v409.90991z" fill="url(#color-1)"/><path d="M-2.30735,388.81185v-409.90991h171.17117v409.90991z" data-paper-data="{&quot;index&quot;:null}" fill="url(#color-2)"/><path d="M345.62327,55.87039c0,0 10.17321,-7.17002 14.02087,-12.62466c3.68408,-5.22273 8.59567,-19.43768 8.59567,-19.43768c0,0 4.59636,15.05565 8.58391,20.56419c4.01867,5.55153 15.43549,12.61703 15.43549,12.61703c0,0 -11.63915,5.44187 -15.62458,10.5656c-3.61447,4.64681 -7.28402,18.88602 -7.28402,18.88602c0,0 -5.40144,-15.75862 -9.40811,-20.92085c-3.89954,-5.0242 -14.31923,-9.64965 -14.31923,-9.64965z" fill="#ffffff"/><path d="M397.66231,75.63325c0,0 6.24274,-4.39985 8.60384,-7.74706c2.26072,-3.2049 5.27469,-11.92784 5.27469,-11.92784c0,0 2.82053,9.23882 5.26748,12.61911c2.46604,3.40667 9.47192,7.74238 9.47192,7.74238c0,0 -7.14231,3.33938 -9.58795,6.48353c-2.218,2.85149 -4.4698,11.58932 -4.4698,11.58932c0,0 -3.31457,-9.6702 -5.77324,-12.83798c-2.39293,-3.08307 -8.78693,-5.92146 -8.78693,-5.92146z" fill="#ffffff"/><path d="M54.62327,183.87039c0,0 10.1732,-7.17002 14.02087,-12.62466c3.68408,-5.22273 8.59567,-19.43768 8.59567,-19.43768c0,0 4.59636,15.05564 8.58391,20.56419c4.01867,5.55153 15.4355,12.61703 15.4355,12.61703c0,0 -11.63915,5.44187 -15.62458,10.5656c-3.61446,4.64681 -7.28402,18.88602 -7.28402,18.88602c0,0 -5.40144,-15.75862 -9.40811,-20.92085c-3.89954,-5.0242 -14.31923,-9.64965 -14.31923,-9.64965z" fill="#ffffff"/><path d="M126.62327,324.87039c0,0 10.1732,-7.17002 14.02087,-12.62465c3.68408,-5.22273 8.59567,-19.43768 8.59567,-19.43768c0,0 4.59636,15.05564 8.58391,20.56419c4.01868,5.55153 15.4355,12.61703 15.4355,12.61703c0,0 -11.63915,5.44187 -15.62458,10.5656c-3.61446,4.64681 -7.28402,18.88603 -7.28402,18.88603c0,0 -5.40144,-15.75862 -9.40811,-20.92085c-3.89954,-5.0242 -14.31923,-9.64966 -14.31923,-9.64966z" fill="#ffffff"/><path d="M228.62327,47.71045c0,0 7.9918,-5.63257 11.01441,-9.91759c2.89411,-4.10284 6.75253,-15.26972 6.75253,-15.26972c0,0 3.61077,11.82731 6.74329,16.15467c3.15696,4.36113 12.12571,9.9116 12.12571,9.9116c0,0 -9.1434,4.27499 -12.27425,8.30005c-2.83943,3.65041 -5.72213,14.83635 -5.72213,14.83635c0,0 -4.24323,-12.37955 -7.39076,-16.43486c-3.06337,-3.94687 -11.24881,-7.58051 -11.24881,-7.58051z" fill="#ffffff"/><path d="M374.62327,289.71044c0,0 7.9918,-5.63257 11.01442,-9.91759c2.89411,-4.10283 6.75252,-15.26972 6.75252,-15.26972c0,0 3.61077,11.82731 6.74329,16.15467c3.15696,4.36113 12.12571,9.9116 12.12571,9.9116c0,0 -9.1434,4.27498 -12.27425,8.30005c-2.83943,3.65041 -5.72213,14.83635 -5.72213,14.83635c0,0 -4.24323,-12.37955 -7.39076,-16.43486c-3.06338,-3.94687 -11.24881,-7.58051 -11.24881,-7.58051z" fill="#ffffff"/></g></g></svg>