<svg version="1.1" xmlns="http://www.w3.org/2000/svg" xmlns:xlink="http://www.w3.org/1999/xlink" width="70.8171" height="71.40304" viewBox="0,0,70.8171,71.40304"><g transform="translate(-206.08353,-144.40443)"><g data-paper-data="{&quot;isPaintingLayer&quot;:true}" fill-rule="nonzero" stroke="none" stroke-width="0" stroke-linecap="butt" stroke-linejoin="miter" stroke-miterlimit="10" stroke-dasharray="" stroke-dashoffset="0" style="mix-blend-mode: normal"><path d="M275.6513,185.6723c-2.36854,4.85541 -8.27035,7.62696 -12.27009,13.38085c-4.35516,6.26519 -6.92398,15.36451 -12.26037,16.51459c-7.47174,1.61031 -28.14235,-5.28752 -35.54479,-8.89851c-5.63696,-2.74978 -2.95653,-25.52346 -6.29011,-30.33715c-7.04198,-10.16868 -1.10187,-6.56273 4.70691,-18.47055c3.68641,-7.55703 10.30205,-3.53674 17.3686,-6.84059c9.33942,-4.3665 11.22989,-9.51442 21.21761,-4.6423c10.64398,5.19225 15.91844,12.27576 19.73238,20.81558c2.47272,5.5366 6.70617,11.57724 3.33987,18.47803z" fill="#ff0000"/><path d="M250.60142,151.07338c3.73075,2.23828 5.54362,7.16632 9.88167,10.77584c4.72355,3.93031 11.84528,6.62463 12.39661,10.98616c0.77193,6.10679 -10.63783,14.67733 -14.05021,20.36511c-2.59854,4.33123 -16.24688,8.12932 -20.341,10.46886c-8.64863,4.94218 -13.40504,0.94327 -22.55458,-4.54603c-5.80655,-3.48366 5.9424,-9.02769 3.78351,-14.92724c-2.85328,-7.7971 -6.85198,-9.67216 -2.24782,-17.34638c4.90668,-8.17846 10.95701,-11.9172 18.07411,-14.38282c4.61423,-1.59853 9.75538,-4.57468 15.05772,-1.39353z" fill="#ffa900"/><path d="M238.85018,156.27684c3.3085,0.37896 6.13184,3.23952 10.29762,4.38191c4.53597,1.24391 10.35207,0.86729 12.1169,3.73241c2.47101,4.01156 -2.76769,13.5961 -3.34546,18.64012c-0.43996,3.84102 -8.74945,10.80819 -10.86215,13.73457c-4.463,6.18189 -9.04357,4.90057 -17.15757,3.97119c-5.14938,-0.58982 1.28375,-8.17252 -2.08823,-11.60062c-4.45656,-4.53074 -7.83682,-4.57176 -7.05729,-11.3774c0.83075,-7.25281 3.86386,-11.77355 8.04342,-15.7447c2.70973,-2.57462 5.3506,-6.27609 10.05282,-5.73748z" fill="#fffe00"/></g></g></svg>