<svg version="1.1" xmlns="http://www.w3.org/2000/svg" xmlns:xlink="http://www.w3.org/1999/xlink" width="362.03415" height="167.16383" viewBox="0,0,362.03415,167.16383"><g transform="translate(-175.37076,-206.2541)"><g data-paper-data="{&quot;isPaintingLayer&quot;:true}" fill-rule="nonzero" stroke-linecap="butt" stroke-linejoin="miter" stroke-miterlimit="10" stroke-dasharray="" stroke-dashoffset="0" style="mix-blend-mode: normal"><g><path d="M535.35565,302.33854l-237.92595,5.93592l-0.98516,-39.48771l237.92595,-5.93592z" fill="#d4d4d4" stroke="#000000" stroke-width="4"/><path d="M261.11521,373.1001c-45.42681,1.13334 -83.17126,-34.77362 -84.3046,-80.20044c-1.13334,-45.42681 34.77362,-83.17124 80.20042,-84.30459c45.42681,-1.13334 83.17124,34.77362 84.30459,80.20042c1.13334,45.42681 -34.7736,83.17126 -80.20041,84.30459z" fill="#ff0000" stroke="none" stroke-width="0"/><path d="M306.98288,356.94263c0,0 -51.74992,31.31768 -101.34832,-4.66296c-30.15728,-21.87726 -27.36999,-74.47777 -27.36999,-74.47777c0,0 5.49335,47.28383 38.25592,68.33427c42.71761,27.44674 90.46236,10.80646 90.46236,10.80646z" fill="#f0eeee" stroke="none" stroke-width="0"/><path d="M260.97476,371.39204c-45.04929,1.12391 -82.48009,-34.48465 -83.604,-79.53394c-1.12391,-45.04929 34.48465,-82.48009 79.53394,-83.604c45.04929,-1.12391 82.48009,34.48465 83.604,79.53394c1.12391,45.04929 -34.48465,82.48009 -79.53394,83.604z" fill="none" stroke="#000000" stroke-width="4"/><path d="M279.19757,342.28979c-2.63401,-3.33534 0.70132,-5.96933 0.70132,-5.96933l2.61142,-1.97226c3.52928,-1.16133 7.94594,-1.8001 11.21976,-3.67946c2.8482,-1.63502 4.08378,-3.90386 7.32324,-5.40582c0.8672,-0.40207 4.75591,-1.59084 5.68975,-2.23541c3.12492,-2.15688 5.22898,-7.15682 6.96042,-10.30523c4.15245,-7.55079 8.08657,-14.76421 7.83234,-23.55495c-0.13325,-6.84084 -3.72394,-12.63378 -6.21372,-18.88907c-5.24234,-13.17073 -12.96506,-27.15957 -26.86922,-32.83783c-1.8636,-0.76107 -5.0594,-0.08791 -6.97064,-0.04023c0,0 -4.24868,0.10601 -4.35468,-4.14268c-0.10601,-4.24868 4.14268,-4.35468 4.14268,-4.35468c3.30252,-0.0824 6.8504,-0.59567 10.04903,0.53546c16.33548,5.77675 25.90361,22.70324 31.9088,37.71814c2.94759,7.36991 6.56981,13.76036 6.80512,21.79888c0.22517,10.41554 -3.96264,18.93185 -8.89006,27.87813c-2.41755,4.38933 -5.22542,10.10191 -9.46065,13.1116c-2.81085,1.99747 -6.5964,2.10005 -9.29674,4.16167c-1.53351,1.17078 -2.6509,2.87732 -4.30777,3.86587c-3.51544,2.09745 -7.72404,2.78489 -11.5985,3.89201l-1.31252,1.12656c0,0 -3.33534,2.63401 -5.96933,-0.70132z" fill="#000000" stroke="none" stroke-width="0.5"/><path d="M273.05438,314.13423c-5.21869,0.1302 -10.43735,0.2604 -15.65607,0.39062c0,0 -0.70203,0.01752 -1.54247,-0.24706c-12.37898,7.27615 -25.1135,13.91416 -37.25005,21.61556l-2.87784,-5.95308l-1.67579,-1.22426c0.27649,-0.1754 0.55329,-0.35024 0.83038,-0.52457l-0.17066,-0.35303c0,0 1.26735,-1.33219 3.01107,-1.41047c13.26852,-8.13369 27.11577,-15.23856 40.36643,-23.41206c4.15328,-2.20543 8.17994,-4.65097 12.13441,-7.19574c1.97543,-1.27121 3.98368,-2.49113 5.9965,-3.7023c0.3535,-0.21273 0.691,-0.48184 1.03346,-0.73768c-1.14218,-0.77103 -2.21216,-1.66407 -3.14286,-2.67566c-2.73023,-2.96747 -3.58671,-5.56861 -6.48873,-8.1194c-7.15288,-6.28714 -15.63478,-10.49882 -23.13743,-16.18863c-3.69691,-2.80364 -6.75418,-6.46821 -10.71517,-8.8844c-1.09504,-0.66795 -2.45085,-0.80823 -3.57165,-1.43201c-0.77379,-0.43066 -1.22652,-1.35901 -2.04603,-1.69456c-0.74689,-0.30584 -1.61172,-0.08871 -2.41758,-0.13306c0,0 -4.22098,-0.49592 -3.72504,-4.71689c0.49592,-4.22098 4.71689,-3.72504 4.71689,-3.72504c6.81575,1.02424 13.08838,5.19675 18.44717,9.55652c1.59683,1.29914 2.82533,3.02128 4.46306,4.26848c2.9864,2.27428 6.18134,4.30716 9.38454,6.33723c0.07517,-0.00603 0.11695,-0.00708 0.11695,-0.00708c5.35528,-0.1336 10.75728,-0.25581 15.86918,-1.85529l0.04802,0.45383c0.18464,-0.09397 0.36896,-0.17183 0.54706,-0.23633l-0.00682,-0.27324l3.99875,-0.09977c2.34648,-0.05854 4.29614,1.7962 4.35468,4.14268c0.05854,2.34648 -1.7962,4.29614 -4.14268,4.35468l-3.55458,0.08869c-1.91498,0.58865 -3.87887,0.98362 -5.86802,1.25454c2.34238,1.90132 4.53409,3.98662 6.47257,6.3781c1.21286,1.49632 2.10366,3.24907 3.40778,4.66657c2.54919,2.77082 6.86684,3.86605 7.31587,8.56588c0.40933,4.28445 -4.2871,6.32143 -6.92705,7.9647c-3.41707,2.12693 -6.75785,4.26293 -10.15139,6.32458c2.3929,-0.0597 4.7858,-0.1194 7.17871,-0.1791l2.99906,-0.07482c2.34648,-0.05854 4.29614,1.7962 4.35468,4.14268c0.05854,2.34648 -1.7962,4.29614 -4.14268,4.35468l-2.99906,0.07482l-0.08555,0.55363c0,0 -2.71325,1.44231 -4.752,-0.43294z" fill="#000000" stroke="none" stroke-width="0.5"/></g></g></g></svg>