<svg version="1.1" xmlns="http://www.w3.org/2000/svg" xmlns:xlink="http://www.w3.org/1999/xlink" width="66.57959" height="68.51324" viewBox="0,0,66.57959,68.51324"><g transform="translate(-197.34092,-150.94156)"><g data-paper-data="{&quot;isPaintingLayer&quot;:true}" fill="#ffffff" fill-rule="nonzero" stroke="none" stroke-width="0" stroke-linecap="butt" stroke-linejoin="miter" stroke-miterlimit="10" stroke-dasharray="" stroke-dashoffset="0" style="mix-blend-mode: normal"><path d="M250.85232,170.5924c0,0 2.85069,-2.00916 3.9289,-3.53764c1.03234,-1.46348 2.40864,-5.44678 2.40864,-5.44678c0,0 1.28798,4.21884 2.40536,5.76244c1.12611,1.55564 4.32529,3.53551 4.32529,3.53551c0,0 -3.26149,1.5249 -4.37828,2.96067c-1.01283,1.30211 -2.0411,5.29219 -2.0411,5.29219c0,0 -1.51357,-4.41582 -2.6363,-5.86238c-1.09271,-1.40786 -4.01249,-2.704 -4.01249,-2.704z"/><path d="M197.34098,197.59492c0,0 7.2745,-5.12701 10.02582,-9.02745c2.63433,-3.73458 6.14643,-13.8992 6.14643,-13.8992c0,0 3.28669,10.76571 6.13803,14.7047c2.87362,3.96973 11.03736,9.02203 11.03736,9.02203c0,0 -8.32278,3.89129 -11.1726,7.55507c-2.58459,3.32273 -5.20854,13.50473 -5.20854,13.50473c0,0 -3.86236,-11.26842 -6.7274,-14.95979c-2.78841,-3.59263 -10.23915,-6.90015 -10.23915,-6.90015z"/><path d="M210.51417,167.85503c0,0 5.36655,-3.78229 7.39624,-6.65973c1.9434,-2.75507 4.53435,-10.25373 4.53435,-10.25373c0,0 2.42467,7.94209 4.52816,10.84797c2.11992,2.92856 8.14249,6.65574 8.14249,6.65574c0,0 -6.1399,2.87069 -8.24226,5.57352c-1.9067,2.45124 -3.84244,9.96272 -3.84244,9.96272c0,0 -2.84934,-8.31295 -4.96295,-11.03615c-2.05708,-2.65035 -7.55364,-5.09038 -7.55364,-5.09038z"/></g></g></svg>