<svg version="1.1" xmlns="http://www.w3.org/2000/svg" xmlns:xlink="http://www.w3.org/1999/xlink" width="90.61457" height="107.74606" viewBox="0,0,90.61457,107.74606"><g transform="translate(-194.29683,-119.63354)"><g data-paper-data="{&quot;isPaintingLayer&quot;:true}" fill-rule="nonzero" stroke="none" stroke-width="0.5" stroke-linecap="butt" stroke-linejoin="miter" stroke-miterlimit="10" stroke-dasharray="" stroke-dashoffset="0" style="mix-blend-mode: normal"><path d="M231.30611,207.74876c0.306,-0.21537 0.77826,-2.0039 1.35956,-2.47664c1.59033,-1.29336 6.27783,-2.00732 8.21756,-2.26453c0.96007,-0.12731 2.49635,0.67116 3.18239,0.4555c2.15451,-0.67732 7.31514,-4.59423 9.37914,-4.03384c1.74038,0.47252 2.80027,2.20178 3.63177,3.63346c0.62701,1.07961 2.80133,-1.30611 3.71736,-0.45781c2.02431,1.8746 1.42478,3.42621 0.74732,5.75687c-0.63776,2.19413 0.00981,6.87083 -2.5801,8.33939c-0.98981,0.56126 -7.62303,-1.23214 -8.39821,-0.06472c-1.4602,2.19903 -0.95517,4.70789 -4.49048,4.60011c-3.88205,-0.11835 -2.94231,-6.85667 -4.8989,-8.25628c-3.87,-2.76832 -7.52262,1.58836 -8.75357,0.92525c-0.25825,0.0064 -0.52151,-0.0194 -0.78483,-0.08046c-1.67986,-0.38956 -2.72586,-2.06716 -2.3363,-3.74702c0.11307,-0.48759 0.33466,-0.92178 0.63333,-1.28297c0.28532,-0.34504 0.64097,-0.62345 1.03953,-0.81813c0.15344,-0.10616 0.27383,-0.18553 0.33441,-0.22818z" fill="#ffa900"/><path d="M266.18583,167.69066l-0.04686,0.0018l-0.06563,-0.06343c-0.45093,-0.25932 -0.82332,-0.62462 -1.09157,-1.05485l-1.88981,-3.03092l-0.44143,-0.00407l-0.71733,0.01227l-0.08475,-0.01965l-0.08967,-0.00082l-0.02403,-0.02555l-0.92462,-0.21442l-0.27687,-0.14163l-0.30595,-0.05577l-1.33874,-0.60632l-0.36318,-0.28788l-0.41174,-0.2127l-2.12948,-1.87454l-0.02296,-0.03327l-0.03545,-0.01946l-2.27326,-2.10513l-0.14398,-0.22033l-0.20653,-0.16315l-1.66831,-2.16209l-0.09651,-0.22071l-0.16418,-0.17627l-1.25055,-2.26245l-0.05525,-0.20773l-0.1239,-0.17566l-1.04843,-2.7087l-0.01542,-0.12345l-0.06357,-0.10695l-0.88974,-2.96777l-0.01173,-0.25327l-0.09307,-0.23585l-0.21429,-1.62765l0.06355,-0.55468l-0.00955,-0.55823l0.23874,-1.02948l0.48859,-0.9551l0.02168,-0.20866l0.14119,-0.10971l0.08143,-0.15919l0.20094,-0.06024l0.84713,-0.65828l0.87893,-0.38791l0.37684,-0.06494l0.13989,-0.13597l0.5383,0.01911l0.53082,-0.09147l0.15694,0.11588l0.38215,0.01357l1.42267,0.40979l0.0093,-0.0035l0.03239,0.01551l0.29214,0.08414l0.55171,0.31988l0.57521,0.27541l0.23418,0.19387l0.03107,0.01801l0.00235,0.00965l1.71811,1.42241l0.13017,0.17692l0.1831,0.12132l2.43319,2.66139l2.56248,2.38851l0.07701,0.06901l0.25369,-0.06806l0.01303,-0.01097l0.01987,0.00213l0.05347,-0.01434l0.39606,-0.00677l0.55952,0.12975l0.57107,0.06148l0.72701,0.26721l0.85915,0.58426l0.21189,0.04715l0.10007,0.16501l0.15957,0.10852l0.03607,0.21406l0.53878,0.88837l0.39468,1.275l0.02562,0.46339l0.11401,0.44989l0.0054,1.67783l-0.06139,0.24898l0.02201,0.25548l-0.44221,2.75751l-0.04321,0.10106l0.00188,0.10989l-0.24377,1.0512l0.62847,0.92356l0.01994,0.05422c0.74273,-1.02705 1.76841,-1.72012 3.11076,-1.8112c6.29336,-0.42699 4.86115,8.06637 5.56872,11.84152c0.22503,1.20061 2.22949,2.73596 2.69431,3.97564c1.55993,4.16028 1.61335,8.11895 1.10958,12.48133c-0.45477,3.93806 -3.2122,9.31346 -5.42604,7.48063c-0.05661,-0.00991 -0.11327,-0.02141 -0.16994,-0.03455c-0.01189,-0.00276 -0.02376,-0.00559 -0.03558,-0.00847c-0.81421,-0.17542 -1.78676,0.85606 -2.49758,1.10053c-0.58644,0.20169 -2.30867,-1.12999 -2.75839,-1.51422c-1.74908,-1.4944 -0.13006,-4.6093 0.06781,-6.90133c0.31003,-3.59116 1.24332,-8.89635 0.71747,-12.55328c-0.19956,-1.38784 -2.16109,-2.4818 -2.9317,-3.80978c-0.28743,-0.49532 -0.51699,-1.10437 -0.68315,-1.78321c-0.15347,-0.05195 -0.30066,-0.11502 -0.44086,-0.1881zM255.69047,149.91398l1.03274,1.8684l1.36358,1.76716l1.23096,1.13992l-0.03184,-0.9723l-0.9066,-0.46377l-0.53474,-1.78365l-1.89355,-1.765l-0.06932,-0.10683l-0.10615,-0.07034l-0.40691,-0.44507z" fill="#ffa900"/><path d="M236.50784,155.22254c-5.14986,1.54394 -2.19329,-6.51345 -3.58292,-6.84731c-2.9907,-0.7185 -17.36155,5.56985 -14.64052,-3.67706c1.59922,-5.43463 7.96483,-9.59186 13.11748,-11.10519c1.72793,-0.5075 3.72503,0.85168 4.89013,0.5775c1.61879,-0.38095 3.91043,-0.01713 4.79031,1.39405c0.51807,0.83089 -0.49577,4.53875 -0.59135,5.23095c0.59701,0.72422 0.86211,1.70838 0.63371,2.69332c-0.06302,0.27175 -0.15975,0.52692 -0.28473,0.7621c-1.12846,3.66346 -0.10138,9.70327 -4.33209,10.97164z" fill="#ffa900"/><path d="M219.21001,158.75239c3.55527,0.45379 2.49414,4.73258 1.97291,6.93727c-1.31407,5.55824 -2.6782,11.44901 -6.56413,15.78944c-1.78925,1.99851 -4.68565,0.03996 -5.98985,0.73498c-1.57325,0.83838 -2.2681,2.65134 -4.36018,2.69981c-5.28928,0.12255 -4.16592,-6.3572 -2.44928,-9.49855c2.24535,-4.10888 6.34738,-5.88071 7.70203,-10.18898l0.27979,-0.45674c0.67047,-1.15425 2.03723,-1.78933 3.40549,-1.47204c0.27832,0.06454 0.53925,0.16445 0.77914,0.29386c2.79317,-0.75289 0.92013,-5.38838 5.22407,-4.83905z" fill="#ffa900"/><path d="M223.86507,188.97017c1.12816,1.19911 -0.2514,3.30998 -0.73209,4.88464c-0.98846,3.23799 -5.18647,11.32691 -9.40359,10.698c-4.01034,-0.59807 -6.14548,-5.86503 -4.32417,-9.42538c1.63091,-3.18814 3.45957,-1.73016 5.59113,-0.74314c0.06568,0.03041 1.23787,-2.67661 1.32851,-3.06749l-0.00263,-0.02792c-0.04103,-0.34824 -0.02364,-0.70938 0.06013,-1.07062c0.07639,-0.32942 0.20231,-0.63446 0.36808,-0.90909c1.2537,-2.93618 4.88983,-2.70374 7.11464,-0.33901z" fill="#ffa900"/><path d="M209.65334,146.29942c-1.67986,-0.38956 -2.72586,-2.06716 -2.3363,-3.74702c0.38956,-1.67986 2.06716,-2.72586 3.74702,-2.3363c1.67986,0.38956 2.72586,2.06716 2.3363,3.74702c-0.38956,1.67986 -2.06716,2.72586 -3.74702,2.3363z" fill="#ffa900"/><path d="M269.98227,140.46653c-1.67986,-0.38956 -2.72586,-2.06716 -2.3363,-3.74702c0.38956,-1.67986 2.06716,-2.72586 3.74702,-2.3363c1.67986,0.38956 2.72586,2.06716 2.3363,3.74702c-0.38956,1.67986 -2.06716,2.72586 -3.74702,2.3363z" fill="#ffa900"/><path d="M266.53854,227.04751c-1.67986,-0.38956 -2.72586,-2.06716 -2.3363,-3.74702c0.38956,-1.67986 2.06716,-2.72586 3.74702,-2.3363c1.67986,0.38956 2.72586,2.06716 2.3363,3.74702c-0.38956,1.67986 -2.06716,2.72586 -3.74702,2.3363z" fill="#ffa900"/><path d="M235.39464,159.76533c1.05894,2.42833 10.37397,5.73361 9.01377,9.85841c-0.89892,2.72601 -2.16213,3.20225 -3.47264,2.72145l0.06236,0.82984l-0.04831,0.28154l0.03957,0.2829l-0.50192,4.71611l-0.03684,0.10059l0.00768,0.10685l-1.20999,6.91884l-0.03553,0.07997l0.00149,0.0875l-2.10523,9.07819l-0.03387,0.06621l-0.00219,0.07434l-2.24084,7.96188l-0.19077,0.3337l-0.10414,0.37l-2.48901,4.35392l-0.44461,0.46377l-0.06262,0.23299l-0.33893,0.18585l-0.2675,0.27903l-0.24125,-0.00005l-0.56333,0.30892l-1.99524,0.52353l-1.33019,0.01546l-0.12305,0.0409l-0.07316,-0.03862l-0.08272,0.00096l-0.09081,-0.09257l-1.17641,-0.62105l-1.57453,-1.4111l-0.04561,-0.00858l-0.45172,-0.69208l-0.4633,-0.68438l0.00974,-0.04538l-1.27365,-3.67885l-0.05033,-0.56848l-0.11972,-0.55801l0.20083,-5.96941l0.08419,-0.29431l-0.00523,-0.30607l1.2588,-5.4282l0.09172,-0.1793l0.02208,-0.20019l1.5816,-4.26848l0.18227,-0.26652l0.10002,-0.30701l1.44176,-2.3l-0.00119,-0.03102l0.05875,-0.06079l0.06597,-0.10524l0.50585,-0.48648l0.4877,-0.50468l0.1054,-0.06572l0.06094,-0.0586l0.03103,0.00127l0.83783,-0.5224c-1.20398,-1.20749 -1.54727,-3.74765 -1.75729,-5.21385c-0.71054,-4.96024 -0.43038,-10.87658 2.37994,-15.16099c-0.02947,-0.2512 -0.02854,-0.50908 0.00577,-0.76888c-0.04212,-0.36418 0.06823,-0.67578 0.28055,-0.94599c0.61808,-1.29114 2.0687,-2.02733 3.52101,-1.69054c0.75526,-0.2606 1.29347,0.29735 1.69022,1.03878c0.42217,0.50571 0.68141,1.14032 0.72192,1.81425c0.05585,0.16029 0.10641,0.29912 0.15294,0.40582zM235.36971,167.57643c-0.60506,0.5658 -0.76627,1.92054 -0.86027,3.56314l0.05377,-0.18002l0.82082,-1.38415l0.01142,-0.00266l0.00328,-0.01127l1.40932,-0.73506c-0.47196,-0.73124 -0.95363,-1.70325 -1.43836,-1.24997zM228.86633,191.24598l-1.14523,4.93849l-0.17112,5.08634l0.43183,1.24732l0.94326,-1.65001l2.11704,-7.52203l1.20713,-5.20541l-0.03363,-0.01721l-0.37444,-0.08683l-0.08801,-0.04503l-0.01993,0.00299l-0.05056,-0.03905l-0.19417,-0.09932l-0.28953,-0.25283l-0.07382,-0.03776l-0.01084,-0.03617l-0.12753,-0.11136l-0.46503,-0.35914l-0.25446,0.40592z" fill="#fffe00"/><path d="M253.66576,161.61723c0.3745,0.21093 2.29235,0.13936 2.88784,0.33442c3.38694,1.10936 6.50741,6.14078 4.44793,9.34754c-0.67936,1.0578 -3.68793,1.30648 -4.78113,1.72213c-5.9772,2.27259 -11.43543,0.01728 -5.09822,-5.39962c0.75228,-0.64302 -1.60786,-1.1889 -2.23459,-1.95481c-0.58395,-0.71362 -2.85998,-4.57994 -2.35163,-5.52361c-0.0064,-0.25825 0.0194,-0.52151 0.08046,-0.78483c0.38956,-1.67986 2.06716,-2.72586 3.74702,-2.3363c0.97404,-0.44785 1.56331,0.4011 2.00418,1.48998c0.18358,0.32039 0.31089,0.67354 0.37205,1.0436c0.31506,0.96282 0.57584,1.86421 0.9261,2.06149z" fill="#fffe00"/><path d="M255.16098,180.35274c3.21756,4.07646 -3.93834,11.65043 -7.08856,7.80241c-2.21143,-2.7013 0.07266,-13.15603 1.76099,-13.66219c4.66935,-1.39988 5.50776,1.25317 4.59745,5.1786z" fill="#fffe00"/><path d="M220.67727,216.81297c1.51212,5.04372 -0.43544,13.30866 -7.88229,9.6675c-1.83547,-0.89746 -3.60929,-3.31028 -2.58607,-5.4002c0.32813,-0.67021 -1.37482,-0.59606 -2.00522,-0.99539c-1.50366,-0.9525 -2.49117,-2.26417 -3.13977,-3.91851c-1.61381,-4.11629 2.48074,-7.31598 6.09131,-6.85608c3.90231,0.49706 7.8161,3.77525 9.2862,7.38202z" fill="#ff0000"/><path d="M274.4765,148.65888c0.04087,-0.138 0.09948,-0.26743 0.17259,-0.38913c0.49539,-1.01229 1.50487,-1.67773 2.6215,-1.74259c0.3947,-0.18834 0.68564,-0.35757 0.74045,-0.54254c0.38691,-1.30599 0.97861,-3.0573 2.30303,-3.37548c1.01988,-0.24502 2.09672,0.38426 3.02119,0.87978c4.7906,2.56786 -2.58533,20.51827 -5.60358,9.26687c-0.32132,0.02872 -0.6526,0.00773 -0.98395,-0.06911c-1.1433,-0.26513 -1.99298,-1.12688 -2.29634,-2.17992c-0.20572,-0.44851 -0.22378,-1.00745 0.02515,-1.84787z" fill="#ff0000"/><path d="M225.78461,131.63132c-1.28497,0.66737 -3.39881,-0.97467 -4.34206,0.12387c-2.27398,2.64837 -4.78507,5.63667 -8.35534,6.48413c-1.55536,0.3692 -6.01294,0.86983 -6.86135,-1.39899c-1.94844,-5.21052 6.21855,-4.75414 8.73756,-7.11194c0.80158,-0.75027 -1.6311,-1.91388 -2.01448,-3.19263c-0.87932,-2.93299 3.35771,-6.12264 5.71916,-6.75611c3.30662,-0.88702 9.86293,2.45334 11.80811,4.92966c0.10216,0.13007 0.19207,0.28557 0.26848,0.46004c0.34191,0.64242 0.46201,1.40657 0.28469,2.17119c-0.01289,0.0556 -0.0272,0.1105 -0.04287,0.16468c-0.21608,1.31789 -1.03464,2.48553 -2.69315,2.2382c-0.32977,0.03239 -0.67034,0.01243 -1.01102,-0.06658c-0.0097,-0.00225 -0.01938,-0.00455 -0.02904,-0.00687c-0.68944,-0.13856 -0.81753,1.62314 -1.46873,1.96135z" fill="#ff0000"/><path d="M202.25325,171.07233c-1.10139,10.38354 -8.43142,10.86079 -6.31149,-0.33311c0.10668,-0.56331 -0.24953,-1.18875 -0.65675,-1.87053c-0.66751,-0.62643 -1.04392,-1.53228 -0.98147,-2.48061c-0.00217,-0.17961 0.01622,-0.36174 0.0598,-0.5463c0.0302,-0.12785 0.07567,-0.24493 0.13419,-0.35288c0.50176,-1.33738 1.86047,-2.16895 3.28431,-2.001c1.2755,-1.00328 4.42374,-14.53592 8.81838,-6.53023c2.0493,3.73321 -3.4448,10.64913 -4.30854,13.93194z" fill="#ff0000"/></g></g></svg>