<svg version="1.1" xmlns="http://www.w3.org/2000/svg" xmlns:xlink="http://www.w3.org/1999/xlink" width="73.5" height="73.5" viewBox="0,0,73.5,73.5"><defs><linearGradient x1="219.6123" y1="163.1496" x2="260.3877" y2="196.8504" gradientUnits="userSpaceOnUse" id="color-1"><stop offset="0" stop-color="#fffa65"/><stop offset="1" stop-color="#ffbc0c"/></linearGradient></defs><g transform="translate(-203.25,-143.25)"><g data-paper-data="{&quot;isPaintingLayer&quot;:true}" fill-rule="nonzero" stroke-linecap="butt" stroke-linejoin="miter" stroke-miterlimit="10" stroke-dasharray="" stroke-dashoffset="0" style="mix-blend-mode: normal"><path d="M223.1496,200.3877c-11.25981,-9.30622 -12.84351,-25.97828 -3.5373,-37.23809c9.30622,-11.25981 25.97828,-12.84351 37.23809,-3.5373c11.25981,9.30622 12.84351,25.97828 3.5373,37.23809c-9.30622,11.25981 -25.97828,12.84351 -37.23809,3.5373z" fill="none" stroke="url(#color-1)" stroke-width="13.5"/><path d="M212.475,199.74166c0,0 -14.34576,-22.36543 1.5,-43.1c9.63468,-12.60722 32,-9.3 32,-9.3c0,0 -20.18966,0.27477 -29.5,14c-12.13933,17.89569 -4,38.4 -4,38.4z" fill="#ffffff" stroke="none" stroke-width="0"/><path d="M205.25,180c0,-19.19189 15.55811,-34.75 34.75,-34.75c19.19189,0 34.75,15.55811 34.75,34.75c0,19.19189 -15.55811,34.75 -34.75,34.75c-19.19189,0 -34.75,-15.55811 -34.75,-34.75z" fill="none" stroke="#000000" stroke-width="4"/><path d="M222.01632,180c0,-9.93211 8.05157,-17.98368 17.98368,-17.98368c9.93211,0 17.98368,8.05157 17.98368,17.98368c0,9.93211 -8.05157,17.98368 -17.98368,17.98368c-9.93211,0 -17.98368,-8.05157 -17.98368,-17.98368z" fill="none" stroke="#000000" stroke-width="4"/></g></g></svg>