<svg version="1.1" xmlns="http://www.w3.org/2000/svg" xmlns:xlink="http://www.w3.org/1999/xlink" width="471.36428" height="299.75901" viewBox="0,0,471.36428,299.75901"><g transform="translate(-0.58092,3.58333)"><g data-paper-data="{&quot;isPaintingLayer&quot;:true}" fill-rule="nonzero" stroke-linejoin="miter" stroke-miterlimit="10" stroke-dasharray="" stroke-dashoffset="0" style="mix-blend-mode: normal"><path d="" fill="#000000" stroke="none" stroke-width="0.5" stroke-linecap="butt"/><path d="" fill="#000000" stroke="none" stroke-width="0.5" stroke-linecap="butt"/><text transform="translate(19.51703,18.16667) scale(0.5,0.5)" font-size="40" xml:space="preserve" fill="#000000" fill-rule="nonzero" stroke="none" stroke-width="1" stroke-linecap="butt" stroke-linejoin="miter" stroke-miterlimit="10" stroke-dasharray="" stroke-dashoffset="0" font-family="Sans Serif" font-weight="normal" text-anchor="start" style="mix-blend-mode: normal"><tspan x="0" dy="0">Hitboxes:</tspan></text><g stroke-linecap="butt"><path d="M158.11743,98.5447v-20.5894h73.76515v20.5894z" fill="#b2b1b1" stroke="none" stroke-width="0"/><path d="M182.31748,93.08697v-21.41298l-9.81996,8.63793c0,0 -3.1645,1.78464 -9.53518,-5.7511c-5.59417,-6.61723 -1.98713,-9.41139 -1.98713,-9.41139l21.34228,-25.52672c0,0 5.99174,-7.42411 12.19178,-7.42411c9.29556,0 13.89945,7.42412 13.89945,7.42412l20.88507,26.01485c0,0 2.64253,3.50708 -2.52222,9.3303c-6.29053,7.09252 -8.15154,4.52573 -8.15154,4.52573l-9.81996,-6.72849v20.32187c0,0 -0.12789,3.49512 -13.65045,3.5461c-11.34969,0.04279 -12.83212,-3.5461 -12.83212,-3.5461z" fill="none" stroke="#000000" stroke-width="3.5"/></g><g stroke-linecap="butt"><path d="M235.11743,99.21137v-67.75607h73.76515v67.75607z" fill="#b2b1b1" stroke="none" stroke-width="0"/><path d="M259.31748,94.08697v-21.41298l-9.81996,8.63793c0,0 -3.1645,1.78464 -9.53518,-5.7511c-5.59417,-6.61723 -1.98713,-9.41139 -1.98713,-9.41139l21.34228,-25.52672c0,0 5.99174,-7.42411 12.19178,-7.42411c9.29555,0 13.89945,7.42412 13.89945,7.42412l20.88507,26.01485c0,0 2.64253,3.50708 -2.52222,9.3303c-6.29053,7.09252 -8.15154,4.52573 -8.15154,4.52573l-9.81996,-6.72849v20.32187c0,0 -0.12789,3.49512 -13.65045,3.5461c-11.34969,0.04279 -12.83212,-3.5461 -12.83212,-3.5461z" fill="none" stroke="#000000" stroke-width="3.5"/></g><text transform="translate(21.51703,121.16667) scale(0.5,0.5)" font-size="40" xml:space="preserve" fill="#000000" fill-rule="nonzero" stroke="none" stroke-width="1" stroke-linecap="butt" stroke-linejoin="miter" stroke-miterlimit="10" stroke-dasharray="" stroke-dashoffset="0" font-family="Sans Serif" font-weight="normal" text-anchor="start" style="mix-blend-mode: normal"><tspan x="0" dy="0">Bar:</tspan></text><text transform="translate(344.51703,89.16667) scale(0.5,0.5)" font-size="40" xml:space="preserve" fill="#000000" fill-rule="nonzero" stroke="none" stroke-width="1" stroke-linecap="butt" stroke-linejoin="miter" stroke-miterlimit="10" stroke-dasharray="" stroke-dashoffset="0" font-family="Sans Serif" font-weight="normal" text-anchor="start" style="mix-blend-mode: normal"><tspan x="0" dy="0">Notes:</tspan></text><g stroke-linecap="butt"><path d="M352.077,189.59126l-21.38743,-0.30998c0,0 -3.90497,-7.28712 -4.1409,-12.62103c-0.23593,-5.33391 2.99218,-13.34963 2.99218,-13.34963l20.47105,-1.32743l-6.68162,-10.66089c0,0 3.07972,-3.9471 4.97631,-5.76168c2.24809,-2.15088 7.67224,-4.9325 7.67224,-4.9325c0,0 5.6324,3.61775 12.43993,8.98473c7.09936,5.59705 15.41861,11.64591 18.81097,15.0694c4.05286,4.09005 5.18401,5.62282 4.81348,11.00131c-0.37054,5.37849 -2.42604,7.83846 -6.40731,12.13401c-6.37746,6.8809 -28.18262,25.18646 -28.18262,25.18646c0,0 -6.11883,-3.92868 -8.45788,-6.18241c-2.20704,-2.12653 -5.2034,-6.98055 -5.2034,-6.98055z" fill="#ff0000" stroke="none" stroke-width="0"/><path d="M328.19978,176.64836c-0.12286,-4.23217 0.21967,-13.10936 0.21967,-13.10936l4.08873,-0.50226c0,0 -1.57044,9.21236 -1.45982,13.6407c0.10272,4.11221 2.10159,12.05128 2.10159,12.05128l-4.01373,-0.49993c0,0 -0.82082,-7.59786 -0.93644,-11.58044z" fill="#f0eeee" stroke="none" stroke-width="0"/><path d="M345.96482,198.74042c0,0 3.01092,4.3393 4.93789,6.22499c2.18131,2.13458 4.63614,3.32956 5.55471,2.91865c2.20797,-0.98771 7.61014,-6.40475 12.63253,-11.04849c7.94851,-7.34927 15.67549,-13.72411 16.79142,-15.35186c1.05244,-1.53513 2.72857,-2.50094 2.71418,-5.48634c-0.01439,-2.9854 0.02248,-5.0482 -2.15283,-7.17025c-1.75806,-1.71501 -7.33035,-5.39145 -13.81884,-10.73593c-7.66686,-6.31509 -16.35256,-13.26182 -18.17729,-13.02467c-4.04678,0.52592 -8.44966,9.2489 -8.44966,9.2489l-2.87465,-3.53733c0,0 5.5196,-11.33093 12.81099,-8.62887c8.15105,3.02063 33.80436,25.90366 33.80436,25.90366c0,0 2.06079,5.18154 1.96885,7.73589c-0.08894,2.47116 -2.51177,7.34892 -2.51177,7.34892c0,0 -23.41455,24.47431 -31.72886,27.86624c-5.63891,2.30047 -13.76353,-10.97496 -13.76353,-10.97496z" fill="#f0eeee" stroke="none" stroke-width="0"/><path d="M327.37406,176.83669c-0.2867,-13.51961 3.20412,-13.73475 3.20412,-13.73475l20.31554,-0.50746l-6.97161,-9.64889c0,0 -2.61246,-1.79633 4.32077,-8.26201c5.69243,-5.30855 9.26441,-2.75442 9.26441,-2.75442l26.52827,20.22893c0,0 7.53677,4.41707 7.76889,13.70973c0.15483,6.1981 -7.11735,12.37337 -7.11735,12.37337l-24.98582,21.97306c0,0 -2.70323,3.67568 -9.45808,-1.7515c-7.69248,-6.18051 -5.98741,-9.38859 -5.98741,-9.38859l8.39002,-10.0326l-21.4063,0.53471c0,0 -3.6248,-1.39234 -3.86543,-12.73956z" fill="none" stroke="#000000" stroke-width="3.5"/></g><g stroke-linecap="butt"><path d="M326.66648,259.46734c0,-18.77768 15.22232,-34 34,-34c18.77768,0 34,15.22232 34,34c0,18.77768 -15.22232,34 -34,34c-18.77768,0 -34,-15.22232 -34,-34z" fill="#ff0000" stroke="none" stroke-width="0"/><path d="M333.57898,279.16734c0,0 -14.34576,-22.36543 1.5,-43.1c9.63468,-12.60722 32,-9.3 32,-9.3c0,0 -20.18966,0.27477 -29.5,14c-12.13933,17.89569 -4,38.4 -4,38.4z" fill="#f0eeee" stroke="none" stroke-width="0"/><path d="M326.35398,259.42568c0,-19.19189 15.55811,-34.75 34.75,-34.75c19.19189,0 34.75,15.55811 34.75,34.75c0,19.19189 -15.55811,34.75 -34.75,34.75c-19.19189,0 -34.75,-15.55811 -34.75,-34.75z" fill="none" stroke="#000000" stroke-width="4"/></g><g stroke-linecap="butt"><path d="M79.11743,51.5447v-21.5894h73.76515v21.5894z" fill="#b2b1b1" stroke="none" stroke-width="0"/><path d="M103.31748,92.58697v-21.41298l-9.81996,8.63793c0,0 -3.1645,1.78464 -9.53518,-5.7511c-5.59417,-6.61723 -1.98713,-9.41139 -1.98713,-9.41139l21.34228,-25.52672c0,0 5.99173,-7.42412 12.19177,-7.42412c9.29555,0 13.89946,7.42412 13.89946,7.42412l20.88507,26.01485c0,0 2.64253,3.50708 -2.52222,9.3303c-6.29053,7.09252 -8.15154,4.52573 -8.15154,4.52573l-9.81996,-6.72849v20.32187c0,0 -0.12789,3.49512 -13.65045,3.5461c-11.34969,0.04279 -12.83212,-3.5461 -12.83212,-3.5461z" fill="none" stroke="#000000" stroke-width="3.5"/></g><g stroke-linecap="butt"><path d="M0.61743,72.0447v-17.0894h73.76515v17.0894z" fill="#b2b1b1" stroke="none" stroke-width="0"/><path d="M24.81748,92.58697v-21.41298l-9.81997,8.63793c0,0 -3.1645,1.78464 -9.53517,-5.7511c-5.59417,-6.61723 -1.98714,-9.41139 -1.98714,-9.41139l21.34228,-25.52672c0,0 5.99173,-7.42412 12.19178,-7.42412c9.29556,0 13.89945,7.42412 13.89945,7.42412l20.88507,26.01485c0,0 2.64253,3.50708 -2.52222,9.3303c-6.29053,7.09252 -8.15155,4.52573 -8.15155,4.52573l-9.81997,-6.72849v20.32187c0,0 -0.12789,3.49512 -13.65045,3.5461c-11.34969,0.04279 -12.83212,-3.5461 -12.83212,-3.5461z" fill="none" stroke="#000000" stroke-width="3.5"/></g><g><path d="M430.2952,137.82884c0,0 -0.80784,-9.63466 1,-18.2c1.1977,-5.67458 13.2,-27.2 13.2,-27.2l8.6,8.6c0,0 -8.82622,10.80043 -11.6,20.6c-2.51282,8.87762 0,16.2 0,16.2z" fill="#ffd648" stroke="#000000" stroke-width="4" stroke-linecap="butt"/><path d="M421.4452,155.16217v-24.5h26.5v24.5z" fill="#434343" stroke="none" stroke-width="0" stroke-linecap="butt"/><path d="M422.2577,142.16217v-10.875h26.625v3.625l-20.89565,0.65225l-2.96123,6.20558z" fill="#f0eeee" stroke="none" stroke-width="0" stroke-linecap="butt"/><path d="M422.6952,150.4955v-19h25v19z" fill="none" stroke="#000000" stroke-width="4" stroke-linecap="butt"/><path d="M400.7577,175.53716c0,-18.77768 15.22232,-34 34,-34c18.77768,0 34,15.22232 34,34c0,18.77768 -15.22232,34 -34,34c-18.77768,0 -34,-15.22232 -34,-34z" fill="#434343" stroke="none" stroke-width="0" stroke-linecap="butt"/><path d="M407.6702,195.23716c0,0 -14.34576,-22.36543 1.5,-43.1c9.63468,-12.60722 32,-9.3 32,-9.3c0,0 -20.18966,0.27477 -29.5,14c-12.13933,17.89569 -4,38.4 -4,38.4z" fill="#f0eeee" stroke="none" stroke-width="0" stroke-linecap="butt"/><path d="M400.4452,175.4955c0,-19.19189 15.55811,-34.75 34.75,-34.75c19.19189,0 34.75,15.55811 34.75,34.75c0,19.19189 -15.55811,34.75 -34.75,34.75c-19.19189,0 -34.75,-15.55811 -34.75,-34.75z" fill="none" stroke="#000000" stroke-width="4" stroke-linecap="butt"/><path d="M440.6952,124.02884l-7.4,-3.6" fill="none" stroke="#000000" stroke-width="4" stroke-linecap="round"/><path d="M445.0952,112.22884l-7,-5" fill="none" stroke="#000000" stroke-width="4" stroke-linecap="round"/></g><g stroke-linecap="butt"><g><path d="M10.1875,253.45833c0,-18.77768 15.22232,-34 34,-34c18.77768,0 34,15.22232 34,34c0,18.77768 -15.22232,34 -34,34c-18.77768,0 -34,-15.22232 -34,-34z" fill="#b2b1b1" stroke="none" stroke-width="0"/><path d="M17.1,273.15833c0,0 -14.34575,-22.36543 1.5,-43.1c9.63468,-12.60722 32,-9.3 32,-9.3c0,0 -20.18966,0.27477 -29.5,14c-12.13933,17.89569 -4,38.4 -4,38.4z" fill="#f0eeee" stroke="none" stroke-width="0"/><path d="M9.875,253.41667c0,-19.19189 15.55811,-34.75 34.75,-34.75c19.1919,0 34.75,15.55811 34.75,34.75c0,19.1919 -15.5581,34.75 -34.75,34.75c-19.19189,0 -34.75,-15.55811 -34.75,-34.75z" fill="none" stroke="#000000" stroke-width="4"/></g><g><path d="M87.1875,253.45833c0,-18.77768 15.22232,-34 34,-34c18.77768,0 34,15.22232 34,34c0,18.77768 -15.22232,34 -34,34c-18.77768,0 -34,-15.22232 -34,-34z" fill="#b2b1b1" stroke="none" stroke-width="0"/><path d="M94.1,273.15833c0,0 -14.34575,-22.36543 1.5,-43.1c9.63468,-12.60722 32,-9.3 32,-9.3c0,0 -20.18966,0.27477 -29.5,14c-12.13933,17.89569 -4,38.4 -4,38.4z" fill="#f0eeee" stroke="none" stroke-width="0"/><path d="M86.875,253.41667c0,-19.19189 15.5581,-34.75 34.75,-34.75c19.19189,0 34.75,15.55811 34.75,34.75c0,19.1919 -15.55811,34.75 -34.75,34.75c-19.1919,0 -34.75,-15.55811 -34.75,-34.75z" fill="none" stroke="#000000" stroke-width="4"/></g><g><path d="M164.1875,253.45833c0,-18.77768 15.22232,-34 34,-34c18.77768,0 34,15.22232 34,34c0,18.77768 -15.22232,34 -34,34c-18.77768,0 -34,-15.22232 -34,-34z" fill="#b2b1b1" stroke="none" stroke-width="0"/><path d="M171.1,273.15833c0,0 -14.34575,-22.36543 1.5,-43.1c9.63468,-12.60722 32,-9.3 32,-9.3c0,0 -20.18965,0.27477 -29.5,14c-12.13933,17.89569 -4,38.4 -4,38.4z" fill="#f0eeee" stroke="none" stroke-width="0"/><path d="M163.875,253.41667c0,-19.19189 15.55811,-34.75 34.75,-34.75c19.19189,0 34.75,15.55811 34.75,34.75c0,19.1919 -15.55811,34.75 -34.75,34.75c-19.19189,0 -34.75,-15.55811 -34.75,-34.75z" fill="none" stroke="#000000" stroke-width="4"/></g><g><path d="M241.1875,253.45833c0,-18.77768 15.22232,-34 34,-34c18.77768,0 34,15.22232 34,34c0,18.77768 -15.22232,34 -34,34c-18.77768,0 -34,-15.22232 -34,-34z" fill="#b2b1b1" stroke="none" stroke-width="0"/><path d="M248.1,273.15833c0,0 -14.34575,-22.36543 1.5,-43.1c9.63468,-12.60722 32,-9.3 32,-9.3c0,0 -20.18966,0.27477 -29.5,14c-12.13933,17.89569 -4,38.4 -4,38.4z" fill="#f0eeee" stroke="none" stroke-width="0"/><path d="M240.875,253.41667c0,-19.19189 15.55811,-34.75 34.75,-34.75c19.19189,0 34.75,15.55811 34.75,34.75c0,19.1919 -15.55811,34.75 -34.75,34.75c-19.19189,0 -34.75,-15.55811 -34.75,-34.75z" fill="none" stroke="#000000" stroke-width="4"/></g></g><g stroke-linecap="butt"><path d="M61.03083,195.27499c0,0 -2.99636,4.85402 -5.20339,6.98056c-2.33905,2.25373 -8.45788,6.18241 -8.45788,6.18241c0,0 -21.80517,-18.30557 -28.18262,-25.18646c-3.98127,-4.29555 -6.03677,-6.75552 -6.4073,-12.13401c-0.37054,-5.37849 0.76062,-6.91126 4.81348,-11.00131c3.39235,-3.42349 11.71161,-9.47234 18.81098,-15.0694c6.80752,-5.36698 12.43993,-8.98472 12.43993,-8.98472c0,0 5.42414,2.78162 7.67224,4.9325c1.89659,1.81458 4.97631,5.76168 4.97631,5.76168l-6.68163,10.66089l20.47105,1.32743c0,0 3.22811,8.01572 2.99218,13.34963c-0.23593,5.33391 -4.1409,12.62103 -4.1409,12.62103l-21.38743,0.30998z" fill="#b2b1b1" stroke="none" stroke-width="0"/><path d="M75.68661,183.66274l-4.01373,0.49992c0,0 1.99887,-7.93907 2.10159,-12.05128c0.11061,-4.42835 -1.45983,-13.6407 -1.45983,-13.6407l4.08874,0.50225c0,0 0.34254,8.8772 0.21968,13.10936c-0.11562,3.98258 -0.93644,11.58044 -0.93644,11.58044z" fill="#f0eeee" stroke="none" stroke-width="0"/><path d="M61.12051,195.46289c0,0 -8.12461,13.27544 -13.76353,10.97497c-8.31431,-3.39193 -31.72887,-27.86624 -31.72887,-27.86624c0,0 -2.42283,-4.87776 -2.51177,-7.34892c-0.09193,-2.55435 1.96885,-7.73589 1.96885,-7.73589c0,0 25.65331,-22.88303 33.80436,-25.90366c7.29139,-2.70206 12.81099,8.62887 12.81099,8.62887l-2.87464,3.53732c0,0 -4.40288,-8.72297 -8.44966,-9.2489c-1.82473,-0.23714 -10.51043,6.70959 -18.17729,13.02468c-6.48849,5.34448 -12.06078,9.02091 -13.81884,10.73593c-2.17531,2.12205 -2.13844,4.18485 -2.15284,7.17025c-0.0144,2.9854 1.66174,3.9512 2.71418,5.48634c1.11593,1.62775 8.84291,8.0026 16.79142,15.35186c5.02239,4.64374 10.42455,10.06078 12.63252,11.04849c0.91857,0.41091 3.3734,-0.78407 5.55471,-2.91865c1.92697,-1.88568 4.93789,-6.22499 4.93789,-6.22499z" fill="#f0eeee" stroke="none" stroke-width="0"/><path d="M73.58334,185.01019l-21.40631,-0.53471l8.39003,10.03261c0,0 1.70507,3.20808 -5.98741,9.38859c-6.75485,5.42719 -9.45809,1.7515 -9.45809,1.7515l-24.98582,-21.97305c0,0 -7.27218,-6.17526 -7.11735,-12.37337c0.23212,-9.29265 7.76889,-13.70973 7.76889,-13.70973l26.52827,-20.22893c0,0 3.57197,-2.55413 9.2644,2.75442c6.93323,6.46568 4.32077,8.26201 4.32077,8.26201l-6.97161,9.64889l20.31554,0.50746c0,0 3.49083,0.21513 3.20412,13.73475c-0.24063,11.34723 -3.86543,12.73957 -3.86543,12.73957z" fill="none" stroke="#000000" stroke-width="3.5"/></g><g stroke-linecap="butt"><path d="M107.8886,163.07561l0.84396,-21.37302c0,0 7.38236,-3.72179 12.7205,-3.82444c5.33814,-0.10266 13.27075,3.3246 13.27075,3.3246l0.81582,20.49781l10.82441,-6.41333c0,0 3.86897,3.17733 5.63562,5.11864c2.09408,2.30111 4.73938,7.79301 4.73938,7.79301c0,0 -3.75726,5.5403 -9.29256,12.21168c-5.77259,6.95738 -12.0273,15.123 -15.53444,18.42881c-4.18998,3.94946 -5.75051,5.04199 -11.11807,4.53726c-5.36756,-0.50473 -7.77543,-2.62102 -11.97022,-6.70831c-6.71949,-6.54729 -24.47485,-28.80277 -24.47485,-28.80277c0,0 4.08025,-6.01882 6.39169,-8.30086c2.18099,-2.15324 7.10831,-5.02746 7.10831,-5.02746z" fill="#b2b1b1" stroke="none" stroke-width="0"/><path d="M121.42371,139.52903c4.23392,-0.01714 13.09979,0.54697 13.09979,0.54697l0.4,4.1c0,0 -9.17027,-1.8 -13.6,-1.8c-4.1135,0 -12.1,1.8 -12.1,1.8l0.6,-4c0,0 7.61599,-0.63083 11.60021,-0.64696z" fill="#f0eeee" stroke="none" stroke-width="0"/><path d="M98.89493,156.73686c0,0 -4.41314,2.90163 -6.34635,4.7809c-2.18838,2.12733 -3.44429,4.55155 -3.05645,5.48009c0.93227,2.23195 6.21272,7.76771 10.7296,12.90449c7.14849,8.12956 13.3284,16.01331 14.92777,17.16954c1.50838,1.09044 2.43201,2.79017 5.41685,2.85033c2.98484,0.06016 5.04607,0.14853 7.22178,-1.97311c1.75838,-1.71468 5.57281,-7.19342 11.07765,-13.54644c6.50457,-7.50678 13.66603,-16.0163 13.47453,-17.84638c-0.42471,-4.05865 -9.03501,-8.67798 -9.03501,-8.67798l3.608,-2.78542c0,0 11.18956,5.80083 8.30627,13.02247c-3.22323,8.07308 -26.73972,33.14697 -26.73972,33.14697c0,0 -5.23139,1.93076 -7.78265,1.77507c-2.46816,-0.15062 -7.2839,-2.6945 -7.2839,-2.6945c0,0 -23.88198,-24.0184 -27.06524,-32.41483c-2.15894,-5.6946 11.31524,-13.48517 11.31524,-13.48517z" fill="#f0eeee" stroke="none" stroke-width="0"/><path d="M121.25606,138.69886c13.52256,0.05098 13.65045,3.5461 13.65045,3.5461v20.32188l9.81996,-6.7285c0,0 1.86102,-2.56678 8.15154,4.52574c5.16475,5.82322 2.52222,9.33029 2.52222,9.33029l-20.88507,26.01486c0,0 -4.6039,7.42412 -13.89946,7.42412c-6.20004,0 -12.19177,-7.42411 -12.19177,-7.42411l-21.34227,-25.52672c0,0 -3.60704,-2.79417 1.98713,-9.41139c6.37068,-7.53574 9.53518,-5.75109 9.53518,-5.75109l9.81996,8.63793v-21.41299c0,0 1.48243,-3.5889 12.83212,-3.5461z" fill="none" stroke="#000000" stroke-width="3.5"/></g><g stroke-linecap="butt"><path d="M178.84889,186.83034c0,0 -4.92733,-2.87421 -7.10832,-5.02746c-2.31143,-2.28204 -6.39168,-8.30086 -6.39168,-8.30086c0,0 17.75535,-22.25548 24.47485,-28.80277c4.19479,-4.08729 6.60267,-6.20359 11.97023,-6.70831c5.36756,-0.50473 6.9281,0.58781 11.11808,4.53726c3.50714,3.30581 9.76184,11.47143 15.53444,18.42881c5.5353,6.67138 9.29256,12.21168 9.29256,12.21168c0,0 -2.6453,5.49191 -4.73938,7.79301c-1.76666,1.94131 -5.63562,5.11864 -5.63562,5.11864l-10.82441,-6.41333l-0.81582,20.49781c0,0 -7.9326,3.42726 -13.27075,3.3246c-5.33814,-0.10266 -12.7205,-3.82444 -12.7205,-3.82444l-0.84396,-21.37302z" fill="#b2b1b1" stroke="none" stroke-width="0"/><path d="M190.82349,201.19158l-0.6,-4c0,0 7.9865,1.8 12.1,1.8c4.42973,0 13.6,-1.8 13.6,-1.8l-0.4,4.1c0,0 -8.86586,0.56411 -13.09978,0.54697c-3.98423,-0.01613 -11.60022,-0.64696 -11.60022,-0.64696z" fill="#f0eeee" stroke="none" stroke-width="0"/><path d="M178.66329,186.92469c0,0 -13.47418,-7.79057 -11.31524,-13.48517c3.18326,-8.39642 27.06524,-32.41483 27.06524,-32.41483c0,0 4.81573,-2.54388 7.2839,-2.6945c2.55127,-0.15569 7.78265,1.77507 7.78265,1.77507c0,0 23.51649,25.07389 26.73972,33.14697c2.88329,7.22164 -8.30627,13.02247 -8.30627,13.02247l-3.608,-2.78542c0,0 8.6103,-4.61933 9.03501,-8.67798c0.19151,-1.83008 -6.96996,-10.33961 -13.47452,-17.84638c-5.50484,-6.35301 -9.31927,-11.83176 -11.07765,-13.54644c-2.17571,-2.12164 -4.23694,-2.03327 -7.22178,-1.97311c-2.98484,0.06016 -3.90848,1.75989 -5.41685,2.85033c-1.59938,1.15623 -7.77928,9.03998 -14.92777,17.16954c-4.51688,5.13678 -9.79734,10.67254 -10.7296,12.90449c-0.38784,0.92854 0.86808,3.35276 3.05645,5.48009c1.93321,1.87928 6.34635,4.7809 6.34635,4.7809z" fill="#f0eeee" stroke="none" stroke-width="0"/><path d="M189.42394,199.12261v-21.41299l-9.81996,8.63793c0,0 -3.16449,1.78465 -9.53517,-5.75109c-5.59417,-6.61722 -1.98714,-9.41139 -1.98714,-9.41139l21.34228,-25.52672c0,0 5.99174,-7.42411 12.19178,-7.42411c9.29556,0 13.89946,7.42412 13.89946,7.42412l20.88507,26.01486c0,0 2.64253,3.50708 -2.52222,9.33029c-6.29053,7.09252 -8.15154,4.52574 -8.15154,4.52574l-9.81996,-6.7285v20.32188c0,0 -0.12789,3.49511 -13.65045,3.5461c-11.34969,0.0428 -12.83212,-3.5461 -12.83212,-3.5461z" fill="none" stroke="#000000" stroke-width="3.5"/></g><g stroke-linecap="butt"><path d="M269.25417,189.5252l-21.38743,-0.30998c0,0 -3.90497,-7.28712 -4.1409,-12.62103c-0.23593,-5.33391 2.99218,-13.34963 2.99218,-13.34963l20.47105,-1.32743l-6.68162,-10.66089c0,0 3.07972,-3.9471 4.97631,-5.76168c2.24809,-2.15088 7.67224,-4.9325 7.67224,-4.9325c0,0 5.6324,3.61774 12.43992,8.98472c7.09936,5.59706 15.41861,11.64591 18.81097,15.0694c4.05286,4.09005 5.18402,5.62282 4.81348,11.00131c-0.37054,5.37849 -2.42604,7.83846 -6.40731,12.13401c-6.37746,6.8809 -28.18262,25.18646 -28.18262,25.18646c0,0 -6.11883,-3.92868 -8.45788,-6.18241c-2.20704,-2.12653 -5.2034,-6.98056 -5.2034,-6.98056z" fill="#b2b1b1" stroke="none" stroke-width="0"/><path d="M245.37696,176.5823c-0.12286,-4.23217 0.21967,-13.10936 0.21967,-13.10936l4.08873,-0.50225c0,0 -1.57044,9.21236 -1.45982,13.6407c0.10272,4.11221 2.10159,12.05128 2.10159,12.05128l-4.01373,-0.49992c0,0 -0.82082,-7.59786 -0.93643,-11.58044z" fill="#f0eeee" stroke="none" stroke-width="0"/><path d="M263.14199,198.67435c0,0 3.01092,4.3393 4.93789,6.22499c2.18131,2.13458 4.63614,3.32955 5.55471,2.91865c2.20797,-0.98771 7.61014,-6.40474 12.63253,-11.04849c7.94851,-7.34927 15.67549,-13.72411 16.79142,-15.35186c1.05244,-1.53513 2.72857,-2.50093 2.71418,-5.48634c-0.01439,-2.9854 0.02248,-5.0482 -2.15283,-7.17025c-1.75806,-1.71501 -7.33035,-5.39145 -13.81884,-10.73593c-7.66686,-6.31509 -16.35257,-13.26182 -18.17729,-13.02468c-4.04678,0.52593 -8.44966,9.2489 -8.44966,9.2489l-2.87464,-3.53732c0,0 5.5196,-11.33093 12.81099,-8.62887c8.15105,3.02063 33.80435,25.90366 33.80435,25.90366c0,0 2.06079,5.18154 1.96886,7.73589c-0.08894,2.47116 -2.51177,7.34892 -2.51177,7.34892c0,0 -23.41455,24.47431 -31.72886,27.86624c-5.63891,2.30047 -13.76353,-10.97497 -13.76353,-10.97497z" fill="#f0eeee" stroke="none" stroke-width="0"/><path d="M244.55123,176.77062c-0.28671,-13.51961 3.20413,-13.73475 3.20413,-13.73475l20.31554,-0.50746l-6.97162,-9.64889c0,0 -2.61245,-1.79633 4.32077,-8.26201c5.69243,-5.30856 9.26441,-2.75442 9.26441,-2.75442l26.52827,20.22893c0,0 7.53677,4.41708 7.76889,13.70973c0.15483,6.1981 -7.11735,12.37337 -7.11735,12.37337l-24.98582,21.97305c0,0 -2.70322,3.67569 -9.45808,-1.7515c-7.69248,-6.18051 -5.98741,-9.38859 -5.98741,-9.38859l8.39003,-10.03261l-21.40631,0.53471c0,0 -3.6248,-1.39234 -3.86543,-12.73956z" fill="none" stroke="#000000" stroke-width="3.5"/></g></g></g></svg>