<svg version="1.1" xmlns="http://www.w3.org/2000/svg" xmlns:xlink="http://www.w3.org/1999/xlink" width="84.99962" height="70.7545" viewBox="0,0,84.99962,70.7545"><g transform="translate(-194.51051,-139.81405)"><g data-paper-data="{&quot;isPaintingLayer&quot;:true}" fill-rule="nonzero" stroke="none" stroke-width="0.5" stroke-linecap="butt" stroke-linejoin="miter" stroke-miterlimit="10" stroke-dasharray="" stroke-dashoffset="0" style="mix-blend-mode: normal"><path d="M212.67985,176.20842c0.22333,0.19972 1.70376,0.24457 2.17763,0.61246c1.29644,1.00648 2.70116,4.53347 3.25263,5.99989c0.27295,0.7258 -0.07196,2.06849 0.22034,2.56457c0.91799,1.55795 4.90651,4.87464 4.84275,6.58587c-0.05376,1.44292 -1.21083,2.58239 -2.17711,3.48989c-0.72866,0.68433 1.52542,1.94872 1.02946,2.81664c-1.09599,1.91798 -2.41465,1.73101 -4.35504,1.62417c-1.82672,-0.10057 -5.3573,1.25042 -6.97119,-0.50402c-0.6168,-0.67051 -0.41778,-6.16863 -1.46855,-6.5621c-1.9793,-0.74117 -3.8448,0.10653 -4.40019,-2.67041c-0.60986,-3.04931 4.81584,-3.53513 5.5536,-5.31438c1.45923,-3.51922 -2.59954,-5.58016 -2.30498,-6.66021c-0.0517,-0.20027 -0.0792,-0.41027 -0.0792,-0.6267c0,-1.38071 1.11929,-2.5 2.5,-2.5c0.40076,0 0.7795,0.0943 1.11524,0.26192c0.32073,0.16013 0.60221,0.38717 0.82615,0.66283c0.11056,0.10048 0.19424,0.18002 0.23846,0.21956z" fill="#ffa900"/><path d="M250.23304,196.16818l-0.00988,-0.03622l0.0376,-0.06266c0.1207,-0.39862 0.33827,-0.75515 0.62532,-1.04219l2.02222,-2.02222l-0.07667,-0.34504l-0.13932,-0.55728v-0.06966l-0.01558,-0.07009l0.01558,-0.02336v-0.75996l0.06039,-0.24157l-0.01184,-0.24872l0.23077,-1.15385l0.15885,-0.33534l0.09143,-0.35962l1.07692,-2l0.0218,-0.02393l0.00877,-0.03117l1.23077,-2.15385l0.14581,-0.15215l0.0899,-0.1906l1.38462,-1.69231l0.15469,-0.1152l0.10779,-0.15994l1.53846,-1.38462l0.15203,-0.08067l0.1146,-0.12841l1.92308,-1.30769l0.0935,-0.03436l0.07192,-0.06893l2.15385,-1.23077l0.19542,-0.05496l0.16712,-0.11525l1.23077,-0.46154l0.44413,-0.05076l0.43368,-0.10842h0.84615l0.83333,0.20833l0.16667,-0.02083l0.11111,0.09028l0.13889,0.03472l0.08333,0.14583l0.66667,0.54167l0.46154,0.61538l0.11881,0.28218l0.13136,0.08452l0.08246,0.42332l0.16736,0.39748l-0.062,0.14337l0.05854,0.30052l-0.0623,1.18377l0.00441,0.00662l-0.00624,0.02807l-0.01279,0.24308l-0.14971,0.48818l-0.11077,0.49846l-0.10886,0.21772l-0.00843,0.02749l-0.0071,0.00358l-0.79868,1.59736l-0.11445,0.13353l-0.06151,0.16476l-1.63571,2.37921l-1.39949,2.43069l-0.0399,0.07255l0.09897,0.18556l0.01091,0.00818l0.00193,0.01588l0.02086,0.03911l0.07692,0.30769v0.45988l0.05534,0.45654l-0.07692,0.61538l-0.30031,0.77579l0.00155,0.1738l-0.1106,0.1079l-0.05578,0.14409l-0.16044,0.06685l-0.59545,0.58092l-0.92308,0.53846l-0.3568,0.1038l-0.33028,0.1703l-1.30769,0.30769l-0.2053,-0.00285l-0.19529,0.06338l-2.23077,0.15385l-0.08664,-0.01542l-0.08537,0.02134h-0.864l-0.60668,0.65724l-0.03868,0.02536c0.93541,0.39354 1.66151,1.06819 1.97535,2.09871c1.47136,4.83143 -5.4123,5.25058 -8.22884,6.4853c-0.89574,0.39268 -1.73072,2.23381 -2.61356,2.82059c-2.96276,1.9692 -6.04076,2.72689 -9.53442,3.12301c-3.15384,0.35759 -7.84527,-0.82086 -6.81614,-2.87911c-0.00251,-0.04595 -0.00379,-0.09222 -0.00379,-0.1388c0,-0.00977 0.00006,-0.01954 0.00017,-0.02928c-0.01045,-0.66679 -0.99089,-1.23879 -1.31014,-1.74899c-0.26339,-0.42093 0.46378,-2.00509 0.68213,-2.42536c0.84923,-1.63454 3.57161,-0.93515 5.39513,-1.19539c2.85709,-0.40774 7.16381,-0.63937 9.92101,-1.71097c1.04638,-0.40668 1.54485,-2.13449 2.44126,-2.97575c0.33435,-0.31378 0.76787,-0.60299 1.26729,-0.85538c0.01276,-0.1291 0.03533,-0.25531 0.06697,-0.37788zM262.20004,184.7667l-1.27051,1.14346l-1.1317,1.38319l-0.66646,1.1663l0.75261,-0.2007l0.19775,-0.79101l1.29448,-0.7397l1.03416,-1.79617l0.07079,-0.07339l0.03566,-0.09552l0.27354,-0.39788z" fill="#ffa900"/><path d="M254.58983,170.76493c-2.13572,-3.7375 4.68361,-2.88883 4.69266,-4.0331c0.01947,-2.46263 -7.48462,-12.53412 0.2199,-12.08432c4.52813,0.26436 8.92205,4.47743 11.0344,8.22264c0.70838,1.25595 0.00948,3.05948 0.43407,3.91863c0.58993,1.19371 0.72066,3.04694 -0.22087,3.98847c-0.55437,0.55437 -3.62978,0.43426 -4.18697,0.48491c-0.45689,0.59665 -1.17656,0.98143 -1.9861,0.98143c-0.22336,0 -0.43988,-0.02929 -0.64592,-0.08424c-3.06152,-0.21754 -7.58664,1.67601 -9.34117,-1.39442z" fill="#ffa900"/><path d="M248.70788,157.91153c0.28912,2.8551 -3.24016,2.80137 -5.05404,2.7936c-4.57297,-0.01959 -9.41436,-0.01808 -13.50265,-2.26393c-1.88242,-1.03409 -0.87869,-3.64746 -1.65668,-4.53899c-0.93848,-1.07545 -2.47822,-1.2895 -2.89443,-2.9125c-1.05229,-4.10334 4.20494,-4.39917 6.96561,-3.62843c3.61095,1.00812 5.73489,3.88712 9.34025,4.16445l0.40685,0.13562c1.02156,0.31417 1.76412,1.26534 1.76412,2.38994c0,0.22876 -0.03073,0.45035 -0.08828,0.66086c1.09245,2.04242 4.36923,-0.25695 4.71924,3.19938z" fill="#ffa900"/><path d="M225.98077,167.00801c-0.73122,1.09683 -2.62717,0.40261 -3.94231,0.3125c-2.70434,-0.1853 -9.77281,-1.99655 -10.04505,-5.39955c-0.25889,-3.23614 3.46301,-5.85416 6.56942,-5.07756c2.78166,0.69541 1.97523,2.38543 1.59093,4.22652c-0.01184,0.05673 2.31159,0.48137 2.63286,0.48137l0.0213,-0.0071c0.2642,-0.09499 0.54902,-0.14675 0.84593,-0.14675c0.27076,0 0.53146,0.04304 0.77564,0.12266c2.51691,0.44677 2.9933,3.3249 1.55128,5.48792z" fill="#ffa900"/><path d="M256.69231,148.20513c0,-1.38071 1.11929,-2.5 2.5,-2.5c1.38071,0 2.5,1.11929 2.5,2.5c0,1.38071 -1.11929,2.5 -2.5,2.5c-1.38071,0 -2.5,-1.11929 -2.5,-2.5z" fill="#ffa900"/><path d="M272.15385,194.20513c0,-1.38071 1.11929,-2.5 2.5,-2.5c1.38071,0 2.5,1.11929 2.5,2.5c0,1.38071 -1.11929,2.5 -2.5,2.5c-1.38071,0 -2.5,-1.11929 -2.5,-2.5z" fill="#ffa900"/><path d="M204,207.17949c0,-1.38071 1.11929,-2.5 2.5,-2.5c1.38071,0 2.5,1.11929 2.5,2.5c0,1.38071 -1.11929,2.5 -2.5,2.5c-1.38071,0 -2.5,-1.11929 -2.5,-2.5z" fill="#ffa900"/><path d="M250.84522,170.71834c-1.7025,1.26517 -2.59567,9.1285 -6.05894,8.81366c-2.28881,-0.20807 -2.88875,-1.1072 -2.75078,-2.21633l-0.63597,0.19874l-0.22833,0.01324l-0.2135,0.08203l-3.76923,0.46154l-0.08512,-0.01054l-0.08195,0.02532l-5.61538,0.30769l-0.0688,-0.01325l-0.06798,0.01699h-7.46154l-0.05777,-0.01444l-0.05838,0.01174l-6.61538,-0.30769l-0.29478,-0.08844l-0.30743,-0.0143l-3.84615,-1.15385l-0.44215,-0.2629l-0.19305,-0.0067l-0.20626,-0.23074l-0.26602,-0.15817l-0.0436,-0.18818l-0.34284,-0.38351l-0.76923,-1.46154l-0.25266,-1.03472l-0.05416,-0.08858l0.01689,-0.06405l-0.01571,-0.06435l0.05578,-0.08757l0.27162,-1.0299l0.81583,-1.48333l-0.00156,-0.03713l0.4581,-0.47751l0.45,-0.48515l0.03716,-0.00061l2.63904,-1.65883l0.4343,-0.14208l0.41358,-0.19431l4.69231,-0.92308l0.24478,0.01243l0.23778,-0.05944h4.46154l0.15644,0.03911l0.16014,-0.01899l3.61538,0.46154l0.24085,0.09396l0.25755,0.02248l2.05472,0.70852l0.02398,-0.00654l0.05804,0.03483l0.09402,0.03242l0.47094,0.30656l0.48185,0.28911l0.07032,0.07032l0.05673,0.03693l0.00462,0.02443l0.559,0.559c0.72404,-1.15748 2.64321,-1.88469 3.74882,-2.3137c3.74034,-1.45139 8.40561,-2.30299 12.25566,-0.88596c0.1906,-0.06842 0.39191,-0.11434 0.60075,-0.13457c0.27643,-0.09872 0.53943,-0.06901 0.78859,0.04772c1.11885,0.24855 1.95544,1.24684 1.95544,2.44052c0.33987,0.54195 0.00203,1.06266 -0.5045,1.50622c-0.31808,0.42075 -0.76617,0.73774 -1.28449,0.89123c-0.11492,0.07255 -0.21406,0.1371 -0.28887,0.19269zM244.74825,172.11173c-0.55075,-0.36959 -1.63657,-0.25029 -2.93476,-0.0265l0.15014,0.00938l1.22807,0.38986l0.00414,0.00843l0.00938,0.00052l0.82824,0.96628c0.48498,-0.50038 1.156,-1.05188 0.71478,-1.34797zM225.1103,171.32051h-4.05904l-3.99817,0.78653l-0.89477,0.56243l1.45758,0.43727l6.24991,0.29069h4.27843l0.00734,-0.02934v-0.30776l0.0192,-0.07679l-0.00594,-0.015l0.02131,-0.0465l0.04235,-0.16941l0.14483,-0.27156l0.0161,-0.06441l0.02625,-0.015l0.06379,-0.11961l0.19601,-0.42767l-0.36263,-0.12505z" fill="#fffe00"/><path d="M252.70558,185.30431c-0.09678,0.33025 0.30593,1.81318 0.2615,2.31293c-0.25266,2.84238 -3.61262,6.18633 -6.48632,5.16001c-0.94794,-0.33855 -1.68608,-2.64018 -2.20801,-3.41767c-2.85369,-4.25101 -2.08187,-8.91622 3.28942,-4.95314c0.63761,0.47045 0.63649,-1.46913 1.12052,-2.0965c0.45098,-0.58454 3.05494,-3.05911 3.88292,-2.8333c0.20027,-0.0517 0.41027,-0.0792 0.6267,-0.0792c1.38071,0 2.5,1.11929 2.5,2.5c0.52549,0.67872 -0.03008,1.29189 -0.79964,1.83271c-0.21669,0.20114 -0.46911,0.36431 -0.74669,0.47895c-0.69399,0.41989 -1.34988,0.78633 -1.4404,1.09521z" fill="#fffe00"/><path d="M238.36281,189.85934c-2.59756,3.24695 -9.79939,-0.96453 -7.36783,-4.11763c1.70695,-2.21346 10.27451,-2.32293 10.97468,-1.09763c1.93644,3.38877 0.01878,4.52258 -3.20761,4.52258z" fill="#fffe00"/><path d="M203.6875,169.55769c-3.66047,2.0917 -10.45918,2.06758 -8.96612,-4.39937c0.368,-1.59395 1.9291,-3.4139 3.74426,-2.99383c0.5821,0.13471 0.21624,-1.18014 0.41368,-1.74406c0.47095,-1.3451 1.3154,-2.35258 2.48843,-3.1577c2.9187,-2.00327 6.15498,0.61163 6.44934,3.51097c0.31814,3.13361 -1.53086,6.77921 -4.07814,8.57823z" fill="#ff0000"/><path d="M266.57692,199.19231c0.11503,0.00692 0.22658,0.02922 0.33473,0.06423c0.87916,0.20329 1.58078,0.8703 1.83334,1.72951c0.21829,0.27379 0.40291,0.47011 0.5571,0.4794c1.08862,0.06556 2.56162,0.2103 3.04935,1.18576c0.37558,0.75116 0.07953,1.70489 -0.13975,2.51558c-1.13636,4.20101 -16.47135,1.69476 -8.24147,-2.6945c-0.08052,-0.24543 -0.12407,-0.50761 -0.12407,-0.77996c0,-0.9397 0.51846,-1.7583 1.28493,-2.18538c0.31262,-0.24158 0.74531,-0.35677 1.44584,-0.31462z" fill="#ff0000"/><path d="M271.05081,158.13401c-0.75295,-0.88153 0.14546,-2.82728 -0.88199,-3.36429c-2.47697,-1.29462 -5.26196,-2.7127 -6.56873,-5.34413c-0.56929,-1.14636 -1.76604,-4.53261 -0.14987,-5.60472c3.71165,-2.46219 4.83289,3.9904 7.12754,5.5287c0.73018,0.48951 1.19775,-1.61839 2.1258,-2.14871c2.12861,-1.21635 5.38283,1.51149 6.30405,3.23878c1.28994,2.41864 -0.12958,8.13658 -1.70921,10.10168c-0.08297,0.10321 -0.188,0.20146 -0.31026,0.29262c-0.43923,0.38288 -1.01352,0.61477 -1.64198,0.61477c-0.0457,0 -0.09111,-0.00123 -0.1362,-0.00365c-1.067,0.06984 -2.12579,-0.35742 -2.23286,-1.69575c-0.08491,-0.25135 -0.13094,-0.5206 -0.13094,-0.80061c0,-0.00797 0.00004,-0.01594 0.00011,-0.02389c-0.01663,-0.56281 -1.41388,-0.34407 -1.79546,-0.79081z" fill="#ff0000"/><path d="M236.03158,146.91406c-8.29811,1.01907 -9.99618,-4.61184 -0.88178,-4.98305c0.45866,-0.01868 0.88206,-0.40964 1.34018,-0.85058c0.36786,-0.63395 1.00632,-1.09138 1.75729,-1.2142c0.1397,-0.03418 0.28508,-0.05278 0.43692,-0.05217c0.10518,0.00043 0.20473,0.01472 0.29951,0.04084c1.13388,0.14946 2.02824,1.05881 2.15478,2.19975c1.01324,0.81339 12.13779,0.82121 6.68844,5.69695c-2.54114,2.27365 -8.92913,-0.76069 -11.64587,-0.8406z" fill="#ff0000"/></g></g></svg>