<svg version="1.1" xmlns="http://www.w3.org/2000/svg" xmlns:xlink="http://www.w3.org/1999/xlink" width="65.45409" height="57.14423" viewBox="0,0,65.45409,57.14423"><g transform="translate(-206.34092,-150.72788)"><g data-paper-data="{&quot;isPaintingLayer&quot;:true}" fill="#ffffff" fill-rule="nonzero" stroke="none" stroke-width="0" stroke-linecap="butt" stroke-linejoin="miter" stroke-miterlimit="10" stroke-dasharray="" stroke-dashoffset="0" style="mix-blend-mode: normal"><path d="M243.07242,170.47475c0,0 6.26555,-4.41593 8.63533,-7.77539c2.26899,-3.21659 5.29396,-11.97148 5.29396,-11.97148c0,0 2.83086,9.27261 5.28674,12.66529c2.47508,3.41915 9.50656,7.77072 9.50656,7.77072c0,0 -7.16844,3.35158 -9.62304,6.50726c-2.2261,2.86192 -4.48614,11.63173 -4.48614,11.63173c0,0 -3.32669,-9.70555 -5.79434,-12.88494c-2.40167,-3.09434 -8.81907,-5.94314 -8.81907,-5.94314z"/><path d="M206.34095,196.64571c0,0 3.73591,-2.63304 5.14888,-4.63616c1.35289,-1.91794 3.15657,-7.1381 3.15657,-7.1381c0,0 1.68792,5.52886 3.15226,7.55178c1.47578,2.0387 5.66837,4.63337 5.66837,4.63337c0,0 -4.27427,1.99842 -5.73783,3.88c-1.32735,1.70643 -2.67491,6.93552 -2.67491,6.93552c0,0 -1.98356,-5.78704 -3.45494,-7.68278c-1.43202,-1.84504 -5.25844,-3.54365 -5.25844,-3.54365z"/></g></g></svg>