<svg version="1.1" xmlns="http://www.w3.org/2000/svg" xmlns:xlink="http://www.w3.org/1999/xlink" width="361.56713" height="167.2134" viewBox="0,0,361.56713,167.2134"><g transform="translate(-271.7557,-177.66328)"><g data-paper-data="{&quot;isPaintingLayer&quot;:true}" fill-rule="nonzero" stroke-linecap="butt" stroke-linejoin="miter" stroke-miterlimit="10" stroke-dasharray="" stroke-dashoffset="0" style="mix-blend-mode: normal"><g><path d="M624.68934,324.71609l-234.91577,-38.19131l6.33848,-38.98812l234.91577,38.19131z" fill="#d4d4d4" stroke="#000000" stroke-width="4"/><path d="M342.09114,343.51152c-44.85208,-7.2918 -75.30069,-49.56278 -68.00889,-94.41486c7.2918,-44.85208 49.56277,-75.30068 94.41485,-68.00888c44.85208,7.2918 75.30068,49.56277 68.00888,94.41485c-7.2918,44.85208 -49.56276,75.30069 -94.41484,68.00888z" fill="#ff0000" stroke="none" stroke-width="0"/><path d="M390.15646,336.12021c0,0 -56.65118,21.20131 -98.73541,-23.33547c-25.58844,-27.07965 -13.11633,-78.25611 -13.11633,-78.25611c0,0 -3.3507,47.48379 24.95105,74.23297c36.90134,34.87706 86.90067,27.3586 86.90067,27.3586z" fill="#f0eeee" stroke="none" stroke-width="0"/><path d="M342.26915,341.80697c-44.47934,-7.2312 -74.67493,-49.15091 -67.44373,-93.63025c7.2312,-44.47934 49.15091,-74.67493 93.63025,-67.44373c44.47934,7.2312 74.67493,49.15091 67.44373,93.63025c-7.2312,44.47934 -49.15091,74.67493 -93.63025,67.44373z" fill="none" stroke="#000000" stroke-width="4"/><path d="M365.56224,316.57912c-1.97136,-3.76513 1.79376,-5.73649 1.79376,-5.73649l2.93126,-1.455c3.68322,-0.48824 8.14181,-0.29874 11.70685,-1.53987c3.10155,-1.07977 4.73561,-3.0808 8.19704,-3.95742c0.92663,-0.23467 4.96814,-0.68336 6.00512,-1.144c3.47005,-1.54142 6.46296,-6.06569 8.74706,-8.83936c5.47791,-6.65205 10.67883,-13.01295 12.0556,-21.69894c1.13485,-6.74737 -1.32194,-13.10468 -2.61128,-19.71266c-2.71476,-13.91332 -7.7157,-29.08958 -20.32907,-37.24254c-1.6906,-1.09276 -4.95577,-1.02256 -6.84282,-1.32935c0,0 -4.19492,-0.68198 -3.51294,-4.87691c0.68198,-4.19492 4.87691,-3.51294 4.87691,-3.51294c3.26074,0.53011 6.84232,0.68218 9.77642,2.38564c14.98449,8.69963 21.25539,27.10428 24.3786,42.97108c1.53299,7.78805 3.9102,14.73838 2.65403,22.68164c-1.70597,10.27735 -7.39728,17.8717 -13.89499,25.75174c-3.18798,3.86621 -7.00439,8.96058 -11.72339,11.13464c-3.13191,1.44287 -6.87108,0.84321 -9.90626,2.36957c-1.72367,0.8668 -3.13753,2.33712 -4.9487,3.00202c-3.84284,1.41075 -8.10596,1.30757 -12.11838,1.67867l-1.49831,0.86424c0,0 -3.76513,1.97136 -5.73649,-1.79376z" fill="#000000" stroke="none" stroke-width="0.5"/><path d="M364.7349,287.77306c-5.15266,-0.83769 -10.30531,-1.67538 -15.45799,-2.51306c0,0 -0.69315,-0.11268 -1.47011,-0.52821c-13.51156,4.85995 -27.25445,9.02701 -40.60645,14.34973l-1.72662,-6.38278l-1.42032,-1.5132c0.30417,-0.12121 0.60854,-0.24181 0.9131,-0.36186l-0.10239,-0.37851c0,0 1.49196,-1.07469 3.22006,-0.82896c14.5444,-5.53809 29.46721,-9.95804 44.00144,-15.53855c4.48964,-1.39884 8.89928,-3.05708 13.25634,-4.82619c2.17654,-0.88374 4.37584,-1.71099 6.578,-2.5288c0.38676,-0.14364 0.76822,-0.34566 1.15211,-0.53371c-0.97978,-0.96906 -1.86605,-2.04466 -2.5935,-3.21099c-2.13399,-3.42141 -2.49438,-6.13612 -4.87431,-9.17983c-5.86602,-7.50211 -13.42215,-13.21051 -19.74242,-20.19033c-3.1143,-3.43928 -5.4407,-7.60628 -8.88621,-10.71367c-0.95253,-0.85904 -2.25898,-1.24777 -3.245,-2.06816c-0.68074,-0.5664 -0.95388,-1.56249 -1.69715,-2.04389c-0.67741,-0.43875 -1.56747,-0.3854 -2.35121,-0.5781c0,0 -4.05633,-1.26839 -2.78793,-5.3247c1.26839,-4.05633 5.3247,-2.78793 5.3247,-2.78793c6.50854,2.2677 11.90078,7.52883 16.36033,12.80488c1.32887,1.57218 2.2175,3.49189 3.59617,5.02059c2.51401,2.78759 5.27762,5.37655 8.04987,7.96427c0.07499,0.00799 0.11624,0.01469 0.11624,0.01469c5.28753,0.85962 10.61885,1.73909 15.93845,1.11311l-0.03678,0.45487c0.19885,-0.05818 0.39439,-0.10059 0.58135,-0.13103l0.04386,-0.26979l3.94816,0.64187c2.31679,0.37665 3.88959,2.56012 3.51294,4.87691c-0.37665,2.31679 -2.56012,3.88959 -4.87691,3.51294l-3.5096,-0.57056c-1.99083,0.22414 -3.9939,0.24891 -5.99882,0.14709c1.95012,2.30191 3.71813,4.75674 5.18062,7.46561c0.91504,1.6949 1.46615,3.58222 2.48546,5.21655c1.99246,3.19466 6.03291,5.0699 5.60455,9.77167c-0.39051,4.28621 -5.38276,5.41901 -8.2812,6.54541c-3.75161,1.45793 -7.42994,2.93887 -11.14637,4.33699c2.36263,0.3841 4.72525,0.76821 7.08788,1.15231l2.96112,0.48141c2.31679,0.37665 3.88959,2.56012 3.51294,4.87691c-0.37665,2.31679 -2.56012,3.88959 -4.87691,3.51294l-2.96112,-0.48141l-0.18652,0.52824c0,0 -2.93327,0.91536 -4.58983,-1.30475z" fill="#000000" stroke="none" stroke-width="0.5"/></g></g></g></svg>