<svg version="1.1" xmlns="http://www.w3.org/2000/svg" xmlns:xlink="http://www.w3.org/1999/xlink" width="73.5" height="73.5" viewBox="0,0,73.5,73.5"><g transform="translate(-203.25,-143.25)"><g data-paper-data="{&quot;isPaintingLayer&quot;:true}" fill-rule="nonzero" stroke-linecap="butt" stroke-linejoin="miter" stroke-miterlimit="10" stroke-dasharray="" stroke-dashoffset="0" style="mix-blend-mode: normal"><path d="M205.5625,180.04166c0,-18.77768 15.22232,-34 34,-34c18.77768,0 34,15.22232 34,34c0,18.77768 -15.22232,34 -34,34c-18.77768,0 -34,-15.22232 -34,-34z" fill="#ff0000" stroke="none" stroke-width="0"/><path d="M212.475,199.74166c0,0 -14.34576,-22.36543 1.5,-43.1c9.63468,-12.60722 32,-9.3 32,-9.3c0,0 -20.18966,0.27477 -29.5,14c-12.13933,17.89569 -4,38.4 -4,38.4z" fill="#f0eeee" stroke="none" stroke-width="0"/><path d="M205.25,180c0,-19.19189 15.55811,-34.75 34.75,-34.75c19.19189,0 34.75,15.55811 34.75,34.75c0,19.19189 -15.55811,34.75 -34.75,34.75c-19.19189,0 -34.75,-15.55811 -34.75,-34.75z" fill="none" stroke="#000000" stroke-width="4"/></g></g></svg>