<svg viewBox="0,0,127,127" height="127" width="127" xmlns:xlink="http://www.w3.org/1999/xlink" xmlns="http://www.w3.org/2000/svg" version="1.1"><defs><radialGradient id="color-1" gradientUnits="userSpaceOnUse" r="63.5" cy="180" cx="240"><stop stop-color="#f1ff00" offset="0"></stop><stop stop-opacity="0" stop-color="#f1ff00" offset="1"></stop></radialGradient><radialGradient id="color-2" gradientUnits="userSpaceOnUse" r="34" cy="180" cx="240"><stop stop-color="#ffffff" offset="0"></stop><stop stop-color="#f1ff00" offset="1"></stop></radialGradient></defs><g transform="translate(-176.5,-116.5)"><g style="mix-blend-mode: normal" stroke-dashoffset="0" stroke-dasharray="" stroke-miterlimit="10" stroke-linejoin="miter" stroke-linecap="butt" fill-rule="nonzero" data-paper-data="{&quot;isPaintingLayer&quot;:true}"><path stroke-width="none" stroke="none" fill="url(#color-1)" d="M176.5,180c0,-35.07008 28.42992,-63.5 63.5,-63.5c35.07008,0 63.5,28.42992 63.5,63.5c0,35.07008 -28.42992,63.5 -63.5,63.5c-35.07008,0 -63.5,-28.42992 -63.5,-63.5z"></path><path stroke-width="0" stroke="none" fill="url(#color-2)" d="M206,180c0,-18.77768 15.22232,-34 34,-34c18.77768,0 34,15.22232 34,34c0,18.77768 -15.22232,34 -34,34c-18.77768,0 -34,-15.22232 -34,-34z"></path><path stroke-width="0" stroke="none" fill="#f0eeee" d="M212.475,199.74166c0,0 -14.34576,-22.36543 1.5,-43.1c9.63468,-12.60722 32,-9.3 32,-9.3c0,0 -20.18966,0.27477 -29.5,14c-12.13933,17.89569 -4,38.4 -4,38.4z"></path><path stroke-width="4" stroke="#e1ec00" fill="none" d="M205.25,180c0,-19.19189 15.55811,-34.75 34.75,-34.75c19.19189,0 34.75,15.55811 34.75,34.75c0,19.19189 -15.55811,34.75 -34.75,34.75c-19.19189,0 -34.75,-15.55811 -34.75,-34.75z"></path></g></g></svg>